<svg aria-hidden="true" xmlns="http://www.w3.org/2000/svg" xmlns:xlink="http://www.w3.org/1999/xlink"><symbol viewBox="0 0 22 22" fill="none" id="facebook" xmlns="http://www.w3.org/2000/svg">
<path d="M13.64 4.84007H16.28V1.47231C15.9649 1.43051 14.5195 1.32007 13.262 1.32007C10.56 1.32007 8.79997 2.93927 8.79997 5.88199V8.36007H5.71997V11.8801H8.79997V20.6801H12.32V11.8801H15.84L16.28 8.36007H12.32V6.16007C12.32 5.43099 12.9109 4.84007 13.64 4.84007Z" stroke="currentColor" stroke-width="1.7" stroke-miterlimit="10" stroke-linejoin="round"/>
</symbol><symbol viewBox="0 0 22 22" fill="none" id="instagram" xmlns="http://www.w3.org/2000/svg">
<path d="M11.0112 5.87657C9.99687 5.87509 9.00485 6.17453 8.1607 6.73701C7.31655 7.29949 6.65822 8.09972 6.26901 9.03646C5.87979 9.9732 5.77719 11.0043 5.97417 11.9994C6.17116 12.9945 6.65888 13.9088 7.37563 14.6266C8.09238 15.3444 9.00595 15.8334 10.0007 16.0319C10.9955 16.2303 12.0268 16.1292 12.9641 15.7414C13.9014 15.3535 14.7026 14.6964 15.2663 13.853C15.83 13.0097 16.1309 12.0181 16.1309 11.0037C16.1319 10.3308 16.0002 9.66424 15.7434 9.04223C15.4865 8.42022 15.1096 7.85494 14.6341 7.37874C14.1586 6.90254 13.5938 6.52476 12.9722 6.267C12.3506 6.00924 11.6842 5.87657 11.0112 5.87657ZM11.0112 14.336C10.3519 14.3375 9.70687 14.1434 9.15789 13.7781C8.60891 13.4128 8.18064 12.8929 7.92727 12.2842C7.67391 11.6754 7.60685 11.0052 7.73458 10.3583C7.8623 9.71137 8.17908 9.11691 8.64481 8.65013C9.11054 8.18335 9.70428 7.86523 10.3509 7.73605C10.9975 7.60686 11.6679 7.67241 12.2772 7.9244C12.8866 8.17639 13.4074 8.6035 13.7739 9.15165C14.1404 9.69981 14.336 10.3444 14.336 11.0037C14.3341 11.8856 13.9834 12.7309 13.3605 13.3552C12.7376 13.9795 11.8931 14.3321 11.0112 14.336ZM17.5358 5.65908C17.5358 5.89542 17.4658 6.12644 17.3345 6.32295C17.2032 6.51945 17.0165 6.67261 16.7982 6.76305C16.5799 6.85349 16.3396 6.87716 16.1078 6.83105C15.876 6.78494 15.6631 6.67114 15.496 6.50402C15.3289 6.33691 15.2151 6.124 15.169 5.8922C15.1228 5.66041 15.1465 5.42015 15.2369 5.20181C15.3274 4.98346 15.4805 4.79684 15.6771 4.66554C15.8736 4.53424 16.1046 4.46416 16.3409 4.46416C16.4979 4.46383 16.6535 4.49451 16.7986 4.55445C16.9437 4.61438 17.0756 4.70238 17.1866 4.81341C17.2976 4.92443 17.3856 5.05629 17.4456 5.20142C17.5055 5.34654 17.5362 5.50207 17.5358 5.65908ZM20.9306 6.87401C20.9634 5.31954 20.3834 3.81458 19.3157 2.68427C18.1832 1.62009 16.6797 1.04058 15.126 1.06937C13.4761 0.976876 8.5264 0.976876 6.87651 1.06937C5.32175 1.03912 3.81694 1.61879 2.68427 2.68427C1.61825 3.8156 1.03844 5.31987 1.06937 6.87401C0.976876 8.52391 0.976876 13.4736 1.06937 15.1235C1.0359 16.6788 1.61602 18.1848 2.68427 19.3157C3.81718 20.3792 5.32039 20.9586 6.87401 20.9306C8.52391 21.0231 13.4736 21.0231 15.1235 20.9306C16.678 20.9634 18.1829 20.3834 19.3132 19.3157C20.3774 18.1832 20.9569 16.6797 20.9281 15.126C21.0206 13.4761 21.0206 8.5314 20.9281 6.87651L20.9306 6.87401ZM18.7983 16.9084C18.6286 17.3383 18.3724 17.7287 18.0455 18.0555C17.7187 18.3824 17.3283 18.6386 16.8984 18.8083C14.9625 19.2023 12.9823 19.3343 11.0112 19.2007C9.03722 19.3297 7.0548 19.1943 5.11662 18.7983C4.68672 18.6286 4.29626 18.3724 3.96945 18.0455C3.64264 17.7187 3.38644 17.3283 3.21674 16.8984C2.81529 14.9609 2.67655 12.9782 2.80426 11.0037C2.67532 9.02972 2.81067 7.04731 3.20674 5.10912C3.37644 4.67922 3.63264 4.28877 3.95945 3.96195C4.28627 3.63514 4.67672 3.37894 5.10662 3.20924C7.04767 2.8094 9.03378 2.67319 11.0112 2.80426C12.9853 2.67532 14.9677 2.81067 16.9059 3.20674C17.3358 3.37644 17.7262 3.63264 18.053 3.95945C18.3799 4.28627 18.6361 4.67672 18.8058 5.10662C19.2039 7.04453 19.3392 9.02721 19.2082 11.0013C19.338 12.9798 19.2001 14.9668 18.7983 16.9084Z" fill="currentColor"/>
</symbol><symbol viewBox="0 0 22 22" fill="none" id="x-com" xmlns="http://www.w3.org/2000/svg">
<path d="M9.51957 11.5867L9.37293 11.372L9.20302 11.5688L2.58982 19.2292L2.30433 19.5599H2.74121H4.14041H4.23202L4.29185 19.4905L10.1219 12.7321L10.2223 12.6157L10.1356 12.4887L9.51957 11.5867Z" fill="currentColor" stroke="currentColor" stroke-width="0.4"/>
<path d="M18.7193 2.77053L19.0045 2.43989H18.5679H17.1731H17.0815L17.0217 2.50921L11.5525 8.84521L11.4516 8.96205L11.5391 9.08923L12.1595 9.99123L12.3064 10.2048L12.4757 10.0085L18.7193 2.77053Z" fill="currentColor" stroke="currentColor" stroke-width="0.4"/>
<path d="M8.05582 2.52676L7.99624 2.43989H7.8909H2.60474H2.22502L2.43981 2.75302L13.9088 19.473L13.9684 19.5599H14.0738H19.3599H19.7397L19.5249 19.2468L8.05582 2.52676ZM4.65514 3.71989H7.32224L17.3095 18.2799H14.6429L4.65514 3.71989Z" fill="currentColor" stroke="currentColor" stroke-width="0.4"/>
</symbol></svg>