<svg width="500" height="500" viewBox="0 0 500 500" fill="none" xmlns="http://www.w3.org/2000/svg">
<path d="M422.187 414.397C409.918 414.397 398.314 409.72 389.476 401.22H317.913C309.075 409.72 297.471 414.397 285.202 414.397C259.175 414.397 238 393.223 238 367.196C238 343.136 256.005 322.973 279.882 320.295L422.58 320C448.39 320.211 469.388 341.384 469.388 367.196C469.388 393.223 448.214 414.397 422.187 414.397ZM317.347 399.828H390.041L390.244 400.025C398.844 408.394 410.188 413.004 422.186 413.004C447.445 413.004 467.995 392.454 467.995 367.195C467.995 342.146 447.619 321.599 422.573 321.391L279.961 321.683C256.866 324.279 239.393 343.846 239.393 367.196C239.393 392.455 259.942 413.005 285.201 413.005C297.199 413.005 308.544 408.395 317.143 400.026L317.347 399.828Z" fill="#DE49BF"/>
<path d="M285.201 397.36C268.568 397.36 255.036 383.829 255.036 367.196C255.036 350.563 268.568 337.031 285.201 337.031C301.834 337.031 315.365 350.563 315.365 367.196C315.365 383.829 301.834 397.36 285.201 397.36ZM285.201 338.423C269.336 338.423 256.43 351.33 256.43 367.195C256.43 383.059 269.337 395.967 285.201 395.967C301.065 395.967 313.972 383.06 313.972 367.195C313.973 351.331 301.065 338.423 285.201 338.423Z" fill="#DE49BF"/>
<path d="M423.172 407.164C401.133 407.164 383.203 389.234 383.203 367.195C383.203 345.156 401.133 327.226 423.172 327.226C445.212 327.226 463.142 345.156 463.142 367.195C463.142 389.235 445.212 407.164 423.172 407.164ZM423.172 328.62C401.902 328.62 384.596 345.926 384.596 367.196C384.596 388.466 401.902 405.772 423.172 405.772C444.444 405.772 461.749 388.466 461.749 367.196C461.749 345.926 444.443 328.62 423.172 328.62Z" fill="#DE49BF"/>
<path d="M287.44 386.667H282.962C279.823 386.667 277.27 384.114 277.27 380.976V373.748H270.043C266.904 373.748 264.351 371.195 264.351 368.057V363.579C264.351 360.44 266.904 357.888 270.043 357.888H277.27V350.66C277.27 347.521 279.823 344.969 282.962 344.969H287.44C290.579 344.969 293.131 347.522 293.131 350.66V357.888H300.358C303.497 357.888 306.049 360.441 306.049 363.579V368.057C306.049 371.196 303.496 373.748 300.358 373.748H293.131V380.976C293.132 384.115 290.579 386.667 287.44 386.667ZM270.043 359.28C267.673 359.28 265.745 361.209 265.745 363.579V368.057C265.745 370.427 267.673 372.356 270.043 372.356H278.664V380.976C278.664 383.346 280.592 385.275 282.962 385.275H287.44C289.81 385.275 291.739 383.346 291.739 380.976V372.356H300.359C302.729 372.356 304.658 370.427 304.658 368.057V363.579C304.658 361.209 302.729 359.28 300.359 359.28H291.739V350.66C291.739 348.29 289.81 346.361 287.44 346.361H282.962C280.592 346.361 278.664 348.29 278.664 350.66V359.28H270.043Z" fill="#DE49BF"/>
<path d="M359.918 387.647C358.938 387.647 357.957 387.274 357.21 386.528C355.716 385.034 355.716 382.604 357.21 381.111L364.656 373.665C366.148 372.171 368.58 372.171 370.072 373.665C371.566 375.158 371.566 377.588 370.072 379.081L362.626 386.527C361.88 387.274 360.899 387.647 359.918 387.647ZM367.364 373.937C366.74 373.937 366.116 374.174 365.64 374.649L358.194 382.095C357.244 383.045 357.244 384.592 358.194 385.542C359.145 386.491 360.69 386.491 361.641 385.542L369.087 378.096C370.037 377.146 370.037 375.599 369.087 374.649C368.612 374.174 367.988 373.937 367.364 373.937Z" fill="#DE49BF"/>
<path d="M340.024 386.096C339.043 386.096 338.062 385.723 337.316 384.976C335.822 383.483 335.822 381.053 337.316 379.56L344.762 372.115C346.254 370.62 348.686 370.621 350.178 372.115C351.672 373.608 351.672 376.038 350.178 377.531L342.732 384.976C341.985 385.723 341.004 386.096 340.024 386.096ZM347.47 372.387C346.846 372.387 346.222 372.624 345.746 373.099L338.3 380.544C337.35 381.494 337.35 383.041 338.3 383.991C339.251 384.94 340.796 384.94 341.747 383.991L349.193 376.546C350.143 375.596 350.143 374.049 349.193 373.099C348.718 372.625 348.094 372.387 347.47 372.387Z" fill="#DE49BF"/>
<path d="M407.899 375.218C404.781 375.218 401.849 374.003 399.644 371.798C397.44 369.594 396.225 366.662 396.225 363.544C396.225 360.426 397.44 357.494 399.645 355.289L419.019 335.915C423.57 331.363 430.977 331.361 435.528 335.915C440.08 340.467 440.08 347.872 435.528 352.423L416.153 371.798C413.949 374.003 411.018 375.218 407.899 375.218ZM427.274 333.894C424.64 333.894 422.008 334.896 420.004 336.9L400.63 356.275C398.689 358.216 397.619 360.798 397.619 363.545C397.619 366.29 398.688 368.872 400.63 370.815C402.571 372.756 405.153 373.826 407.9 373.826C410.645 373.826 413.227 372.757 415.17 370.815L434.545 351.44C438.552 347.432 438.552 340.91 434.544 336.901C432.539 334.896 429.906 333.894 427.274 333.894Z" fill="#DE49BF"/>
<path d="M426.969 353.083C422.222 353.083 418.361 349.222 418.361 344.475C418.361 339.728 422.222 335.867 426.969 335.867C431.716 335.867 435.577 339.728 435.577 344.475C435.577 349.222 431.716 353.083 426.969 353.083ZM426.969 337.259C422.991 337.259 419.753 340.496 419.753 344.475C419.753 348.454 422.99 351.691 426.969 351.691C430.948 351.691 434.185 348.454 434.185 344.475C434.185 340.496 430.947 337.259 426.969 337.259Z" fill="#DE49BF"/>
<path d="M408.094 371.958C403.347 371.958 399.486 368.097 399.486 363.35C399.486 358.603 403.347 354.742 408.094 354.742C412.841 354.742 416.702 358.603 416.702 363.35C416.702 368.097 412.841 371.958 408.094 371.958ZM408.094 356.134C404.116 356.134 400.878 359.371 400.878 363.35C400.878 367.329 404.115 370.566 408.094 370.566C412.073 370.566 415.31 367.329 415.31 363.35C415.31 359.371 412.072 356.134 408.094 356.134Z" fill="#DE49BF"/>
<path d="M419.07 401.89C416.081 401.89 413.092 400.752 410.816 398.477C406.264 393.924 406.264 386.519 410.816 381.968L430.191 362.593C432.395 360.388 435.327 359.173 438.445 359.173C441.563 359.173 444.495 360.388 446.699 362.593C448.904 364.797 450.119 367.729 450.119 370.847C450.119 373.965 448.904 376.897 446.699 379.102L427.324 398.476C425.049 400.752 422.06 401.89 419.07 401.89ZM438.445 360.567C435.699 360.567 433.117 361.636 431.176 363.578L411.8 382.953C407.793 386.961 407.793 393.483 411.801 397.492C415.81 401.498 422.33 401.5 426.339 397.492L445.714 378.116C447.655 376.176 448.725 373.594 448.725 370.847C448.725 368.102 447.656 365.52 445.714 363.577C443.772 361.636 441.19 360.567 438.445 360.567Z" fill="#DE49BF"/>
<path d="M438.14 379.761C433.393 379.761 429.532 375.9 429.532 371.153C429.532 366.406 433.393 362.545 438.14 362.545C442.887 362.545 446.748 366.406 446.748 371.153C446.748 375.9 442.887 379.761 438.14 379.761ZM438.14 363.937C434.162 363.937 430.924 367.174 430.924 371.153C430.924 375.132 434.161 378.369 438.14 378.369C442.119 378.369 445.356 375.132 445.356 371.153C445.356 367.174 442.118 363.937 438.14 363.937Z" fill="#DE49BF"/>
<path d="M419.265 398.636C414.518 398.636 410.657 394.775 410.657 390.028C410.657 385.281 414.518 381.42 419.265 381.42C424.012 381.42 427.873 385.281 427.873 390.028C427.873 394.775 424.012 398.636 419.265 398.636ZM419.265 382.812C415.287 382.812 412.049 386.049 412.049 390.028C412.049 394.007 415.286 397.244 419.265 397.244C423.244 397.244 426.481 394.007 426.481 390.028C426.481 386.049 423.243 382.812 419.265 382.812Z" fill="#DE49BF"/>
<path d="M155.905 168.826C154.842 165.571 153.44 162.655 151.7 160.077C149.992 157.467 147.946 155.244 145.561 153.407C143.209 151.57 140.534 150.168 137.537 149.202C134.541 148.235 131.254 147.751 127.677 147.751C121.812 147.751 116.479 149.266 111.678 152.295C106.876 155.324 103.058 159.787 100.222 165.684C97.3865 171.581 95.9686 178.815 95.9686 187.387C95.9686 195.958 97.4026 203.193 100.271 209.09C103.138 214.987 107.021 219.45 111.919 222.479C116.818 225.508 122.328 227.022 128.45 227.022C134.122 227.022 139.116 225.814 143.434 223.397C147.785 220.948 151.168 217.5 153.585 213.053C156.034 208.574 157.259 203.305 157.259 197.247L160.932 198.021H131.157V187.387H168.859V198.021C168.859 206.173 167.119 213.263 163.639 219.289C160.191 225.314 155.422 229.987 149.331 233.306C143.273 236.593 136.313 238.236 128.45 238.236C119.685 238.236 111.984 236.174 105.346 232.049C98.7399 227.925 93.5841 222.06 89.8783 214.455C86.2048 206.85 84.368 197.827 84.368 187.387C84.368 179.556 85.4153 172.516 87.5099 166.264C89.6366 159.98 92.6335 154.631 96.5003 150.217C100.367 145.802 104.943 142.418 110.228 140.066C115.512 137.714 121.329 136.538 127.677 136.538C132.897 136.538 137.763 137.327 142.274 138.906C146.818 140.453 150.862 142.66 154.407 145.528C157.984 148.364 160.964 151.763 163.349 155.727C165.733 159.658 167.377 164.025 168.279 168.826H155.905ZM190.393 236.883H177.825L214.174 137.891H226.548L262.897 236.883H250.329L220.748 153.552H219.974L190.393 236.883ZM195.033 198.214H245.689V208.848H195.033V198.214ZM278.316 137.891H292.623L326.265 220.062H327.425L361.067 137.891H375.374V236.883H364.16V161.672H363.193L332.259 236.883H321.431L290.496 161.672H289.53V236.883H278.316V137.891ZM399.409 236.883V137.891H459.152V148.525H411.396V181.973H456.059V192.607H411.396V226.249H459.926V236.883H399.409Z" fill="#DE49BF"/>
<path d="M181.014 300.397C181.014 310.837 179.129 319.86 175.359 327.465C171.589 335.07 166.417 340.934 159.843 345.059C153.269 349.184 145.761 351.246 137.318 351.246C128.876 351.246 121.368 349.184 114.794 345.059C108.22 340.934 103.048 335.07 99.2781 327.465C95.5079 319.86 93.6228 310.837 93.6228 300.397C93.6228 289.956 95.5079 280.933 99.2781 273.329C103.048 265.724 108.22 259.859 114.794 255.734C121.368 251.61 128.876 249.547 137.318 249.547C145.761 249.547 153.269 251.61 159.843 255.734C166.417 259.859 171.589 265.724 175.359 273.329C179.129 280.933 181.014 289.956 181.014 300.397ZM169.413 300.397C169.413 291.825 167.98 284.591 165.112 278.694C162.276 272.797 158.425 268.334 153.559 265.305C148.726 262.276 143.312 260.761 137.318 260.761C131.325 260.761 125.895 262.276 121.029 265.305C116.196 268.334 112.345 272.797 109.477 278.694C106.641 284.591 105.223 291.825 105.223 300.397C105.223 308.968 106.641 316.202 109.477 322.099C112.345 327.996 116.196 332.459 121.029 335.488C125.895 338.518 131.325 340.032 137.318 340.032C143.312 340.032 148.726 338.518 153.559 335.488C158.425 332.459 162.276 327.996 165.112 322.099C167.98 316.202 169.413 308.968 169.413 300.397ZM200.578 250.901L229.966 334.232H231.126L260.514 250.901H273.082L236.733 349.893H224.359L188.011 250.901H200.578ZM288.501 349.893V250.901H348.244V261.535H300.488V294.983H345.151V305.617H300.488V339.259H349.017V349.893H288.501ZM369.85 349.893V250.901H403.299C411.032 250.901 417.381 252.222 422.343 254.864C427.305 257.474 430.979 261.067 433.364 265.643C435.748 270.219 436.94 275.423 436.94 281.256C436.94 287.088 435.748 292.26 433.364 296.771C430.979 301.283 427.322 304.827 422.391 307.405C417.461 309.951 411.161 311.224 403.492 311.224H376.424V300.397H403.105C408.39 300.397 412.644 299.623 415.866 298.077C419.121 296.53 421.473 294.339 422.923 291.503C424.405 288.635 425.146 285.219 425.146 281.256C425.146 277.292 424.405 273.828 422.923 270.863C421.441 267.899 419.072 265.611 415.818 264C412.563 262.356 408.261 261.535 402.912 261.535H381.838V349.893H369.85ZM416.446 305.424L440.807 349.893H426.887L402.912 305.424H416.446Z" fill="#DE49BF"/>
<path d="M148.691 168.826C147.628 165.571 146.226 162.655 144.486 160.077C142.778 157.467 140.732 155.244 138.347 153.407C135.995 151.57 133.32 150.168 130.324 149.202C127.327 148.235 124.04 147.751 120.463 147.751C114.598 147.751 109.265 149.266 104.464 152.295C99.6625 155.324 95.844 159.787 93.0083 165.684C90.1726 171.581 88.7547 178.815 88.7547 187.387C88.7547 195.958 90.1887 203.193 93.0566 209.09C95.9246 214.987 99.8075 219.45 104.706 222.479C109.604 225.508 115.114 227.022 121.236 227.022C126.908 227.022 131.903 225.814 136.221 223.397C140.571 220.948 143.954 217.5 146.371 213.053C148.82 208.574 150.045 203.305 150.045 197.247L153.718 198.021H123.943V187.387H161.645V198.021C161.645 206.173 159.905 213.263 156.425 219.289C152.977 225.314 148.208 229.987 142.118 233.306C136.059 236.593 129.099 238.236 121.236 238.236C112.472 238.236 104.77 236.174 98.1319 232.049C91.526 227.925 86.3702 222.06 82.6644 214.455C78.9909 206.85 77.1541 197.827 77.1541 187.387C77.1541 179.556 78.2014 172.516 80.296 166.264C82.4227 159.98 85.4196 154.631 89.2864 150.217C93.1533 145.802 97.7291 142.418 103.014 140.066C108.299 137.714 114.115 136.538 120.463 136.538C125.683 136.538 130.549 137.327 135.061 138.906C139.604 140.453 143.648 142.66 147.193 145.528C150.77 148.364 153.75 151.763 156.135 155.727C158.52 159.658 160.163 164.025 161.065 168.826H148.691ZM183.179 236.883H170.612L206.96 137.891H219.334L255.683 236.883H243.115L213.534 153.552H212.76L183.179 236.883ZM187.819 198.214H238.475V208.848H187.819V198.214ZM271.102 137.891H285.409L319.051 220.062H320.211L353.853 137.891H368.16V236.883H356.946V161.672H355.98L325.045 236.883H314.217L283.282 161.672H282.316V236.883H271.102V137.891ZM392.195 236.883V137.891H451.938V148.525H404.183V181.973H448.845V192.607H404.183V226.249H452.712V236.883H392.195Z" fill="#47C0CC"/>
<path d="M173.8 300.397C173.8 310.837 171.915 319.86 168.145 327.465C164.375 335.07 159.203 340.934 152.629 345.059C146.055 349.184 138.547 351.246 130.105 351.246C121.662 351.246 114.154 349.184 107.58 345.059C101.006 340.934 95.8345 335.07 92.0643 327.465C88.2941 319.86 86.409 310.837 86.409 300.397C86.409 289.956 88.2941 280.933 92.0643 273.329C95.8345 265.724 101.006 259.859 107.58 255.734C114.154 251.61 121.662 249.547 130.105 249.547C138.547 249.547 146.055 251.61 152.629 255.734C159.203 259.859 164.375 265.724 168.145 273.329C171.915 280.933 173.8 289.956 173.8 300.397ZM162.2 300.397C162.2 291.825 160.766 284.591 157.898 278.694C155.062 272.797 151.211 268.334 146.346 265.305C141.512 262.276 136.098 260.761 130.105 260.761C124.111 260.761 118.681 262.276 113.815 265.305C108.982 268.334 105.131 272.797 102.263 278.694C99.4275 284.591 98.0096 291.825 98.0096 300.397C98.0096 308.968 99.4275 316.202 102.263 322.099C105.131 327.996 108.982 332.459 113.815 335.488C118.681 338.518 124.111 340.032 130.105 340.032C136.098 340.032 141.512 338.518 146.346 335.488C151.211 332.459 155.062 327.996 157.898 322.099C160.766 316.202 162.2 308.968 162.2 300.397ZM193.364 250.901L222.752 334.232H223.912L253.301 250.901H265.868L229.519 349.893H217.145L180.797 250.901H193.364ZM281.287 349.893V250.901H341.03V261.535H293.274V294.983H337.937V305.617H293.274V339.259H341.804V349.893H281.287ZM362.636 349.893V250.901H396.085C403.819 250.901 410.167 252.222 415.129 254.864C420.092 257.474 423.765 261.067 426.15 265.643C428.534 270.219 429.727 275.423 429.727 281.256C429.727 287.088 428.534 292.26 426.15 296.771C423.765 301.283 420.108 304.827 415.178 307.405C410.247 309.951 403.947 311.224 396.278 311.224H369.21V300.397H395.892C401.176 300.397 405.43 299.623 408.652 298.077C411.907 296.53 414.259 294.339 415.709 291.503C417.192 288.635 417.933 285.219 417.933 281.256C417.933 277.292 417.192 273.828 415.709 270.863C414.227 267.899 411.858 265.611 408.604 264C405.349 262.356 401.047 261.535 395.698 261.535H374.624V349.893H362.636ZM409.232 305.424L433.593 349.893H419.673L395.698 305.424H409.232Z" fill="#47C0CC"/>
<path d="M140.983 168.943C139.92 165.688 138.518 162.772 136.778 160.194C135.07 157.584 133.024 155.361 130.64 153.524C128.287 151.687 125.613 150.285 122.616 149.319C119.619 148.352 116.332 147.869 112.755 147.869C106.891 147.869 101.557 149.383 96.7561 152.412C91.9547 155.441 88.1362 159.904 85.3005 165.801C82.4648 171.698 81.0469 178.933 81.0469 187.504C81.0469 196.076 82.4809 203.31 85.3488 209.207C88.2168 215.104 92.0997 219.567 96.9978 222.596C101.896 225.625 107.406 227.139 113.529 227.139C119.2 227.139 124.195 225.931 128.513 223.514C132.863 221.065 136.246 217.617 138.663 213.17C141.112 208.691 142.337 203.423 142.337 197.365L146.01 198.138H116.235V187.504H153.937V198.138C153.937 206.291 152.197 213.38 148.717 219.406C145.269 225.432 140.5 230.104 134.41 233.423C128.352 236.71 121.391 238.353 113.529 238.353C104.764 238.353 97.0622 236.291 90.4241 232.166C83.8182 228.042 78.6624 222.177 74.9566 214.572C71.2831 206.967 69.4463 197.945 69.4463 187.504C69.4463 179.674 70.4936 172.633 72.5882 166.381C74.7149 160.098 77.7118 154.748 81.5786 150.334C85.4455 145.919 90.0213 142.536 95.306 140.183C100.591 137.831 106.407 136.655 112.755 136.655C117.976 136.655 122.841 137.444 127.353 139.023C131.896 140.57 135.94 142.777 139.485 145.645C143.062 148.481 146.043 151.881 148.427 155.844C150.812 159.775 152.455 164.142 153.357 168.943H140.983ZM175.471 237H162.904L199.252 138.008H211.626L247.975 237H235.408L205.826 153.669H205.053L175.471 237ZM180.111 198.331H230.767V208.965H180.111V198.331ZM263.394 138.008H277.701L311.343 220.179H312.503L346.145 138.008H360.452V237H349.238V161.789H348.272L317.337 237H306.51L275.575 161.789H274.608V237H263.394V138.008ZM384.487 237V138.008H444.231V148.642H396.475V182.09H441.137V192.724H396.475V226.366H445.004V237H384.487Z" fill="#1D1A8A"/>
<path d="M166.092 300.514C166.092 310.954 164.207 319.977 160.437 327.582C156.667 335.187 151.495 341.052 144.921 345.176C138.348 349.301 130.84 351.363 122.397 351.363C113.954 351.363 106.446 349.301 99.8723 345.176C93.2987 341.052 88.1267 335.187 84.3565 327.582C80.5863 319.977 78.7012 310.954 78.7012 300.514C78.7012 290.073 80.5863 281.051 84.3565 273.446C88.1267 265.841 93.2987 259.976 99.8723 255.851C106.446 251.727 113.954 249.665 122.397 249.665C130.84 249.665 138.348 251.727 144.921 255.851C151.495 259.976 156.667 265.841 160.437 273.446C164.207 281.051 166.092 290.073 166.092 300.514ZM154.492 300.514C154.492 291.942 153.058 284.708 150.19 278.811C147.354 272.914 143.504 268.451 138.638 265.422C133.804 262.393 128.39 260.878 122.397 260.878C116.403 260.878 110.973 262.393 106.108 265.422C101.274 268.451 97.4233 272.914 94.5554 278.811C91.7197 284.708 90.3018 291.942 90.3018 300.514C90.3018 309.085 91.7197 316.32 94.5554 322.217C97.4233 328.114 101.274 332.577 106.108 335.606C110.973 338.635 116.403 340.149 122.397 340.149C128.39 340.149 133.804 338.635 138.638 335.606C143.504 332.577 147.354 328.114 150.19 322.217C153.058 316.32 154.492 309.085 154.492 300.514ZM185.656 251.018L215.045 334.349H216.205L245.593 251.018H258.16L221.812 350.01H209.438L173.089 251.018H185.656ZM273.579 350.01V251.018H333.322V261.652H285.567V295.1H330.229V305.734H285.567V339.376H334.096V350.01H273.579ZM354.929 350.01V251.018H388.377C396.111 251.018 402.459 252.339 407.421 254.981C412.384 257.592 416.057 261.185 418.442 265.76C420.827 270.336 422.019 275.54 422.019 281.373C422.019 287.205 420.827 292.377 418.442 296.889C416.057 301.4 412.4 304.945 407.47 307.523C402.539 310.068 396.24 311.341 388.57 311.341H361.502V300.514H388.184C393.468 300.514 397.722 299.74 400.944 298.194C404.199 296.647 406.551 294.456 408.001 291.62C409.484 288.752 410.225 285.336 410.225 281.373C410.225 277.409 409.484 273.945 408.001 270.981C406.519 268.016 404.151 265.728 400.896 264.117C397.641 262.474 393.34 261.652 387.99 261.652H366.916V350.01H354.929ZM401.524 305.541L425.886 350.01H411.965L387.99 305.541H401.524Z" fill="#1D1A8A"/>
<path d="M31.697 174.894C31.519 174.894 31.341 174.826 31.204 174.69C30.932 174.418 30.932 173.977 31.204 173.705L90.863 114.046C91.135 113.775 91.576 113.774 91.848 114.046C92.12 114.318 92.12 114.759 91.848 115.031L32.189 174.69C32.054 174.826 31.876 174.894 31.697 174.894Z" fill="white"/>
<path d="M35.401 178.597C35.223 178.597 35.045 178.529 34.908 178.393C34.636 178.121 34.636 177.68 34.908 177.408L94.567 117.749C94.84 117.477 95.28 117.477 95.552 117.749C95.824 118.021 95.824 118.462 95.552 118.734L35.893 178.393C35.757 178.528 35.579 178.597 35.401 178.597Z" fill="white"/>
<path d="M42.806 186.003C42.628 186.003 42.45 185.935 42.313 185.799C42.041 185.527 42.041 185.086 42.313 184.814L101.972 125.155C102.244 124.884 102.685 124.883 102.957 125.155C103.229 125.427 103.229 125.868 102.957 126.14L43.299 185.798C43.162 185.934 42.984 186.003 42.806 186.003Z" fill="white"/>
<path d="M50.212 193.408C50.034 193.408 49.856 193.34 49.719 193.204C49.447 192.932 49.447 192.491 49.719 192.219L109.378 132.56C109.65 132.289 110.091 132.289 110.363 132.56C110.635 132.832 110.635 133.273 110.363 133.545L50.704 193.204C50.568 193.34 50.39 193.408 50.212 193.408Z" fill="white"/>
<path d="M39.103 182.301C38.925 182.301 38.747 182.233 38.61 182.097C38.338 181.825 38.338 181.384 38.61 181.112L98.269 121.453C98.541 121.182 98.982 121.182 99.254 121.453C99.526 121.725 99.526 122.166 99.254 122.438L39.595 182.097C39.46 182.233 39.281 182.301 39.103 182.301Z" fill="white"/>
<path d="M46.508 189.705C46.33 189.705 46.152 189.637 46.015 189.501C45.743 189.229 45.743 188.788 46.015 188.516L105.674 128.857C105.946 128.586 106.387 128.585 106.659 128.857C106.931 129.129 106.931 129.57 106.659 129.842L47 189.501C46.865 189.637 46.687 189.705 46.508 189.705Z" fill="white"/>
<path d="M53.914 197.111C53.736 197.111 53.558 197.043 53.421 196.907C53.149 196.635 53.149 196.194 53.421 195.922L113.08 136.263C113.352 135.992 113.793 135.992 114.065 136.263C114.337 136.535 114.337 136.976 114.065 137.248L54.406 196.907C54.271 197.043 54.092 197.111 53.914 197.111Z" fill="white"/>
<path d="M57.617 200.814C57.439 200.814 57.261 200.746 57.124 200.61C56.852 200.338 56.852 199.897 57.124 199.625L116.783 139.966C117.056 139.695 117.496 139.694 117.768 139.966C118.04 140.238 118.04 140.679 117.768 140.951L58.109 200.61C57.973 200.745 57.795 200.814 57.617 200.814Z" fill="white"/>
<path d="M187.359 150.865L127.701 210.523L128.686 211.508L188.344 151.85L187.359 150.865Z" fill="#47C0CC"/>
<path d="M138.962 301.909L79.3288 361.593L80.3142 362.577L139.947 302.894L138.962 301.909Z" fill="#47C0CC"/>
<path d="M329.467 250.033L269.809 309.692L270.794 310.677L330.452 251.018L329.467 250.033Z" fill="#47C0CC"/>
<path d="M336.079 162.591L276.387 222.224L277.372 223.209L337.063 163.577L336.079 162.591Z" fill="#47C0CC"/>
<path d="M181.472 176.746C181.294 176.746 181.116 176.678 180.979 176.542C180.707 176.27 180.707 175.829 180.979 175.557L240.638 115.898C240.91 115.627 241.351 115.627 241.622 115.898C241.894 116.17 241.894 116.611 241.622 116.883L181.964 176.542C181.828 176.678 181.65 176.746 181.472 176.746Z" fill="white"/>
<path d="M185.175 180.448C184.997 180.448 184.819 180.38 184.682 180.244C184.41 179.972 184.41 179.531 184.682 179.259L244.341 119.6C244.613 119.328 245.054 119.328 245.325 119.6C245.597 119.872 245.597 120.313 245.325 120.585L185.667 180.244C185.531 180.38 185.353 180.448 185.175 180.448Z" fill="white"/>
<path d="M192.58 187.854C192.402 187.854 192.224 187.786 192.087 187.65C191.815 187.378 191.815 186.937 192.087 186.665L251.746 127.006C252.018 126.733 252.459 126.733 252.73 127.006C253.002 127.278 253.002 127.719 252.73 127.991L193.072 187.65C192.937 187.785 192.758 187.854 192.58 187.854Z" fill="white"/>
<path d="M199.986 195.259C199.808 195.259 199.63 195.191 199.493 195.055C199.221 194.783 199.221 194.342 199.493 194.07L259.153 134.411C259.424 134.14 259.866 134.139 260.137 134.411C260.41 134.683 260.41 135.124 260.137 135.396L200.478 195.055C200.342 195.191 200.164 195.259 199.986 195.259Z" fill="white"/>
<path d="M188.878 184.151C188.7 184.151 188.522 184.083 188.385 183.947C188.113 183.675 188.113 183.234 188.385 182.962L248.045 123.303C248.316 123.032 248.758 123.031 249.029 123.303C249.301 123.575 249.301 124.016 249.029 124.288L189.37 183.947C189.234 184.083 189.056 184.151 188.878 184.151Z" fill="white"/>
<path d="M196.283 191.557C196.105 191.557 195.927 191.489 195.79 191.353C195.518 191.081 195.518 190.64 195.79 190.368L255.45 130.709C255.722 130.438 256.163 130.437 256.434 130.709C256.706 130.981 256.706 131.422 256.434 131.694L196.775 191.353C196.639 191.488 196.461 191.557 196.283 191.557Z" fill="white"/>
<path d="M203.689 198.962C203.511 198.962 203.333 198.894 203.196 198.758C202.924 198.486 202.924 198.045 203.196 197.773L262.855 138.114C263.127 137.842 263.568 137.842 263.839 138.114C264.111 138.386 264.111 138.827 263.839 139.099L204.181 198.758C204.045 198.894 203.867 198.962 203.689 198.962Z" fill="white"/>
<path d="M207.391 202.665C207.212 202.665 207.035 202.597 206.899 202.461C206.627 202.189 206.627 201.748 206.899 201.476L266.558 141.817C266.83 141.546 267.271 141.545 267.542 141.817C267.815 142.089 267.815 142.53 267.542 142.802L207.883 202.461C207.748 202.596 207.57 202.665 207.391 202.665Z" fill="white"/>
<path d="M128.279 327.983C128.101 327.983 127.923 327.916 127.786 327.779C127.514 327.508 127.514 327.066 127.786 326.795L199.953 254.628C200.225 254.357 200.666 254.357 200.938 254.628C201.21 254.9 201.21 255.341 200.938 255.613L128.771 327.78C128.635 327.915 128.457 327.983 128.279 327.983Z" fill="white"/>
<path d="M131.982 331.686C131.804 331.686 131.625 331.619 131.489 331.482C131.217 331.211 131.217 330.769 131.489 330.498L203.656 258.33C203.928 258.059 204.369 258.059 204.641 258.33C204.913 258.602 204.913 259.043 204.641 259.315L132.475 331.481C132.339 331.618 132.16 331.686 131.982 331.686Z" fill="white"/>
<path d="M139.387 339.091C139.209 339.091 139.031 339.024 138.894 338.887C138.622 338.616 138.622 338.174 138.894 337.903L211.061 265.736C211.333 265.462 211.774 265.462 212.045 265.736C212.317 266.007 212.317 266.449 212.045 266.72L139.879 338.887C139.744 339.023 139.566 339.091 139.387 339.091Z" fill="white"/>
<path d="M135.685 335.388C135.507 335.388 135.329 335.321 135.192 335.184C134.92 334.912 134.92 334.471 135.192 334.2L207.359 262.033C207.63 261.762 208.072 261.762 208.343 262.033C208.616 262.305 208.616 262.746 208.343 263.018L136.177 335.184C136.041 335.32 135.863 335.388 135.685 335.388Z" fill="white"/>
<path d="M143.09 342.793C142.912 342.793 142.734 342.726 142.597 342.589C142.325 342.317 142.325 341.876 142.597 341.605L214.765 269.439C215.036 269.166 215.478 269.166 215.749 269.439C216.022 269.711 216.022 270.152 215.749 270.423L143.582 342.589C143.446 342.726 143.268 342.793 143.09 342.793Z" fill="white"/>
<path d="M200.159 300.151C199.981 300.151 199.803 300.084 199.666 299.947C199.394 299.676 199.394 299.234 199.666 298.963L252.998 245.632C253.269 245.361 253.711 245.361 253.982 245.632C254.254 245.904 254.254 246.345 253.982 246.617L200.651 299.948C200.515 300.083 200.337 300.151 200.159 300.151Z" fill="white"/>
<path d="M194.432 313.283C194.254 313.283 194.076 313.216 193.939 313.079C193.667 312.807 193.667 312.366 193.939 312.095L256.701 249.333C256.973 249.061 257.414 249.061 257.685 249.333C257.957 249.605 257.957 250.046 257.685 250.318L194.924 313.079C194.788 313.216 194.61 313.283 194.432 313.283Z" fill="white"/>
<path d="M201.837 320.689C201.659 320.689 201.481 320.622 201.344 320.485C201.072 320.213 201.072 319.772 201.344 319.501L264.106 256.74C264.378 256.468 264.819 256.468 265.09 256.74C265.362 257.012 265.362 257.453 265.09 257.725L202.329 320.485C202.194 320.621 202.015 320.689 201.837 320.689Z" fill="white"/>
<path d="M198.134 316.985C197.956 316.985 197.778 316.918 197.641 316.781C197.369 316.51 197.369 316.068 197.641 315.797L260.402 253.036C260.673 252.765 261.115 252.764 261.386 253.036C261.659 253.308 261.659 253.749 261.386 254.021L198.626 316.781C198.491 316.918 198.313 316.985 198.134 316.985Z" fill="white"/>
<path d="M212.468 317.464C212.289 317.464 212.111 317.396 211.976 317.259C211.703 316.988 211.703 316.547 211.976 316.276L267.808 260.443C268.08 260.172 268.521 260.172 268.792 260.443C269.065 260.715 269.065 261.156 268.792 261.428L212.96 317.259C212.825 317.396 212.647 317.464 212.468 317.464Z" fill="white"/>
<path d="M169.467 145.835H163.583L148.482 160.936L144.981 181.186L171.068 155.099L169.467 145.835Z" fill="#47C0CC"/>
<path d="M261.138 346.06V340.784H249.665L236.326 354.123H253.075L261.138 346.06Z" fill="#47C0CC"/>
<path d="M301.427 300.495V289.022L286.999 303.45V320.199L306.704 300.495H301.427Z" fill="#47C0CC"/>
<path d="M92.889 337.007C92.271 335.433 91.95 333.513 91.95 331.258V321.197L77.748 335.399C78.309 340.224 79.906 344.301 82.399 347.497L92.889 337.007Z" fill="#47C0CC"/>
<path d="M124.073 289.073L109.645 303.501V320.251L124.073 305.823V289.073Z" fill="#47C0CC"/>
<path d="M325.334 145.835L300.134 171.035V187.784L314.561 173.357V159.174H328.744L340.695 147.223V145.835H325.334Z" fill="#47C0CC"/>
<path d="M260.757 362.063H248.732V370.921H260.757V362.063Z" fill="#47C0CC"/>
<path d="M361.258 286.398H349.233V295.256H361.258V286.398Z" fill="#47C0CC"/>
<path d="M68.933 362.063H56.908V370.921H68.933V362.063Z" fill="#47C0CC"/>
<path d="M83.479 301.585H77.467V310.443H83.479V301.585Z" fill="white"/>
<path d="M77.467 301.585H65.442V310.443H77.467V301.585Z" fill="#DE49BF"/>
<path d="M215.701 212.41H209.688V221.268H215.701V212.41Z" fill="white"/>
<path d="M209.689 212.41H197.664V221.268H209.689V212.41Z" fill="#1D1A8A"/>
<path d="M73.551 205.444H67.539V214.302H73.551V205.444Z" fill="white"/>
<path d="M67.539 205.444H55.514V214.302H67.539V205.444Z" fill="#1D1A8A"/>
<path d="M227.029 327.805H221.017V336.663H227.029V327.805Z" fill="white"/>
<path d="M221.017 327.805H208.992V336.663H221.017V327.805Z" fill="#1D1A8A"/>
<path d="M331.845 286.398H325.833V295.256H331.845V286.398Z" fill="white"/>
<path d="M343.87 286.398H331.845V295.256H343.87V286.398Z" fill="#1D1A8A"/>
<path d="M132.642 188.481H120.617V197.339H132.642V188.481Z" fill="#47C0CC"/>
<path d="M275.228 316.767H263.203V325.625H275.228V316.767Z" fill="#47C0CC"/>
<path d="M361.258 188.481H349.233V197.339H361.258V188.481Z" fill="#DE49BF"/>
<path d="M306.561 152.899H300.548V161.757H306.561V152.899Z" fill="white"/>
<path d="M300.548 152.899H288.523V161.757H300.548V152.899Z" fill="#1D1A8A"/>
<path d="M426.007 324.355C425.828 324.355 425.651 324.288 425.515 324.151L420.253 318.889C419.981 318.618 419.981 318.176 420.253 317.905C420.524 317.632 420.966 317.632 421.237 317.905L426.499 323.167C426.772 323.438 426.772 323.88 426.499 324.151C426.364 324.288 426.186 324.355 426.007 324.355Z" fill="#47C0CC"/>
<path d="M426.007 324.355C425.828 324.355 425.651 324.288 425.515 324.151L420.253 318.889C419.981 318.618 419.981 318.176 420.253 317.905C420.524 317.632 420.966 317.632 421.237 317.905L426.499 323.167C426.772 323.438 426.772 323.88 426.499 324.151C426.364 324.288 426.186 324.355 426.007 324.355Z" fill="#47C0CC"/>
<path d="M420.746 324.355C420.567 324.355 420.39 324.288 420.254 324.151C419.982 323.88 419.982 323.438 420.254 323.167L425.516 317.905C425.788 317.632 426.229 317.632 426.5 317.905C426.773 318.176 426.773 318.618 426.5 318.889L421.238 324.151C421.102 324.288 420.924 324.355 420.746 324.355Z" fill="#47C0CC"/>
<path d="M257.239 445.878C257.06 445.878 256.882 445.811 256.747 445.674L251.485 440.412C251.212 440.14 251.212 439.699 251.485 439.428C251.756 439.155 252.198 439.155 252.469 439.428L257.731 444.69C258.003 444.962 258.003 445.403 257.731 445.674C257.595 445.811 257.417 445.878 257.239 445.878Z" fill="#DE49BF"/>
<path d="M257.239 445.878C257.06 445.878 256.882 445.811 256.747 445.674L251.485 440.412C251.212 440.14 251.212 439.699 251.485 439.428C251.756 439.155 252.198 439.155 252.469 439.428L257.731 444.69C258.003 444.962 258.003 445.403 257.731 445.674C257.595 445.811 257.417 445.878 257.239 445.878Z" fill="#DE49BF"/>
<path d="M251.977 445.878C251.798 445.878 251.62 445.811 251.485 445.674C251.212 445.403 251.212 444.961 251.485 444.69L256.747 439.428C257.019 439.155 257.46 439.155 257.731 439.428C258.003 439.699 258.003 440.141 257.731 440.412L252.469 445.674C252.334 445.811 252.156 445.878 251.977 445.878Z" fill="#DE49BF"/>
<path d="M134.427 114.94C134.249 114.94 134.07 114.872 133.934 114.736L128.672 109.474C128.4 109.202 128.4 108.761 128.672 108.489C128.944 108.218 129.385 108.218 129.657 108.489L134.919 113.751C135.191 114.023 135.191 114.464 134.919 114.736C134.784 114.871 134.605 114.94 134.427 114.94Z" fill="#DE49BF"/>
<path d="M134.427 114.94C134.249 114.94 134.07 114.872 133.934 114.736L128.672 109.474C128.4 109.202 128.4 108.761 128.672 108.489C128.944 108.218 129.385 108.218 129.657 108.489L134.919 113.751C135.191 114.023 135.191 114.464 134.919 114.736C134.784 114.871 134.605 114.94 134.427 114.94Z" fill="#DE49BF"/>
<path d="M129.165 114.94C128.987 114.94 128.809 114.872 128.672 114.736C128.4 114.464 128.4 114.023 128.672 113.751L133.934 108.489C134.206 108.218 134.647 108.218 134.919 108.489C135.191 108.761 135.191 109.202 134.919 109.474L129.657 114.736C129.521 114.871 129.343 114.94 129.165 114.94Z" fill="#DE49BF"/>
<path d="M89.284 270.034C86.067 270.034 83.449 267.417 83.449 264.2C83.449 260.983 86.067 258.365 89.284 258.365C92.501 258.365 95.118 260.983 95.118 264.2C95.118 267.417 92.501 270.034 89.284 270.034ZM89.284 259.758C86.835 259.758 84.843 261.75 84.843 264.199C84.843 266.648 86.835 268.64 89.284 268.64C91.733 268.64 93.725 266.647 93.725 264.199C93.725 261.75 91.732 259.758 89.284 259.758Z" fill="#47C0CC"/>
<path d="M379.602 111.28C376.385 111.28 373.768 108.662 373.768 105.445C373.768 102.228 376.385 99.6101 379.602 99.6101C382.819 99.6101 385.436 102.227 385.436 105.445C385.436 108.663 382.819 111.28 379.602 111.28ZM379.602 101.004C377.153 101.004 375.161 102.996 375.161 105.445C375.161 107.894 377.153 109.886 379.602 109.886C382.051 109.886 384.043 107.894 384.043 105.445C384.043 102.996 382.051 101.004 379.602 101.004Z" fill="#DE49BF"/>
<path d="M164.575 426.975H154.473C154.232 426.975 154.007 426.85 153.88 426.645C153.753 426.44 153.742 426.183 153.85 425.967L158.901 415.864C159.136 415.391 159.911 415.391 160.147 415.864L165.198 425.967C165.306 426.183 165.295 426.44 165.168 426.645C165.04 426.85 164.816 426.975 164.575 426.975ZM155.6 425.582H163.447L159.523 417.733L155.6 425.582Z" fill="#47C0CC"/>
<path d="M456.494 357.462C456.387 357.462 456.281 357.438 456.182 357.389L446.08 352.337C445.844 352.219 445.695 351.978 445.695 351.714C445.695 351.45 445.843 351.209 446.08 351.091L456.182 346.04C456.399 345.934 456.656 345.943 456.86 346.07C457.065 346.197 457.19 346.422 457.19 346.663V356.765C457.19 357.006 457.065 357.231 456.86 357.358C456.748 357.428 456.621 357.462 456.494 357.462ZM447.949 351.714L455.798 355.639V347.79L447.949 351.714Z" fill="#DE49BF"/>
<path d="M286.045 112.309H275.827C275.442 112.309 275.131 111.997 275.131 111.612C275.131 111.227 275.442 110.915 275.827 110.915H286.045C286.43 110.915 286.741 111.227 286.741 111.612C286.742 111.996 286.43 112.309 286.045 112.309Z" fill="#47C0CC"/>
<path d="M438.618 168.469H428.4C428.015 168.469 427.704 168.157 427.704 167.772C427.704 167.387 428.015 167.075 428.4 167.075H438.618C439.003 167.075 439.314 167.387 439.314 167.772C439.314 168.157 439.002 168.469 438.618 168.469Z" fill="#DE49BF"/>
<path d="M67.376 135.256H57.697C57.312 135.256 57 134.944 57 134.559V124.88C57 124.495 57.312 124.183 57.697 124.183H67.376C67.761 124.183 68.073 124.495 68.073 124.88V134.559C68.073 134.944 67.761 135.256 67.376 135.256ZM58.394 133.862H66.68V125.576H58.394V133.862Z" fill="#47C0CC"/>
<path d="M69.707 370.979H60.028C59.643 370.979 59.331 370.667 59.331 370.283V360.603C59.331 360.218 59.643 359.907 60.028 359.907H69.707C70.092 359.907 70.404 360.219 70.404 360.603V370.283C70.404 370.667 70.092 370.979 69.707 370.979ZM60.725 369.586H69.011V361.299H60.725V369.586Z" fill="#DE49BF"/>
<path d="M201.771 65.073H192.092C191.707 65.073 191.395 64.761 191.395 64.376V54.697C191.395 54.312 191.707 54 192.092 54H201.771C202.156 54 202.468 54.312 202.468 54.697V64.376C202.468 64.761 202.156 65.073 201.771 65.073ZM192.789 63.68H201.075V55.394H192.789V63.68Z" fill="#DE49BF"/>
<path d="M417.13 244.076H407.45C407.065 244.076 406.754 243.764 406.754 243.379V233.7C406.754 233.315 407.065 233.003 407.45 233.003H417.13C417.515 233.003 417.826 233.315 417.826 233.7V243.379C417.827 243.764 417.515 244.076 417.13 244.076ZM408.147 242.682H416.434V234.396H408.147V242.682Z" fill="#DE49BF"/>
</svg>
