<svg width="137" height="137" viewBox="0 0 137 137" fill="none" xmlns="http://www.w3.org/2000/svg">
<path d="M27.6269 102.207C22.727 104.696 16.5439 102.401 13.8607 97.0931C11.158 91.7849 12.9468 85.4462 17.8661 82.9574C18.1188 82.8213 18.3716 82.7241 18.6438 82.6074C17.73 79.6714 17.0494 76.6965 16.5828 73.7411C16.3106 73.7411 16.0189 73.7411 15.7273 73.7022C10.1275 73.1966 5.67483 68.0635 5.79149 62.2109C5.90815 56.3583 10.5358 52.0224 16.1356 52.5279C16.4272 52.5473 16.7189 52.6057 17.0105 52.6446C17.5939 49.7474 18.3911 46.9086 19.4021 44.1671C19.1494 44.0115 18.8966 43.856 18.6438 43.681C13.8607 40.3172 12.3246 33.7063 15.2217 28.8842C18.1189 24.0622 24.3603 22.8761 29.1435 26.2399C29.3963 26.4149 29.6296 26.5899 29.8435 26.7843C31.7295 24.6844 33.81 22.7594 36.0655 20.9901C35.9099 20.7373 35.7544 20.4651 35.6183 20.1929C32.9156 14.8847 29.3962 9.07101 34.335 6.65998C45.7874 1.07961 50.6872 5.86279 53.3899 11.1709C53.526 11.4432 53.6427 11.7348 53.7593 12.007C56.5203 11.2293 59.3008 10.7043 62.1007 10.4126C62.0813 10.121 62.0618 9.82932 62.0813 9.51822C62.1979 3.66564 60.4674 0.496297 66.0867 0.399078C78.3363 0.165753 82.4778 5.47391 82.3611 11.3265C82.3611 11.6376 82.3223 11.9292 82.3028 12.2209C85.1027 13.0181 87.8637 14.0486 90.547 15.293C90.6831 15.0403 90.7998 14.768 90.9553 14.5153C93.8524 9.69322 100.094 8.50714 104.877 11.8709C109.66 15.2347 111.196 21.8456 108.299 26.6676C108.144 26.9204 107.988 27.1537 107.813 27.3676C109.932 29.487 111.916 31.8008 113.763 34.2702C113.996 34.1146 114.249 33.9785 114.502 33.8424C119.402 31.3536 125.585 33.648 128.268 38.9561C130.971 44.2643 129.182 50.603 124.263 53.0918C124.01 53.2279 123.757 53.3251 123.485 53.4417C124.399 56.3778 125.079 59.3527 125.546 62.3081C125.818 62.3081 126.11 62.3081 126.401 62.347C132.001 62.8525 136.454 67.9857 136.337 73.8383C136.22 79.6909 131.593 84.0268 125.993 83.5213C125.701 83.5018 125.41 83.4435 125.118 83.4046C124.535 86.3018 123.738 89.1406 122.726 91.8821C122.979 92.0377 123.232 92.1932 123.485 92.3682C128.268 95.732 129.804 102.343 126.907 107.165C124.01 111.987 114.405 114.223 109.602 110.859C109.349 110.684 112.499 109.44 112.266 109.265C110.38 111.365 108.299 113.29 106.044 115.059C106.199 115.312 106.355 115.584 106.491 115.856C109.194 121.164 107.405 127.503 102.485 129.992C97.5856 132.481 91.4025 130.186 88.7193 124.878C88.5832 124.606 88.4665 124.314 88.3498 124.042C85.5888 124.82 82.8083 125.345 80.0084 125.637C80.0279 125.928 80.0473 126.22 80.0279 126.531C79.9112 132.384 75.2836 136.72 69.6838 136.214C64.084 135.708 59.6314 130.575 59.748 124.723C59.748 124.412 59.7869 124.12 59.8063 123.828C57.0064 123.031 54.2454 122.001 51.5622 120.756C51.4261 121.009 51.3094 121.281 51.1538 121.534C48.2567 126.356 42.0153 127.542 37.2321 124.178C32.4489 120.814 30.9129 114.204 33.81 109.382C33.9655 109.129 34.1211 108.895 34.2961 108.682C32.1767 106.562 30.1935 104.248 28.3463 101.779C28.113 101.915 27.8796 102.071 27.6269 102.207ZM88.8165 102.965C106.646 93.9237 113.141 70.9412 103.341 51.6335C93.5413 32.3258 71.1421 24.0233 53.3316 33.0841C35.5016 42.1255 29.0074 65.108 38.807 84.4157C48.6067 103.723 70.9865 112.026 88.8165 102.965Z" fill="url(#paint0_linear_13522_151)"/>
<path d="M15.7081 73.7023C10.1083 73.1967 5.65563 68.0636 5.77229 62.211C5.88895 56.3584 10.5166 52.0225 16.1164 52.528C16.408 52.5474 16.6997 52.6058 16.9914 52.6447C17.5747 49.7475 18.3719 46.9087 19.3829 44.1672C19.1302 44.0116 18.8774 43.8561 18.6246 43.6811C13.8415 40.3173 7.91109 32.2092 11.2943 27.7177C17.7108 19.1819 24.3411 22.8762 29.1437 26.24C29.3965 26.415 29.6298 26.59 29.8437 26.7844C31.7297 24.6845 33.8102 22.7595 36.0657 20.9902C35.9102 20.7374 35.7546 20.4652 35.6185 20.193C34.1408 17.2958 34.0241 14.1071 34.9963 11.4044C39.6239 19.5513 44.1932 27.7372 48.6653 35.9619C34.4519 46.3838 29.9215 66.9164 38.8073 84.4158C46.332 99.2514 61.3038 107.573 75.9255 106.543C76.5866 108.234 77.2088 109.926 77.9088 111.618C79.7948 116.168 81.9531 120.62 84.1113 125.053C82.7503 125.306 81.3892 125.501 80.0281 125.656C80.0476 125.948 80.067 126.239 80.0476 126.551C79.9309 132.403 76.3727 137.361 66.223 136.836C60.6038 136.545 59.651 130.595 59.7677 124.742C59.7677 124.431 59.8066 124.139 59.826 123.848C57.0261 123.051 54.2651 122.02 51.5819 120.776C51.4458 121.028 51.3291 121.301 51.1735 121.553C48.2764 126.376 38.2045 128.417 33.4214 125.053C28.6382 121.69 30.9325 114.204 33.8297 109.382C33.9852 109.129 34.1408 108.896 34.3158 108.682C32.1964 106.562 30.2131 104.248 28.366 101.779C28.1326 101.935 27.8799 102.071 27.6271 102.207C22.7273 104.696 16.5441 102.401 13.8609 97.0932C11.1582 91.785 12.947 85.4463 17.8663 82.9575C18.1191 82.8214 18.3719 82.7242 18.6441 82.6075C17.7302 79.6715 17.0497 76.6966 16.583 73.7412C16.2914 73.7412 15.9997 73.7412 15.7081 73.7023Z" fill="url(#paint1_linear_13522_151)"/>
<path d="M22.3383 102.79C17.4385 105.279 11.2553 102.985 8.57208 97.6764C5.86939 92.3682 7.65824 86.0296 12.5775 83.5408C12.8303 83.4047 13.0831 83.3074 13.3553 83.1908C12.4414 80.2548 11.7609 77.2799 11.2942 74.3244C11.022 74.3244 10.7304 74.3244 10.4387 74.2855C4.83889 73.78 0.386241 68.6468 0.502903 62.7942C0.619566 56.9417 5.2472 52.6057 10.847 53.1112C11.1387 53.1307 11.4303 53.189 11.722 53.2279C12.3053 50.3308 13.1025 47.492 14.1136 44.7504C13.8608 44.5949 13.608 44.4393 13.3553 44.2643C8.5721 40.9005 7.03602 34.2896 9.93314 29.4676C12.8303 24.6455 19.0717 23.4594 23.8549 26.8232C24.1077 26.9982 24.341 27.1732 24.5549 27.3676C26.4409 25.2677 28.5214 23.3428 30.7769 21.5734C30.6214 21.3206 30.4658 21.0484 30.3297 20.7762C27.627 15.468 29.4158 9.12938 34.3351 6.64057C39.2349 4.15176 45.4181 6.44613 48.1013 11.7543C48.2374 12.0265 48.3541 12.3182 48.4708 12.5904C51.2318 11.8126 54.0122 11.2876 56.8121 10.996C56.7927 10.7043 56.7732 10.4127 56.7927 10.1016C56.9093 4.24898 61.537 -0.0869829 67.1368 0.418556C72.7366 0.924094 77.1892 6.05725 77.0726 11.9098C77.0726 12.2209 77.0337 12.5126 77.0142 12.8042C79.8141 13.6014 82.5752 14.632 85.2584 15.8764C85.3945 15.6236 85.5112 15.3514 85.6667 15.0986C88.5639 10.2766 94.8053 9.09048 99.5885 12.4543C104.372 15.818 105.908 22.4289 103.011 27.251C102.855 27.5038 102.699 27.7371 102.525 27.951C104.644 30.0703 106.627 32.3841 108.474 34.8535C108.708 34.698 108.96 34.5619 109.213 34.4257C114.113 31.9369 120.296 34.2313 122.979 39.5395C125.682 44.8476 123.893 51.1863 118.974 53.6751C118.721 53.8112 118.468 53.9084 118.196 54.0251C119.11 56.9611 119.791 59.936 120.257 62.8915C120.529 62.8915 120.821 62.8915 121.113 62.9304C126.713 63.4359 131.165 68.569 131.049 74.4216C130.932 80.2742 126.304 84.6102 120.704 84.1046C120.413 84.0852 120.121 84.0269 119.829 83.988C119.246 86.8851 118.449 89.7239 117.438 92.4655C117.691 92.621 117.943 92.7766 118.196 92.9516C122.979 96.3154 124.515 102.926 121.618 107.748C118.721 112.57 112.48 113.756 107.697 110.393C107.444 110.218 107.21 110.043 106.997 109.848C105.111 111.948 103.03 113.873 100.775 115.642C100.93 115.895 101.086 116.167 101.222 116.44C103.924 121.748 102.136 128.087 97.2163 130.575C92.3165 133.064 86.1334 130.77 83.4501 125.462C83.314 125.189 83.1974 124.898 83.0807 124.625C80.3197 125.403 77.5392 125.928 74.7393 126.22C74.7588 126.512 74.7782 126.803 74.7588 127.114C74.6421 132.967 70.0145 137.303 64.4147 136.797C58.8149 136.292 54.3622 131.159 54.4789 125.306C54.4789 124.995 54.5178 124.703 54.5372 124.412C51.7373 123.614 48.9763 122.584 46.293 121.34C46.1569 121.592 46.0403 121.864 45.8847 122.117C42.9876 126.939 36.7461 128.125 31.963 124.762C27.1798 121.398 25.6437 114.787 28.5409 109.965C28.6964 109.712 28.852 109.479 29.027 109.265C26.9076 107.146 24.9243 104.832 23.0772 102.362C22.8438 102.518 22.5911 102.673 22.3383 102.79ZM83.5279 103.568C101.358 94.5265 107.852 71.544 98.0524 52.2363C88.2528 32.9286 65.8535 24.6261 48.043 33.6869C30.213 42.7282 23.7188 65.7108 33.5185 85.0185C43.3181 104.307 65.7174 112.629 83.5279 103.568Z" fill="url(#paint2_linear_13522_151)"/>
<defs>
<linearGradient id="paint0_linear_13522_151" x1="55.4169" y1="-35.996" x2="99.1774" y2="254.736" gradientUnits="userSpaceOnUse">
<stop stop-color="#444B8C"/>
<stop offset="0.9964" stop-color="#26264F"/>
</linearGradient>
<linearGradient id="paint1_linear_13522_151" x1="26.0251" y1="-31.5718" x2="69.7855" y2="259.16" gradientUnits="userSpaceOnUse">
<stop stop-color="#444B8C"/>
<stop offset="0.9964" stop-color="#26264F"/>
</linearGradient>
<linearGradient id="paint2_linear_13522_151" x1="14.3764" y1="133.763" x2="202.112" y2="-104.036" gradientUnits="userSpaceOnUse">
<stop stop-color="#826F8C"/>
<stop offset="0.9964" stop-color="#446381"/>
</linearGradient>
</defs>
</svg>
