<svg width="557" height="567" viewBox="0 0 557 567" fill="none" xmlns="http://www.w3.org/2000/svg">
<path d="M320.61 566.81C396.11 565.468 512.909 536.769 546.528 463C558.272 437.237 557.474 399.36 555.88 323.607C555.413 301.344 554.636 268.892 549.191 228.624C537.894 144.977 530.195 88.0455 501.068 54.8744C428.095 -28.2089 164.476 -25.7979 51.8969 123.764C-9.50664 205.35 -18.9563 321.429 37.1973 417.346C99.0286 522.984 219.541 568.599 320.61 566.81Z" fill="url(#paint0_linear_13522_2)" fill-opacity="0.17"/>
<path d="M217.566 310.335C220.386 310.821 226.938 309.362 228.494 308.293C238.818 301.099 259.04 288.888 262.17 275.958C262.695 273.741 253.615 268.783 252.876 266.372C247.86 261.803 245.838 260.52 243.193 253.831C235.416 234.057 273.351 212.98 243.018 192.252C220.794 177.067 197.481 179.186 211.753 141.874C226.044 104.542 217.003 25.833 168.626 40.1437C140.861 48.349 154.413 87.9365 135.222 108.236C116.984 127.524 120.911 149.165 140.9 170.184C160.888 191.202 144.788 197.736 131.178 217.199C114.825 240.57 153.344 257.35 171.776 263.572C186.592 268.55 221.027 291.338 217.566 310.335Z" fill="url(#paint1_linear_13522_2)"/>
<path d="M244.651 293.107L245.06 292.66C176.559 228.885 153.304 131.355 182.898 31.8023L182.314 31.6273C168.295 78.8174 166.118 127.388 175.995 172.109C186.398 219.124 210.119 260.967 244.651 293.107Z" fill="#FCFDFE"/>
<path d="M123.244 226.085C148.832 225.56 187.817 237.226 210.139 252.1L210.469 251.595C188.07 236.662 148.93 224.937 123.225 225.482L123.244 226.085Z" fill="#FCFDFE"/>
<path d="M231.332 280.43L231.857 280.119C224.683 268.161 223.827 253.034 229.33 235.184C233.355 222.079 240.646 207.846 250.971 192.836L250.465 192.486C240.102 207.535 232.791 221.826 228.746 234.99C223.205 253.034 224.08 268.317 231.332 280.43Z" fill="#FCFDFE"/>
<path d="M174.829 165.712L175.373 165.42C163.007 142.185 138.43 129.488 119.997 122.916L119.803 123.48C138.138 130.032 162.56 142.651 174.829 165.712Z" fill="#FCFDFE"/>
<path d="M169.968 105.669L170.551 105.805C177.123 76.9119 201 56.9431 214.65 47.6295L214.3 47.124C200.592 56.4959 176.598 76.5619 169.968 105.669Z" fill="#FCFDFE"/>
<path d="M231.721 296.121C234.424 295.227 239.538 290.871 240.393 289.18C246.129 277.98 258.243 257.7 254.918 244.809C254.354 242.612 243.99 242.476 242.202 240.706C235.61 239.034 233.238 238.859 227.755 234.173C211.597 220.388 235.182 183.95 198.667 179.886C171.912 176.911 152.332 189.764 147.394 150.098C142.455 110.433 97.5009 45.1991 61.5104 80.5674C40.8611 100.867 71.4268 129.43 64.0187 156.359C56.9801 181.947 70.6101 199.213 98.1231 208.371C125.636 217.529 114.495 230.868 111.637 254.453C108.195 282.763 150.058 279.477 169.268 276.327C184.745 273.78 225.849 277.727 231.721 296.121Z" fill="url(#paint2_linear_13522_2)"/>
<path d="M247.529 268.181L247.685 267.597C157.232 243.487 90.8898 168.317 70.2211 66.5484L69.6183 66.6651C79.418 114.905 100.32 158.809 130.069 193.652C161.354 230.246 201.953 256.028 247.529 268.181Z" fill="#FCFDFE"/>
<path d="M108.875 266.061C131.216 253.559 171.115 245.548 197.811 248.192L197.87 247.59C171.076 244.926 131.022 252.976 108.584 265.536L108.875 266.061Z" fill="#FCFDFE"/>
<path d="M229.816 263.242L230.127 262.717C218.188 255.542 210.314 242.593 206.775 224.238C204.169 210.783 203.897 194.78 205.978 176.698L205.375 176.62C203.295 194.78 203.567 210.821 206.172 224.354C209.769 242.884 217.722 255.97 229.816 263.242Z" fill="#FCFDFE"/>
<path d="M126.044 188.519L126.375 188.014C104.559 173.314 76.8905 173.645 57.5245 176.522L57.6217 177.125C76.8711 174.267 104.384 173.936 126.044 188.519Z" fill="#FCFDFE"/>
<path d="M93.5343 137.81L94.1176 137.654C86.3401 109.053 98.0452 80.2174 105.706 65.5762L105.162 65.2845C97.4619 80.0229 85.6984 109.014 93.5343 137.81Z" fill="#FCFDFE"/>
<path d="M377.434 380.955C374.614 381.441 368.062 379.982 366.506 378.913C356.182 371.719 335.96 359.508 332.83 346.578C332.305 344.361 341.385 339.403 342.124 336.992C347.14 332.423 349.162 331.14 351.807 324.451C359.584 304.677 321.649 283.599 351.982 262.872C374.206 247.687 397.519 249.806 383.247 212.494C368.956 175.161 377.998 96.453 426.374 110.764C454.139 118.969 440.587 158.556 459.778 178.856C478.016 198.144 474.089 219.785 454.101 240.804C434.112 261.822 450.212 268.356 463.822 287.819C480.175 311.19 441.656 327.97 423.224 334.192C408.408 339.17 373.973 361.958 377.434 380.955Z" fill="url(#paint3_linear_13522_2)"/>
<path d="M350.348 363.708L349.94 363.261C418.44 299.485 441.695 201.955 412.102 102.403L412.685 102.228C426.704 149.418 428.882 197.988 419.004 242.709C408.602 289.744 384.861 331.587 350.348 363.708Z" fill="#FCFDFE"/>
<path d="M471.755 296.705C446.167 296.18 407.183 307.846 384.861 322.72L384.531 322.215C406.93 307.282 446.07 295.557 471.775 296.102L471.755 296.705Z" fill="#FCFDFE"/>
<path d="M363.667 351.05L363.142 350.739C370.317 338.781 371.172 323.654 365.67 305.804C361.645 292.699 354.354 278.466 344.029 263.456L344.534 263.106C354.898 278.155 362.209 292.446 366.253 305.61C371.795 323.654 370.92 338.936 363.667 351.05Z" fill="#FCFDFE"/>
<path d="M420.171 236.312L419.626 236.021C431.993 212.785 456.57 200.088 475.002 193.516L475.197 194.08C456.861 200.633 432.42 213.271 420.171 236.312Z" fill="#FCFDFE"/>
<path d="M425.032 176.289L424.448 176.425C417.876 147.532 393.999 127.563 380.35 118.25L380.7 117.744C394.408 127.116 418.401 147.182 425.032 176.289Z" fill="#FCFDFE"/>
<path d="M363.278 366.722C360.575 365.827 355.462 361.472 354.606 359.78C348.87 348.581 336.757 328.301 340.082 315.41C340.646 313.212 351.009 313.076 352.798 311.307C359.389 309.635 361.762 309.46 367.245 304.774C383.403 290.988 359.817 254.55 396.333 250.487C423.087 247.512 442.667 260.364 447.606 220.699C452.545 181.034 497.499 115.8 533.489 151.168C554.138 171.467 523.573 200.03 530.981 226.96C538.02 252.548 524.389 269.814 496.876 278.972C469.364 288.13 480.505 301.468 483.363 325.054C486.805 353.364 444.942 350.078 425.732 346.928C410.254 344.381 369.15 348.328 363.278 366.722Z" fill="url(#paint4_linear_13522_2)"/>
<path d="M347.47 338.781L347.315 338.198C437.767 314.087 504.109 238.918 524.778 137.149L525.381 137.265C515.581 185.506 494.679 229.41 464.93 264.253C433.645 300.866 393.046 326.648 347.47 338.781Z" fill="#FCFDFE"/>
<path d="M486.124 336.681C463.783 324.179 423.885 316.168 397.188 318.812L397.13 318.21C423.924 315.546 463.978 323.595 486.416 336.156L486.124 336.681Z" fill="#FCFDFE"/>
<path d="M365.164 333.862L364.853 333.337C376.792 326.162 384.667 313.212 388.205 294.858C390.811 281.402 391.083 265.4 389.003 247.317L389.605 247.24C391.686 265.4 391.414 281.441 388.808 294.974C385.23 313.485 377.278 326.57 365.164 333.862Z" fill="#FCFDFE"/>
<path d="M468.955 259.139L468.625 258.634C490.441 243.934 518.109 244.265 537.475 247.142L537.378 247.745C518.129 244.887 490.616 244.537 468.955 259.139Z" fill="#FCFDFE"/>
<path d="M501.465 208.43L500.882 208.274C508.66 179.672 496.955 150.837 489.294 136.196L489.838 135.904C497.538 150.623 509.282 179.614 501.465 208.43Z" fill="#FCFDFE"/>
<path opacity="0.2" d="M101.098 167.617C128.164 157.37 157.699 162.698 181.44 179.303C190.306 135.846 218.091 99.1555 259.331 83.5227C326.879 57.9347 404.907 98.6111 433.626 174.384C441.034 193.905 444.417 213.854 444.242 233.162C447.722 231.004 451.456 229.137 455.403 227.64C492.307 213.66 534.947 235.884 550.638 277.28C566.33 318.676 549.666 365.088 512.217 377.571C492.21 384.24 460.614 384.24 460.614 384.24C460.614 384.24 153.343 360.13 143.855 360.169C105.998 360.325 68.7823 334.289 53.0912 292.913C33.4918 241.192 54.9772 185.097 101.098 167.617Z" fill="#EB8382"/>
<path d="M91.9589 167.617C119.025 157.37 148.56 162.698 172.301 179.303C181.167 135.846 208.952 99.1555 250.193 83.5227C317.74 57.9346 395.768 98.611 424.487 174.384C431.895 193.905 435.278 213.854 435.103 233.162C438.583 231.004 442.317 229.137 446.264 227.64C483.168 213.66 525.808 235.884 541.499 277.28C557.191 318.676 539.983 363.591 503.079 377.571C495.262 380.527 451.475 384.24 451.475 384.24C451.475 384.24 144.204 360.13 134.716 360.169C96.8588 360.325 59.6434 334.289 43.9522 292.913C24.3529 241.192 45.8383 185.097 91.9589 167.617Z" fill="#C9CAD6"/>
<path d="M4.38474 441.6L38.9558 273.294C45.8194 239.89 77.7656 219.338 109.42 228.515L123.731 232.657C128.864 234.154 134.191 234.912 139.539 234.912L171.485 234.99L302.905 235.282L337.515 235.359C343.426 235.379 349.337 234.601 355.054 233.045L371.172 228.671C407.727 218.774 445.895 241.29 454.275 278.311L497.382 469.035C504.596 500.923 486.455 531.41 455.325 540.16C420.696 549.902 383.286 528.241 373.758 493.515L358.962 439.577C355.89 428.397 345.798 420.289 334.346 419.745L142.416 410.917C132.033 410.431 122.992 417.237 120.25 427.542L107.165 476.735C98.8232 508.059 66.7993 523.205 38.1003 509.886C13.0178 498.22 -1.25396 469.151 4.38474 441.6Z" fill="url(#paint5_linear_13522_2)"/>
<path opacity="0.3" d="M172.593 323.712L279.495 326.687C289.003 326.959 296.761 318.17 296.761 307.049V235.301L156.474 234.951V303.899C156.474 314.593 163.668 323.459 172.593 323.712Z" fill="url(#paint6_linear_13522_2)"/>
<path opacity="0.3" d="M84.9403 467.402C85.2709 454.841 79.3016 448.386 80.5655 429.195C81.1682 420.231 82.8599 394.721 99.6787 381.693C115.778 369.21 138.041 374.188 166.838 380.604C203.936 388.868 202.498 397.754 228.533 401.351C266.487 406.581 280.02 389.14 307.688 398.084C321.474 402.537 332.013 411.365 339.926 420.639C338.118 420.153 336.251 419.842 334.346 419.745L142.416 410.917C132.033 410.431 122.992 417.237 120.25 427.542L107.165 476.735C100.398 502.148 78.0378 516.925 54.5108 514.475C78.5822 495.401 84.6098 479.359 84.9403 467.402Z" fill="url(#paint7_linear_13522_2)"/>
<path d="M315.816 306.601C315.816 337.789 341.326 363.883 373.233 364.933C405.627 365.983 432.245 340.881 432.245 308.837C432.245 276.794 405.627 250.662 373.233 250.487C341.326 250.292 315.816 275.433 315.816 306.601Z" fill="url(#paint8_linear_13522_2)"/>
<path d="M250.699 380.818C250.699 406.018 270.978 427.425 296.255 428.65C321.843 429.895 342.823 410.023 342.823 384.26C342.823 358.497 321.843 337.05 296.255 336.389C270.959 335.709 250.699 355.6 250.699 380.818Z" fill="url(#paint9_linear_13522_2)"/>
<path d="M259.468 381.149C259.468 401.487 275.859 418.753 296.255 419.686C316.846 420.639 333.685 404.637 333.685 383.91C333.685 363.202 316.846 345.936 296.255 345.353C275.859 344.77 259.468 360.791 259.468 381.149Z" fill="url(#paint10_linear_13522_2)"/>
<path d="M266.759 381.557C266.759 395.732 278.153 407.767 292.386 408.448C306.774 409.148 318.577 397.968 318.577 383.482C318.577 368.996 306.774 356.941 292.386 356.552C278.153 356.183 266.759 367.383 266.759 381.557Z" fill="url(#paint11_linear_13522_2)"/>
<path d="M271.698 381.732C271.698 393.165 280.914 402.868 292.386 403.412C303.974 403.956 313.443 394.954 313.443 383.307C313.443 371.66 303.974 361.958 292.386 361.627C280.914 361.277 271.698 370.299 271.698 381.732Z" fill="url(#paint12_linear_13522_2)"/>
<path d="M115 375.18C115 399.465 133.822 420.056 157.29 421.203C181.031 422.35 200.475 403.179 200.475 378.388C200.475 353.578 181.031 332.967 157.29 332.345C133.822 331.703 115 350.894 115 375.18Z" fill="url(#paint13_linear_13522_2)"/>
<path d="M123.147 375.491C123.147 395.09 138.352 411.695 157.271 412.57C176.365 413.445 191.998 398.007 191.998 378.077C191.998 358.147 176.384 341.522 157.271 340.978C138.352 340.434 123.147 355.891 123.147 375.491Z" fill="url(#paint14_linear_13522_2)"/>
<path d="M126.103 375.802C126.103 389.976 137.497 402.012 151.73 402.693C166.118 403.393 177.92 392.212 177.92 377.727C177.92 363.241 166.118 351.186 151.73 350.797C137.497 350.447 126.103 361.647 126.103 375.802Z" fill="url(#paint15_linear_13522_2)"/>
<path d="M131.041 375.996C131.041 387.429 140.258 397.132 151.729 397.676C163.318 398.221 172.787 389.218 172.787 377.571C172.787 365.924 163.318 356.222 151.729 355.891C140.258 355.541 131.041 364.563 131.041 375.996Z" fill="url(#paint16_linear_13522_2)"/>
<path d="M315.797 272.497C319.724 272.536 322.913 269.405 322.913 265.478V253.014C322.913 249.106 319.724 245.898 315.797 245.898C311.888 245.878 308.7 249.028 308.7 252.937V265.361C308.719 269.269 311.888 272.458 315.797 272.497Z" fill="url(#paint17_linear_13522_2)"/>
<path d="M143.291 270.417C146.869 270.455 149.766 267.461 149.766 263.708V251.809C149.766 248.076 146.869 245.023 143.291 245.004C139.714 244.984 136.836 247.998 136.836 251.731V263.592C136.836 267.325 139.733 270.378 143.291 270.417Z" fill="url(#paint18_linear_13522_2)"/>
<path d="M367.128 266.236L379.358 266.353C382.955 266.392 385.891 269.289 385.891 272.828V286.749C385.891 288.013 385.502 289.238 384.802 290.288L379.28 298.377C378.075 300.146 376.033 301.177 373.855 301.138L372.65 301.118C370.472 301.079 368.45 299.971 367.245 298.163L361.761 289.938C361.061 288.888 360.692 287.644 360.692 286.399V272.575C360.653 269.036 363.55 266.217 367.128 266.236Z" fill="url(#paint19_linear_13522_2)"/>
<path d="M367.128 348.931L379.358 349.281C382.955 349.378 385.891 346.597 385.891 343.059V329.137C385.891 327.873 385.502 326.629 384.802 325.559L379.28 317.257C378.075 315.448 376.033 314.321 373.855 314.282L372.65 314.262C370.472 314.223 368.45 315.254 367.245 317.004L361.761 325.015C361.061 326.045 360.692 327.251 360.692 328.515V342.339C360.653 345.878 363.55 348.833 367.128 348.931Z" fill="url(#paint20_linear_13522_2)"/>
<path d="M415.776 302.44V314.573C415.776 318.132 412.801 320.97 409.146 320.893L394.835 320.582C393.552 320.562 392.288 320.154 391.199 319.434L382.858 313.835C381.03 312.61 379.941 310.587 379.941 308.449V307.263C379.941 305.124 381.03 303.14 382.858 301.974L391.199 296.685C392.269 296.005 393.533 295.655 394.835 295.674L409.146 295.907C412.801 295.946 415.776 298.882 415.776 302.44Z" fill="url(#paint21_linear_13522_2)"/>
<path d="M331.546 300.943V312.843C331.546 316.343 334.404 319.24 337.923 319.318L351.845 319.629C353.109 319.648 354.353 319.318 355.403 318.637L363.647 313.407C365.456 312.26 366.544 310.296 366.544 308.157V306.971C366.544 304.832 365.456 302.81 363.647 301.604L355.403 296.063C354.353 295.343 353.109 294.955 351.845 294.935L337.923 294.702C334.404 294.663 331.546 297.463 331.546 300.943Z" fill="url(#paint22_linear_13522_2)"/>
<path d="M364.406 266.839L376.636 266.956C380.233 266.994 383.169 269.892 383.169 273.43V287.352C383.169 288.616 382.781 289.841 382.081 290.891L376.559 298.98C375.353 300.749 373.311 301.779 371.134 301.741L369.928 301.721C367.751 301.682 365.728 300.574 364.523 298.766L359.04 290.541C358.34 289.491 357.97 288.247 357.97 287.002V273.178C357.931 269.639 360.829 266.819 364.406 266.839Z" fill="url(#paint23_linear_13522_2)"/>
<path d="M364.406 349.533L376.636 349.883C380.233 349.98 383.169 347.2 383.169 343.661V329.739C383.169 328.476 382.781 327.231 382.081 326.162L376.559 317.859C375.353 316.051 373.311 314.923 371.134 314.884L369.928 314.865C367.751 314.826 365.728 315.857 364.523 317.607L359.04 325.617C358.34 326.648 357.97 327.853 357.97 329.117V342.942C357.931 346.5 360.829 349.436 364.406 349.533Z" fill="url(#paint24_linear_13522_2)"/>
<path d="M413.035 303.043V315.176C413.035 318.734 410.06 321.573 406.405 321.495L392.094 321.184C390.811 321.165 389.547 320.756 388.458 320.037L380.117 314.437C378.289 313.212 377.2 311.19 377.2 309.051V307.865C377.2 305.726 378.289 303.743 380.117 302.577L388.458 297.288C389.528 296.607 390.791 296.257 392.094 296.277L406.405 296.51C410.08 296.549 413.035 299.485 413.035 303.043Z" fill="url(#paint25_linear_13522_2)"/>
<path d="M328.804 301.565V313.465C328.804 316.965 331.663 319.862 335.182 319.94L349.104 320.251C350.368 320.27 351.612 319.94 352.662 319.259L360.906 314.029C362.714 312.882 363.803 310.918 363.803 308.779V307.593C363.803 305.454 362.714 303.432 360.906 302.227L352.662 296.685C351.612 295.966 350.368 295.577 349.104 295.557L335.182 295.324C331.663 295.266 328.804 298.066 328.804 301.565Z" fill="url(#paint26_linear_13522_2)"/>
<path d="M138.022 302.888C138.022 332.617 115.078 355.989 87.1376 355.075C59.5857 354.18 37.5365 329.953 37.5365 300.963C37.5365 271.972 59.5857 248.581 87.1376 248.737C115.078 248.912 138.022 273.158 138.022 302.888Z" fill="url(#paint27_linear_13522_2)"/>
<path d="M74.3827 268.394C74.3827 275.841 80.0797 281.966 87.1378 282.083C94.2153 282.18 99.9707 276.172 99.9707 268.666C99.9707 261.161 94.2153 255.036 87.1378 254.978C80.0991 254.939 74.3827 260.928 74.3827 268.394Z" fill="url(#paint28_linear_13522_2)"/>
<path d="M74.3827 334.97C74.3827 342.417 80.0797 348.639 87.1378 348.872C94.2153 349.086 99.9707 343.194 99.9707 335.689C99.9707 328.184 94.2153 321.962 87.1378 321.787C80.0991 321.612 74.3827 327.503 74.3827 334.97Z" fill="url(#paint29_linear_13522_2)"/>
<path d="M118.948 288.869C111.773 288.752 105.979 294.76 105.979 302.265C105.979 309.79 111.773 316.012 118.948 316.168C126.142 316.323 131.995 310.335 131.995 302.771C131.995 295.207 126.142 288.985 118.948 288.869Z" fill="url(#paint30_linear_13522_2)"/>
<path d="M55.8332 287.896C48.8918 287.78 43.2725 293.691 43.2725 301.099C43.2725 308.507 48.8918 314.612 55.8332 314.768C62.7941 314.923 68.4717 309.012 68.4717 301.565C68.4717 294.118 62.8135 287.994 55.8332 287.896Z" fill="url(#paint31_linear_13522_2)"/>
<path d="M71.6605 268.997C71.6605 276.444 77.3575 282.569 84.4156 282.685C91.4932 282.783 97.2485 276.775 97.2485 269.269C97.2485 261.764 91.4932 255.639 84.4156 255.581C77.3575 255.542 71.6605 261.55 71.6605 268.997Z" fill="url(#paint32_linear_13522_2)"/>
<path d="M71.6605 335.573C71.6605 343.02 77.3575 349.242 84.4156 349.475C91.4932 349.689 97.2485 343.797 97.2485 336.292C97.2485 328.787 91.4932 322.565 84.4156 322.39C77.3575 322.215 71.6605 328.106 71.6605 335.573Z" fill="url(#paint33_linear_13522_2)"/>
<path d="M116.226 289.491C109.051 289.374 103.257 295.382 103.257 302.888C103.257 310.412 109.051 316.634 116.226 316.79C123.42 316.945 129.272 310.957 129.272 303.393C129.272 295.83 123.42 289.588 116.226 289.491Z" fill="url(#paint34_linear_13522_2)"/>
<path d="M53.111 288.499C46.1696 288.382 40.5504 294.293 40.5504 301.701C40.5504 309.09 46.1696 315.215 53.111 315.37C60.0719 315.526 65.7495 309.615 65.7495 302.168C65.7495 294.721 60.0719 288.596 53.111 288.499Z" fill="url(#paint35_linear_13522_2)"/>
<path opacity="0.3" d="M438.701 518.733C437.612 504.909 419.004 502.867 415.232 485.426C410.06 461.53 441.54 449.416 438.701 423.731C435.92 398.609 403.371 388.226 408.135 372.963C410.488 365.38 418.965 366.527 430.515 356.047C446.75 341.309 450.445 320.504 451.261 314.554C456.297 277.494 426.607 249.709 421.24 244.673C412.141 236.157 402.399 230.401 393.338 226.512C421.979 228.496 447.606 248.776 454.275 278.291L497.382 469.015C504.596 500.903 486.455 531.391 455.325 540.141C445.448 542.921 435.356 543.135 425.732 541.23C436.64 531.819 439.148 524.372 438.701 518.733Z" fill="url(#paint36_linear_13522_2)"/>
<path opacity="0.3" d="M195.226 299.252C210.722 290.696 219.9 300.885 231.138 293.146C244.244 284.105 236.097 267.247 249.279 257.214C260.362 248.776 270.979 257.059 287 250.759C290.111 249.534 293.417 247.764 296.761 245.178V307.049C296.761 318.151 289.003 326.959 279.495 326.687L172.593 323.712C170.338 323.654 168.199 323.031 166.274 321.981C168.782 321.087 171.329 319.92 173.857 318.423C185.154 311.735 184.784 305.007 195.226 299.252Z" fill="#5488D0"/>
<path d="M470.141 409.498C480.174 404.598 499.735 422.331 509.243 439.325C513.034 446.091 517.487 454.044 516.398 463.493C514.454 480.254 495.885 494.934 470.297 499.853C469.577 497.287 468.858 494.701 468.139 492.134C470.938 489.218 475.119 485.018 480.466 480.196C488.671 472.787 490.363 472.301 490.752 469.968C492.035 462.307 472.358 455.91 465.358 442.455C459.331 430.867 462.442 413.251 470.141 409.498Z" fill="url(#paint37_linear_13522_2)"/>
<path d="M483.304 544.146C483.304 544.146 481.652 548.21 482.468 549.804C483.285 551.399 487.232 550.388 492.812 551.243C498.373 552.099 502.223 553.401 502.534 552.235C502.845 551.088 491.296 544.982 490.382 544.146C489.468 543.31 483.304 544.146 483.304 544.146Z" fill="url(#paint38_linear_13522_2)"/>
<path d="M484.782 538.08L488.671 544.146C488.671 544.146 486.882 545.916 483.829 545.255L479.552 539.499L484.782 538.08Z" fill="url(#paint39_linear_13522_2)"/>
<path opacity="0.3" d="M465.358 442.436C459.33 430.867 462.441 413.251 470.141 409.479C472.163 408.487 474.574 408.429 477.199 409.09C475.819 413.095 476.091 415.992 476.772 418.034C479.824 427.172 493.027 426.142 497.149 436.544C499.754 443.116 495.613 446.383 499.307 451.672C503.137 457.135 509.398 456.221 511.343 461.549C512.781 465.516 509.943 467.771 511.032 471.115C511.343 472.049 511.945 472.982 512.937 473.876C506.151 486.068 490.382 495.965 470.277 499.834C469.558 497.267 468.838 494.681 468.119 492.115C470.919 489.198 475.099 484.998 480.446 480.176C488.652 472.768 490.343 472.282 490.732 469.949C492.035 462.307 472.358 455.91 465.358 442.436Z" fill="url(#paint40_linear_13522_2)"/>
<path d="M476.985 413.114C476.558 430.653 476.791 449.61 478.074 469.793C479.688 495.576 482.741 519.239 486.455 540.51C484.802 541.035 483.149 541.56 481.496 542.085C464.522 525.558 459.447 511.014 458.067 500.553C457.075 493.165 458.572 492.523 457.25 483.268C454.722 465.652 448.131 459.605 443.503 443.116C441.773 436.933 439.828 427.561 439.964 415.37C452.292 414.631 464.639 413.873 476.985 413.114Z" fill="url(#paint41_linear_13522_2)"/>
<path d="M489.138 381.713C488.826 381.791 487.485 382.238 486.96 387.818C485.677 401.293 492.696 406.737 490.965 414.048C489.313 421.067 480.855 424.47 472.144 427.97C466.33 430.303 448.345 437.555 437.884 429.408C433.489 425.986 433.003 421.845 429.853 406.64C421.882 368.005 418.79 364.699 422.134 356.339C427.89 341.97 443.328 336.039 445.895 335.048C473.271 324.49 505.606 343.895 518.381 366.158C520.073 369.094 530.106 386.613 523.048 394.915C518.77 399.951 508.97 400.748 502.495 397.326C493.862 392.737 492.015 381.052 489.138 381.713Z" fill="url(#paint42_linear_13522_2)"/>
<path d="M519.062 391.921C519.139 391.921 519.237 391.901 519.314 391.862C519.626 391.726 519.762 391.357 519.626 391.046C519.392 390.54 513.734 378.407 500.687 373.624C500.376 373.508 500.007 373.663 499.89 373.994C499.773 374.305 499.929 374.674 500.26 374.791C512.82 379.399 518.459 391.454 518.498 391.571C518.595 391.804 518.828 391.921 519.062 391.921Z" fill="url(#paint43_linear_13522_2)"/>
<path opacity="0.3" d="M440.042 351.4C441.772 356.105 436.581 360.188 438.817 365.283C442.006 372.594 454.664 368.841 459.194 376.093C464.561 384.668 452.272 398.745 457.347 403.568C459.661 405.765 462.325 402.945 469.072 404.501C478.677 406.698 481.574 414.301 486.046 413.134C487.446 412.764 489.157 411.501 490.596 407.573C491.218 409.751 491.51 411.831 490.985 414.067C489.332 421.086 480.874 424.489 472.163 427.989C466.349 430.322 448.364 437.575 437.903 429.428C433.509 426.006 433.023 421.864 429.873 406.659C421.901 368.024 418.809 364.719 422.154 356.358C423.981 351.808 426.781 348.094 429.853 345.119C436.425 346.558 439.148 348.93 440.042 351.4Z" fill="url(#paint44_linear_13522_2)"/>
<path d="M456.589 380.916C455.85 381.596 448.364 388.187 439.342 385.932C431.487 383.968 426.684 376.346 425.829 369.93C423.826 354.666 443.717 341.853 441.267 338.761C439.809 336.914 431.973 340.492 426.762 343.7C421.357 347.044 406.716 356.047 403.605 373.741C403.332 375.238 399.891 396.334 411.946 405.045C423.087 413.095 444.884 408.72 459.661 389.665C458.65 386.749 457.62 383.832 456.589 380.916Z" fill="url(#paint45_linear_13522_2)"/>
<path d="M504.887 366.955L495.962 395.44C495.671 396.373 494.815 397.015 493.843 397.054L445.856 398.746C444.359 398.804 443.192 397.423 443.522 395.946L449.725 367.363C449.958 366.333 450.853 365.574 451.903 365.555L502.612 363.98C504.207 363.922 505.373 365.458 504.887 366.955Z" fill="#D8DEE8"/>
<path d="M504.459 367.908L495.807 395.557C495.515 396.471 494.699 397.093 493.746 397.132L447.159 398.784C445.7 398.843 444.573 397.501 444.884 396.062L450.911 368.296C451.125 367.285 452 366.566 453.031 366.527L502.243 364.991C503.798 364.952 504.926 366.43 504.459 367.908Z" fill="url(#paint46_linear_13522_2)"/>
<path d="M444.903 396.043L450.659 369.541C451.631 371.855 452.895 373.021 454.1 373.605C457.561 375.316 460.264 372.224 467.827 372.516C470.725 372.633 476.635 372.866 480.33 376.677C483.791 380.274 482.313 383.968 484.491 389.024C485.58 391.571 487.621 394.468 491.549 397.171L447.178 398.746C445.72 398.823 444.592 397.482 444.903 396.043Z" fill="url(#paint47_linear_13522_2)"/>
<path d="M474.127 332.287C473.622 334.075 474.691 335.942 476.499 336.37C478.696 336.895 481.36 337.634 482.507 338.295C484.627 339.5 476.052 338.1 468.177 337.925C463.258 337.809 459.583 337.264 457.522 336.856C456.958 336.739 456.919 335.981 457.464 335.806C459.428 335.164 462.636 334.231 465.339 333.881C468.683 333.453 472.28 326.065 472.28 326.065L475.158 328.67L474.127 332.287Z" fill="url(#paint48_linear_13522_2)"/>
<path d="M502.651 376.035L502.107 375.141C501.621 373.294 499.851 372.088 497.946 372.321L495.088 372.671C494.193 372.788 493.59 373.624 493.765 374.518C494.038 375.802 494.718 377.318 496.468 377.202C499.462 377.007 501.368 381.363 501.368 381.363L502.515 379.749C503.293 378.66 503.351 377.202 502.651 376.035Z" fill="url(#paint49_linear_13522_2)"/>
<path d="M480.524 328.515C482.993 328.145 485.774 326.065 485.715 324.354C485.638 321.981 480.232 320.698 477.51 320.037C474.769 319.376 473.621 319.609 472.824 320.212C472.027 320.815 471.502 321.904 471.327 322.856C471.23 323.362 471.23 324.081 471.308 325.481C471.385 326.726 471.366 326.667 471.385 327.037C471.463 327.931 471.696 329.487 472.571 331.626C472.921 331.237 473.407 330.77 474.01 330.303C474.244 330.128 475.157 329.428 476.188 329.02C478.016 328.301 479.027 328.728 480.524 328.515Z" fill="url(#paint50_linear_13522_2)"/>
<path d="M471.288 329.215C471.288 329.215 471.444 332.656 474.691 334.173C477.607 335.534 481.457 329.448 480.407 327.134C480.057 326.356 478.949 325.52 477.841 325.267C477.18 325.112 476.849 325.248 475.78 324.976C474.788 324.723 474.594 324.49 474.205 324.567C473.719 324.665 473.116 325.209 472.649 327.348C472.416 326.512 471.871 325.948 471.308 325.909C471.21 325.909 470.958 325.929 470.724 326.065C469.927 326.59 470.083 327.873 471.288 329.215Z" fill="url(#paint51_linear_13522_2)"/>
<path d="M126.453 220.29C120.328 210.471 107.126 192.855 84.3179 184.514C74.6155 180.975 59.216 175.336 47.472 183.542C36.2918 191.358 36.039 206.388 36.039 207.905C36.0195 220.582 43.7776 232.521 56.0661 238.918C58.2049 236.526 60.3243 234.115 62.4631 231.723C56.9022 221.029 56.5911 211.755 59.7021 209.888C62.6965 208.08 70.2407 212.338 76.9099 220.874C93.4177 220.66 109.945 220.465 126.453 220.29Z" fill="url(#paint52_linear_13522_2)"/>
<path opacity="0.3" d="M48.1525 219.727C46.0331 215.021 42.0277 214.924 39.9861 209.732C37.614 203.685 39.7139 195.344 44.0693 193.4C47.3164 191.941 49.1247 195.772 54.4912 194.8C61.3937 193.555 63.0853 188.422 68.5685 188.033C72.1267 187.78 73.2155 189.822 81.9458 195.5C92.2316 202.208 99.2897 206.68 104.189 204.366C105.395 203.802 107.164 202.48 108.467 198.941C117.1 206.466 122.933 214.652 126.453 220.271C109.925 220.465 93.4177 220.66 76.8904 220.854C70.2212 212.338 62.677 208.06 59.6827 209.869C56.5911 211.735 56.8828 221.01 62.4437 231.704C60.3049 234.095 58.1855 236.507 56.0467 238.898C52.7996 237.206 49.9025 235.126 47.3553 232.773C49.6886 227.076 49.5719 222.876 48.1525 219.727Z" fill="url(#paint53_linear_13522_2)"/>
<path d="M36.0391 282.161C36.0391 282.161 34.4058 288.383 32.3642 292.018C30.3226 295.654 27.8338 295.207 27.756 292.018C27.6783 288.83 33.5892 280.197 33.5892 280.197L36.0391 282.161Z" fill="url(#paint54_linear_13522_2)"/>
<path d="M142.785 228.282C121.591 210.16 98.2783 211.755 98.2783 211.755C81.8483 212.882 70.4737 220.815 65.0488 224.704C39.6941 242.884 33.2971 271.466 31.6638 280.352C31.8971 280.78 32.5971 281.869 33.9971 282.53C35.6304 283.327 37.1276 283.035 37.5748 282.919C40.6274 277.125 51.6521 257.972 75.529 247.764C95.595 239.19 113.581 241.698 120.483 243.02C124.508 244.556 130.613 246.073 137.516 244.595C140.005 244.07 147.879 242.359 148.832 237.887C149.377 235.379 147.627 232.404 142.785 228.282Z" fill="url(#paint55_linear_13522_2)"/>
<path d="M197.986 179.089C195.964 175.084 187.059 158.595 167.187 151.479C150.213 145.412 135.649 149.904 129.564 151.77C122.817 153.851 110.256 157.72 102.595 169.503C102.012 170.398 92.2704 185.7 98.3563 192.291C102.381 196.666 112.511 196.277 122.019 189.919C121.436 192.155 120.289 195.383 117.82 198.494C114.495 202.674 111.811 202.83 111.345 205.26C110.723 208.566 115.175 210.918 122.992 218.404C129.739 224.879 128.766 225.385 134.872 231.062C142.999 238.645 146.907 242.592 149.902 242.709C161.704 243.137 171.834 202.655 173.565 195.577C181.712 190.094 189.859 184.592 197.986 179.089Z" fill="url(#paint56_linear_13522_2)"/>
<path d="M118.286 178.292C117.081 183.814 114.631 187.43 113.056 189.355C110.917 191.98 108.623 194.8 105.181 194.877C102.42 194.936 99.2507 193.205 98.4924 190.93C97.1313 186.905 102.984 180.431 113.075 174.578C114.806 175.803 116.556 177.047 118.286 178.292Z" fill="url(#paint57_linear_13522_2)"/>
<path opacity="0.3" d="M103.353 188.461C105.337 187.372 104.734 184.903 106.873 181.694C111.636 174.597 124.255 172.556 126.861 176.056C128.514 178.253 126.219 182.686 124.178 186.614C123.458 187.994 122.7 189.219 121.922 190.328C121.961 190.191 122 190.055 122.039 189.919C112.531 196.277 102.401 196.647 98.3756 192.291C97.0535 190.852 96.4702 189.005 96.3924 186.964C99.1534 188.655 101.642 189.414 103.353 188.461Z" fill="url(#paint58_linear_13522_2)"/>
<path d="M139.499 167.287L112.123 166.606C111.092 166.587 110.334 167.559 110.606 168.55L114.32 181.967C114.495 182.589 115.02 183.036 115.661 183.075L140.705 185.292C141.658 185.369 142.455 184.572 142.358 183.619L140.977 168.667C140.919 167.909 140.277 167.306 139.499 167.287Z" fill="white"/>
<path d="M113.834 180.217C113.834 180.217 112.006 179.769 111.345 178.039C110.995 177.106 110.839 175.647 110.781 174.481C110.723 173.45 111.462 172.536 112.492 172.361L116.147 171.739C116.964 171.603 117.664 172.381 117.392 173.178C117.197 173.742 116.828 174.364 116.128 174.947C114.281 176.503 113.406 177.495 113.406 177.495L113.834 180.217Z" fill="url(#paint59_linear_13522_2)"/>
<path opacity="0.3" d="M149.552 220.29C149.455 214.341 138.897 212.377 136.602 201.974C135.611 197.463 136.136 191.183 139.422 189.297C143.621 186.905 148.735 193.73 154.627 191.552C159.818 189.628 158.768 183.231 163.085 181.422C168.082 179.303 174.479 186.167 180.292 191.066C178.056 192.583 175.82 194.08 173.604 195.597C171.873 202.674 161.763 243.156 149.941 242.729C147.121 242.631 143.446 239.073 136.155 232.229C146.888 227.368 149.591 223.343 149.552 220.29Z" fill="url(#paint60_linear_13522_2)"/>
<path d="M191.648 172.128C196.509 171.759 207.903 194.605 198.842 211.502C197.617 213.777 194.953 218.774 189.392 221.282C176.287 227.193 156.96 214.788 148.832 199.874C145.119 193.069 144.166 186.517 143.913 182.414C144.963 181.092 146.013 179.789 147.063 178.467C150.116 181.714 156.085 187.042 165.068 189.569C169.754 190.872 175.645 192.525 180.798 189.88C189.645 185.331 188.05 172.4 191.648 172.128Z" fill="url(#paint61_linear_13522_2)"/>
<path d="M147.588 142.612C147.588 142.612 151.885 149.223 153.441 149.729C154.996 150.234 163.785 151.712 163.804 152.159C163.824 152.606 158.943 153.676 153.032 154.084C147.121 154.493 142.241 152.043 141.308 151.382C140.355 150.72 143.583 149.359 145.06 149.515C146.538 149.67 145.235 145.062 145.235 145.062L147.588 142.612Z" fill="url(#paint62_linear_13522_2)"/>
<path d="M118.228 179.847C120.114 178.817 121.708 180.042 123.867 178.914C125.733 177.942 125.383 176.561 127.055 174.792C130.283 171.35 134.463 173.392 137.38 170.475C138.002 169.853 138.702 168.881 139.091 167.287L139.48 167.306C140.258 167.325 140.899 167.928 140.958 168.706L142.338 183.658C142.435 184.611 141.638 185.408 140.685 185.33L115.875 183.133C116.517 181.189 117.431 180.294 118.228 179.847Z" fill="url(#paint63_linear_13522_2)"/>
<path d="M146.382 179.342C146.13 178.506 145.643 177.32 144.73 176.134C142.688 173.509 139.169 171.836 138.274 172.653C137.866 173.023 137.847 174.092 139.441 177.125C140.296 177.339 141.424 177.747 142.357 178.681C143.699 180.022 143.796 181.558 144.535 181.617C144.943 181.656 145.546 181.267 146.382 179.342Z" fill="url(#paint64_linear_13522_2)"/>
<path d="M139.382 144.498C137.419 143.585 136.096 140.376 137.069 137.965C137.788 136.177 139.518 135.438 140.763 134.913C141.346 134.66 145.449 132.968 148.093 135.088C148.929 135.749 149.59 136.954 149.785 138.082C149.882 138.665 149.901 139.463 149.804 141.057C149.707 142.476 149.746 142.418 149.707 142.826C149.61 143.837 149.338 145.587 148.365 148.037C147.957 147.59 147.413 147.065 146.732 146.54C146.479 146.346 145.429 145.548 144.263 145.082C141.871 144.11 140.918 145.218 139.382 144.498Z" fill="url(#paint65_linear_13522_2)"/>
<path d="M149.882 145.315C149.882 145.315 149.707 149.223 146.013 150.934C142.707 152.47 138.333 145.587 139.538 142.943C139.946 142.068 141.191 141.115 142.455 140.824C143.213 140.649 143.582 140.804 144.807 140.493C145.935 140.201 146.149 139.949 146.596 140.026C147.141 140.143 147.841 140.765 148.366 143.196C148.638 142.243 149.241 141.621 149.882 141.582C149.979 141.582 150.291 141.601 150.524 141.757C151.418 142.34 151.243 143.779 149.882 145.315Z" fill="url(#paint66_linear_13522_2)"/>
<path d="M147.957 141.037C147.957 141.037 148.288 144.246 147.957 145.276C147.627 146.307 146.266 147.726 144.166 147.94C142.046 148.154 140.666 147.94 140.666 147.94C140.666 147.94 142.241 151.615 142.902 151.77C143.563 151.907 147.588 151.712 148.327 151.032C149.066 150.351 149.96 147.396 149.746 146.073C149.532 144.771 148.327 141.796 148.327 141.796L147.957 141.037Z" fill="url(#paint67_linear_13522_2)"/>
<defs>
<linearGradient id="paint0_linear_13522_2" x1="278.392" y1="566.861" x2="278.392" y2="0" gradientUnits="userSpaceOnUse">
<stop stop-color="#746C89"/>
<stop offset="1" stop-color="#EB8382" stop-opacity="0"/>
</linearGradient>
<linearGradient id="paint1_linear_13522_2" x1="216.671" y1="51.5234" x2="139.144" y2="547.143" gradientUnits="userSpaceOnUse">
<stop offset="0.00359712" stop-color="#C37A87"/>
<stop offset="1" stop-color="#9571F6"/>
</linearGradient>
<linearGradient id="paint2_linear_13522_2" x1="168.095" y1="89.121" x2="109.04" y2="466.652" gradientUnits="userSpaceOnUse">
<stop stop-color="#FF9085"/>
<stop offset="1" stop-color="#FB6FBB"/>
</linearGradient>
<linearGradient id="paint3_linear_13522_2" x1="430.665" y1="119.072" x2="349.528" y2="637.77" gradientUnits="userSpaceOnUse">
<stop offset="0.00359712" stop-color="#C37A87"/>
<stop offset="1" stop-color="#9571F6"/>
</linearGradient>
<linearGradient id="paint4_linear_13522_2" x1="458.198" y1="139.651" x2="385.692" y2="603.174" gradientUnits="userSpaceOnUse">
<stop stop-color="#FF9085"/>
<stop offset="1" stop-color="#FB6FBB"/>
</linearGradient>
<linearGradient id="paint5_linear_13522_2" x1="356.1" y1="221.097" x2="161.211" y2="583.034" gradientUnits="userSpaceOnUse">
<stop stop-color="#446381"/>
<stop offset="0.9964" stop-color="#826F8C"/>
</linearGradient>
<linearGradient id="paint6_linear_13522_2" x1="296.761" y1="280.829" x2="156.478" y2="280.829" gradientUnits="userSpaceOnUse">
<stop stop-color="#40447E"/>
<stop offset="0.9964" stop-color="#3C3B6B"/>
</linearGradient>
<linearGradient id="paint7_linear_13522_2" x1="136.464" y1="404.917" x2="40.3792" y2="306.102" gradientUnits="userSpaceOnUse">
<stop stop-color="#446381"/>
<stop offset="0.9964" stop-color="#826F8C"/>
</linearGradient>
<linearGradient id="paint8_linear_13522_2" x1="341.308" y1="361" x2="421.379" y2="230.703" gradientUnits="userSpaceOnUse">
<stop stop-color="#444B8C"/>
<stop offset="0.9964" stop-color="#26264F"/>
</linearGradient>
<linearGradient id="paint9_linear_13522_2" x1="342.829" y1="382.533" x2="250.692" y2="382.533" gradientUnits="userSpaceOnUse">
<stop stop-color="#444B8C"/>
<stop offset="0.9964" stop-color="#26264F"/>
</linearGradient>
<linearGradient id="paint10_linear_13522_2" x1="304.872" y1="305.555" x2="299.777" y2="352.869" gradientUnits="userSpaceOnUse">
<stop stop-color="#444B8C"/>
<stop offset="0.9964" stop-color="#26264F"/>
</linearGradient>
<linearGradient id="paint11_linear_13522_2" x1="290.512" y1="362.706" x2="299.156" y2="442.463" gradientUnits="userSpaceOnUse">
<stop stop-color="#444B8C"/>
<stop offset="0.9964" stop-color="#26264F"/>
</linearGradient>
<linearGradient id="paint12_linear_13522_2" x1="292.22" y1="353.054" x2="293.005" y2="421.417" gradientUnits="userSpaceOnUse">
<stop stop-color="#444B8C"/>
<stop offset="0.9964" stop-color="#26264F"/>
</linearGradient>
<linearGradient id="paint13_linear_13522_2" x1="200.474" y1="376.778" x2="115" y2="376.778" gradientUnits="userSpaceOnUse">
<stop stop-color="#444B8C"/>
<stop offset="0.9964" stop-color="#26264F"/>
</linearGradient>
<linearGradient id="paint14_linear_13522_2" x1="166.849" y1="290.691" x2="161.753" y2="338.005" gradientUnits="userSpaceOnUse">
<stop stop-color="#444B8C"/>
<stop offset="0.9964" stop-color="#26264F"/>
</linearGradient>
<linearGradient id="paint15_linear_13522_2" x1="149.856" y1="356.965" x2="158.5" y2="436.723" gradientUnits="userSpaceOnUse">
<stop stop-color="#444B8C"/>
<stop offset="0.9964" stop-color="#26264F"/>
</linearGradient>
<linearGradient id="paint16_linear_13522_2" x1="151.564" y1="347.314" x2="152.35" y2="415.677" gradientUnits="userSpaceOnUse">
<stop stop-color="#444B8C"/>
<stop offset="0.9964" stop-color="#26264F"/>
</linearGradient>
<linearGradient id="paint17_linear_13522_2" x1="325.67" y1="230.568" x2="308.2" y2="281.34" gradientUnits="userSpaceOnUse">
<stop stop-color="#AA80F9"/>
<stop offset="0.9964" stop-color="#6165D7"/>
</linearGradient>
<linearGradient id="paint18_linear_13522_2" x1="170.968" y1="177.337" x2="153.498" y2="228.109" gradientUnits="userSpaceOnUse">
<stop stop-color="#AA80F9"/>
<stop offset="0.9964" stop-color="#6165D7"/>
</linearGradient>
<linearGradient id="paint19_linear_13522_2" x1="314.8" y1="337.23" x2="328.812" y2="323.764" gradientUnits="userSpaceOnUse">
<stop stop-color="#AA80F9"/>
<stop offset="0.9964" stop-color="#6165D7"/>
</linearGradient>
<linearGradient id="paint20_linear_13522_2" x1="341.471" y1="364.983" x2="355.483" y2="351.517" gradientUnits="userSpaceOnUse">
<stop stop-color="#AA80F9"/>
<stop offset="0.9964" stop-color="#6165D7"/>
</linearGradient>
<linearGradient id="paint21_linear_13522_2" x1="341.528" y1="365.043" x2="355.541" y2="351.576" gradientUnits="userSpaceOnUse">
<stop stop-color="#AA80F9"/>
<stop offset="0.9964" stop-color="#6165D7"/>
</linearGradient>
<linearGradient id="paint22_linear_13522_2" x1="314.92" y1="337.356" x2="328.933" y2="323.89" gradientUnits="userSpaceOnUse">
<stop stop-color="#AA80F9"/>
<stop offset="0.9964" stop-color="#6165D7"/>
</linearGradient>
<linearGradient id="paint23_linear_13522_2" x1="380.369" y1="274.518" x2="363.532" y2="275.114" gradientUnits="userSpaceOnUse">
<stop stop-color="#4499D9"/>
<stop offset="1" stop-color="#6E6CC1"/>
</linearGradient>
<linearGradient id="paint24_linear_13522_2" x1="380.369" y1="322.569" x2="363.532" y2="323.163" gradientUnits="userSpaceOnUse">
<stop stop-color="#4499D9"/>
<stop offset="1" stop-color="#6E6CC1"/>
</linearGradient>
<linearGradient id="paint25_linear_13522_2" x1="409.053" y1="301.825" x2="385.196" y2="303.487" gradientUnits="userSpaceOnUse">
<stop stop-color="#4499D9"/>
<stop offset="1" stop-color="#6E6CC1"/>
</linearGradient>
<linearGradient id="paint26_linear_13522_2" x1="359.914" y1="300.808" x2="336.611" y2="302.412" gradientUnits="userSpaceOnUse">
<stop stop-color="#4499D9"/>
<stop offset="1" stop-color="#6E6CC1"/>
</linearGradient>
<linearGradient id="paint27_linear_13522_2" x1="57.1208" y1="352.017" x2="142.287" y2="212.986" gradientUnits="userSpaceOnUse">
<stop stop-color="#444B8C"/>
<stop offset="0.9964" stop-color="#26264F"/>
</linearGradient>
<linearGradient id="paint28_linear_13522_2" x1="18.016" y1="337.701" x2="37.1236" y2="318.594" gradientUnits="userSpaceOnUse">
<stop stop-color="#AA80F9"/>
<stop offset="0.9964" stop-color="#6165D7"/>
</linearGradient>
<linearGradient id="paint29_linear_13522_2" x1="51.4102" y1="371.096" x2="70.518" y2="351.988" gradientUnits="userSpaceOnUse">
<stop stop-color="#AA80F9"/>
<stop offset="0.9964" stop-color="#6165D7"/>
</linearGradient>
<linearGradient id="paint30_linear_13522_2" x1="50.921" y1="370.606" x2="70.0286" y2="351.499" gradientUnits="userSpaceOnUse">
<stop stop-color="#AA80F9"/>
<stop offset="0.9964" stop-color="#6165D7"/>
</linearGradient>
<linearGradient id="paint31_linear_13522_2" x1="18.7615" y1="338.447" x2="37.8692" y2="319.34" gradientUnits="userSpaceOnUse">
<stop stop-color="#AA80F9"/>
<stop offset="0.9964" stop-color="#6165D7"/>
</linearGradient>
<linearGradient id="paint32_linear_13522_2" x1="94.4054" y1="261.544" x2="77.3239" y2="262.335" gradientUnits="userSpaceOnUse">
<stop stop-color="#4499D9"/>
<stop offset="1" stop-color="#6E6CC1"/>
</linearGradient>
<linearGradient id="paint33_linear_13522_2" x1="94.4054" y1="328.347" x2="77.3239" y2="329.138" gradientUnits="userSpaceOnUse">
<stop stop-color="#4499D9"/>
<stop offset="1" stop-color="#6E6CC1"/>
</linearGradient>
<linearGradient id="paint34_linear_13522_2" x1="126.382" y1="295.496" x2="109.015" y2="296.308" gradientUnits="userSpaceOnUse">
<stop stop-color="#4499D9"/>
<stop offset="1" stop-color="#6E6CC1"/>
</linearGradient>
<linearGradient id="paint35_linear_13522_2" x1="62.9496" y1="294.41" x2="46.1272" y2="295.184" gradientUnits="userSpaceOnUse">
<stop stop-color="#4499D9"/>
<stop offset="1" stop-color="#6E6CC1"/>
</linearGradient>
<linearGradient id="paint36_linear_13522_2" x1="484.851" y1="290.425" x2="289.962" y2="652.362" gradientUnits="userSpaceOnUse">
<stop stop-color="#444B8C"/>
<stop offset="0.9964" stop-color="#26264F"/>
</linearGradient>
<linearGradient id="paint37_linear_13522_2" x1="516.564" y1="454.258" x2="462.188" y2="454.258" gradientUnits="userSpaceOnUse">
<stop stop-color="#4499D9"/>
<stop offset="0.9964" stop-color="#6E6CC1"/>
</linearGradient>
<linearGradient id="paint38_linear_13522_2" x1="502.551" y1="548.234" x2="482.256" y2="548.234" gradientUnits="userSpaceOnUse">
<stop stop-color="#311944"/>
<stop offset="1" stop-color="#6B3976"/>
</linearGradient>
<linearGradient id="paint39_linear_13522_2" x1="479.459" y1="512.669" x2="486.558" y2="557.113" gradientUnits="userSpaceOnUse">
<stop stop-color="#311944"/>
<stop offset="1" stop-color="#A03976"/>
</linearGradient>
<linearGradient id="paint40_linear_13522_2" x1="516.564" y1="454.262" x2="462.188" y2="454.262" gradientUnits="userSpaceOnUse">
<stop stop-color="#AA80F9"/>
<stop offset="0.9964" stop-color="#6165D7"/>
</linearGradient>
<linearGradient id="paint41_linear_13522_2" x1="476.832" y1="455.861" x2="453.832" y2="507.861" gradientUnits="userSpaceOnUse">
<stop stop-color="#4499D9"/>
<stop offset="0.9964" stop-color="#6E6CC1"/>
</linearGradient>
<linearGradient id="paint42_linear_13522_2" x1="456.456" y1="321.231" x2="490.2" y2="441.394" gradientUnits="userSpaceOnUse">
<stop stop-color="#FFC444"/>
<stop offset="0.9964" stop-color="#F36F56"/>
</linearGradient>
<linearGradient id="paint43_linear_13522_2" x1="510.589" y1="380.066" x2="504.725" y2="399.099" gradientUnits="userSpaceOnUse">
<stop stop-color="#FFC444"/>
<stop offset="0.9964" stop-color="#F36F56"/>
</linearGradient>
<linearGradient id="paint44_linear_13522_2" x1="437.17" y1="326.647" x2="470.914" y2="446.81" gradientUnits="userSpaceOnUse">
<stop stop-color="#FFC444"/>
<stop offset="0.9964" stop-color="#F36F56"/>
</linearGradient>
<linearGradient id="paint45_linear_13522_2" x1="415.518" y1="332.727" x2="449.262" y2="452.89" gradientUnits="userSpaceOnUse">
<stop stop-color="#FFC444"/>
<stop offset="0.9964" stop-color="#F36F56"/>
</linearGradient>
<linearGradient id="paint46_linear_13522_2" x1="480.52" y1="368.97" x2="460.151" y2="405.697" gradientUnits="userSpaceOnUse">
<stop offset="0.494" stop-color="#EBEFF2"/>
<stop offset="1" stop-color="white"/>
</linearGradient>
<linearGradient id="paint47_linear_13522_2" x1="448.141" y1="408.03" x2="471.803" y2="382.619" gradientUnits="userSpaceOnUse">
<stop offset="0.494" stop-color="#EBEFF2"/>
<stop offset="1" stop-color="white"/>
</linearGradient>
<linearGradient id="paint48_linear_13522_2" x1="466.788" y1="310.295" x2="470.697" y2="343.628" gradientUnits="userSpaceOnUse">
<stop stop-color="#311944"/>
<stop offset="1" stop-color="#A03976"/>
</linearGradient>
<linearGradient id="paint49_linear_13522_2" x1="503.137" y1="376.833" x2="493.729" y2="376.833" gradientUnits="userSpaceOnUse">
<stop stop-color="#311944"/>
<stop offset="1" stop-color="#A03976"/>
</linearGradient>
<linearGradient id="paint50_linear_13522_2" x1="462.273" y1="337.159" x2="481.41" y2="321.091" gradientUnits="userSpaceOnUse">
<stop stop-color="#AA80F9"/>
<stop offset="0.9964" stop-color="#6165D7"/>
</linearGradient>
<linearGradient id="paint51_linear_13522_2" x1="470.322" y1="314.801" x2="474.026" y2="324.06" gradientUnits="userSpaceOnUse">
<stop stop-color="#311944"/>
<stop offset="1" stop-color="#A03976"/>
</linearGradient>
<linearGradient id="paint52_linear_13522_2" x1="116.407" y1="192.424" x2="56.2535" y2="196.898" gradientUnits="userSpaceOnUse">
<stop stop-color="#4499D9"/>
<stop offset="1" stop-color="#6E6CC1"/>
</linearGradient>
<linearGradient id="paint53_linear_13522_2" x1="65.3861" y1="167.449" x2="78.6237" y2="203.782" gradientUnits="userSpaceOnUse">
<stop stop-color="#AA80F9"/>
<stop offset="0.9964" stop-color="#6165D7"/>
</linearGradient>
<linearGradient id="paint54_linear_13522_2" x1="36.0406" y1="287.384" x2="27.7601" y2="287.384" gradientUnits="userSpaceOnUse">
<stop stop-color="#311944"/>
<stop offset="1" stop-color="#6B3976"/>
</linearGradient>
<linearGradient id="paint55_linear_13522_2" x1="135.898" y1="227.416" x2="57.9561" y2="233.697" gradientUnits="userSpaceOnUse">
<stop stop-color="#4499D9"/>
<stop offset="1" stop-color="#6E6CC1"/>
</linearGradient>
<linearGradient id="paint56_linear_13522_2" x1="138.797" y1="152.571" x2="162.456" y2="239.882" gradientUnits="userSpaceOnUse">
<stop stop-color="#893976"/>
<stop offset="1" stop-color="#311944"/>
</linearGradient>
<linearGradient id="paint57_linear_13522_2" x1="102.174" y1="161.688" x2="126.993" y2="253.281" gradientUnits="userSpaceOnUse">
<stop stop-color="#893976"/>
<stop offset="1" stop-color="#311944"/>
</linearGradient>
<linearGradient id="paint58_linear_13522_2" x1="106.14" y1="161.42" x2="129.798" y2="248.732" gradientUnits="userSpaceOnUse">
<stop stop-color="#893976"/>
<stop offset="1" stop-color="#311944"/>
</linearGradient>
<linearGradient id="paint59_linear_13522_2" x1="114.124" y1="172.595" x2="114.311" y2="203.952" gradientUnits="userSpaceOnUse">
<stop stop-color="#FFC444"/>
<stop offset="0.9964" stop-color="#F36F56"/>
</linearGradient>
<linearGradient id="paint60_linear_13522_2" x1="141.959" y1="151.715" x2="165.617" y2="239.026" gradientUnits="userSpaceOnUse">
<stop stop-color="#893976"/>
<stop offset="1" stop-color="#311944"/>
</linearGradient>
<linearGradient id="paint61_linear_13522_2" x1="159.887" y1="173.047" x2="187.207" y2="206.281" gradientUnits="userSpaceOnUse">
<stop stop-color="#893976"/>
<stop offset="1" stop-color="#311944"/>
</linearGradient>
<linearGradient id="paint62_linear_13522_2" x1="163.8" y1="148.368" x2="141.118" y2="148.368" gradientUnits="userSpaceOnUse">
<stop stop-color="#FFC444"/>
<stop offset="0.9964" stop-color="#F36F56"/>
</linearGradient>
<linearGradient id="paint63_linear_13522_2" x1="142.37" y1="176.289" x2="115.889" y2="176.289" gradientUnits="userSpaceOnUse">
<stop offset="0.494" stop-color="#EBEFF2"/>
<stop offset="1" stop-color="white"/>
</linearGradient>
<linearGradient id="paint64_linear_13522_2" x1="142.187" y1="172.421" x2="142.375" y2="203.778" gradientUnits="userSpaceOnUse">
<stop stop-color="#FFC444"/>
<stop offset="0.9964" stop-color="#F36F56"/>
</linearGradient>
<linearGradient id="paint65_linear_13522_2" x1="159.409" y1="153.019" x2="139.974" y2="136.7" gradientUnits="userSpaceOnUse">
<stop stop-color="#311944"/>
<stop offset="1" stop-color="#6B3976"/>
</linearGradient>
<linearGradient id="paint66_linear_13522_2" x1="144.251" y1="141.919" x2="158.996" y2="172.566" gradientUnits="userSpaceOnUse">
<stop stop-color="#FFC444"/>
<stop offset="0.9964" stop-color="#F36F56"/>
</linearGradient>
<linearGradient id="paint67_linear_13522_2" x1="140.293" y1="160.402" x2="147.466" y2="142.182" gradientUnits="userSpaceOnUse">
<stop stop-color="#311944"/>
<stop offset="1" stop-color="#6B3976"/>
</linearGradient>
</defs>
</svg>
