<svg width="84" height="84" viewBox="0 0 84 84" fill="none" xmlns="http://www.w3.org/2000/svg">
<path d="M16.9934 62.2388C13.999 63.7555 10.2269 62.3555 8.59364 59.1278C6.94092 55.8807 8.04921 52.0114 11.0436 50.4948C11.1991 50.417 11.3547 50.3587 11.5102 50.2809C10.9463 48.4921 10.538 46.6838 10.2464 44.8755C10.0714 44.8755 9.89636 44.8755 9.72137 44.8561C6.29926 44.545 3.59659 41.4145 3.65492 37.8369C3.73269 34.2592 6.55204 31.6149 9.97415 31.926C10.1491 31.9454 10.3241 31.9649 10.4991 32.0037C10.8491 30.2344 11.3546 28.5039 11.9574 26.8317C11.8019 26.7345 11.6463 26.6373 11.4908 26.54C8.57418 24.4984 7.62145 20.4541 9.41027 17.4987C11.1797 14.5627 14.9906 13.8432 17.9072 15.8848C18.0628 15.982 18.1989 16.0987 18.335 16.2154C19.4822 14.9321 20.7655 13.746 22.1265 12.6766C22.0293 12.5211 21.9321 12.3655 21.8543 12.1905C20.2016 8.9434 18.0628 5.40463 21.0766 3.9269C28.0569 0.524233 31.0512 3.44082 32.7039 6.68793C32.7817 6.86292 32.8595 7.01847 32.9373 7.19346C34.6094 6.72681 36.3205 6.39627 38.0315 6.22127C38.0121 6.04628 38.0121 5.85183 38.0121 5.67684C38.0899 2.09918 37.0205 0.174249 40.462 0.115918C47.9479 -0.0201887 50.4756 3.22693 50.3978 6.78515C50.3978 6.97959 50.3783 7.15457 50.3589 7.32956C52.07 7.81566 53.7616 8.43785 55.3948 9.19616C55.4726 9.04061 55.5504 8.88508 55.6476 8.72953C57.417 5.79352 61.228 5.07409 64.1446 7.11568C67.0611 9.15728 68.0139 13.2016 66.225 16.157C66.1278 16.3126 66.0306 16.4487 65.9334 16.5848C67.2361 17.8875 68.4416 19.2875 69.5694 20.8041C69.7055 20.7069 69.861 20.6291 70.0166 20.5513C73.0109 19.0347 76.783 20.4347 78.4163 23.6623C80.069 26.9095 78.9607 30.7788 75.9664 32.2954C75.8108 32.3732 75.6553 32.4315 75.4997 32.5093C76.0636 34.2981 76.4719 36.1064 76.7636 37.9147C76.9386 37.9147 77.1136 37.9147 77.2886 37.9341C80.7107 38.2452 83.4134 41.3756 83.355 44.9533C83.2773 48.531 80.4579 51.1753 77.0358 50.8642C76.8608 50.8448 76.6858 50.8253 76.5108 50.7864C76.1608 52.5558 75.6553 54.2863 75.0525 55.9585C75.2081 56.0557 75.3636 56.1529 75.5192 56.2501C78.4357 58.2917 79.3885 62.336 77.5996 65.2915C75.8303 68.2275 69.9583 69.5886 67.0417 67.547C66.8861 67.4498 68.8111 66.6915 68.675 66.5748C67.5278 67.8581 66.2445 69.0442 64.8834 70.1136C64.9806 70.2691 65.0778 70.4247 65.1556 70.5997C66.8083 73.8468 65.7001 77.7161 62.7057 79.2327C59.7114 80.7493 55.9393 79.3494 54.306 76.1217C54.2282 75.9467 54.1504 75.7912 54.0727 75.6162C52.4005 76.0828 50.6894 76.4134 48.9784 76.5884C48.9978 76.7634 48.9978 76.9578 48.9978 77.1328C48.9201 80.7104 46.1007 83.3548 42.6786 83.0437C39.2565 82.7326 36.5538 79.6021 36.6121 76.0245C36.6121 75.8301 36.6316 75.655 36.651 75.4801C34.94 74.994 33.2484 74.3718 31.6151 73.6135C31.5373 73.769 31.4595 73.9246 31.3623 74.0801C29.5929 77.0161 25.7819 77.7355 22.8654 75.6939C19.9488 73.6523 18.9961 69.608 20.7849 66.6526C20.8821 66.497 20.9793 66.3609 21.0766 66.2248C19.7738 64.9221 18.5683 63.5221 17.4406 62.0055C17.285 62.0833 17.1489 62.1611 16.9934 62.2388ZM54.3449 62.7249C65.2334 57.2029 69.1999 43.1645 63.2112 31.401C57.2226 19.618 43.5536 14.5432 32.6845 20.0652C21.796 25.5873 17.8294 39.6257 23.8181 51.3892C29.7874 63.1721 43.4564 68.247 54.3449 62.7249Z" fill="url(#paint0_linear_13522_147)"/>
<path d="M9.72137 44.856C6.29927 44.5449 3.59659 41.4144 3.65492 37.8367C3.7327 34.2591 6.55205 31.6147 9.97415 31.9258C10.1491 31.9453 10.3241 31.9647 10.4991 32.0036C10.8491 30.2342 11.3547 28.5037 11.9574 26.8316C11.8019 26.7343 11.6463 26.6371 11.4908 26.5399C8.57419 24.4983 4.9382 19.5401 7.01868 16.7986C10.9269 11.5876 14.9906 13.8431 17.9072 15.9041C18.0628 16.0014 18.1989 16.118 18.335 16.2347C19.4822 14.9514 20.7655 13.7653 22.1265 12.6959C22.0293 12.5404 21.9321 12.3848 21.8543 12.2098C20.9599 10.4404 20.8821 8.49606 21.4654 6.84334C24.2848 11.8209 27.0847 16.818 29.8068 21.8345C21.1349 28.1926 18.3544 40.7339 23.7987 51.4085C28.3874 60.4693 37.526 65.5441 46.4507 64.9025C46.8396 65.933 47.2479 66.9635 47.6562 67.9941C48.8034 70.7745 50.1256 73.4772 51.4478 76.1994C50.6117 76.3549 49.795 76.4716 48.959 76.5688C48.9784 76.7438 48.9784 76.9382 48.9784 77.1132C48.9006 80.6909 46.7424 83.7241 40.5398 83.3936C37.1177 83.2186 36.5149 79.5826 36.5927 76.0049C36.5927 75.8105 36.6121 75.6355 36.6316 75.4605C34.9205 74.9744 33.2289 74.3522 31.5956 73.5939C31.5179 73.7494 31.4401 73.905 31.3429 74.0605C29.5735 76.9966 23.4293 78.241 20.4932 76.1994C17.5767 74.1578 18.9766 69.569 20.746 66.633C20.8432 66.4775 20.9405 66.3414 21.0377 66.2052C19.7349 64.9025 18.5294 63.5025 17.4017 61.9859C17.2656 62.0832 17.11 62.1609 16.9545 62.2387C13.9601 63.7553 10.188 62.3554 8.55475 59.1277C6.90202 55.8806 8.01032 52.0113 11.0047 50.4947C11.1602 50.4169 11.3158 50.3586 11.4713 50.2808C10.9074 48.4919 10.4991 46.6837 10.2075 44.8754C10.0714 44.8754 9.89637 44.8754 9.72137 44.856Z" fill="url(#paint1_linear_13522_147)"/>
<path d="M13.7658 62.608C10.7715 64.1247 6.99938 62.7247 5.36611 59.497C3.71338 56.2499 4.8217 52.3806 7.81604 50.864C7.97159 50.7862 8.12712 50.7279 8.28267 50.6501C7.7188 48.8613 7.31049 47.053 7.01883 45.2447C6.84383 45.2447 6.66885 45.2447 6.49386 45.2253C3.07175 44.9142 0.36907 41.7837 0.427401 38.2061C0.505177 34.6284 3.32453 31.9841 6.74663 32.2952C6.92163 32.3146 7.09661 32.3341 7.27161 32.3729C7.6216 30.6036 8.12713 28.8731 8.72989 27.2009C8.57434 27.1037 8.41879 27.0065 8.26324 26.9092C5.34667 24.8676 4.39393 20.8233 6.18276 17.8679C7.95214 14.9319 11.7631 14.2124 14.6797 16.254C14.8352 16.3513 14.9714 16.4679 15.1075 16.5846C16.2546 15.3013 17.5379 14.1152 18.899 13.0458C18.8018 12.8903 18.7046 12.7347 18.6268 12.5597C16.9741 9.3126 18.0824 5.44328 21.0767 3.92666C24.071 2.41005 27.8431 3.81 29.4764 7.03767C29.5542 7.21266 29.632 7.36821 29.7097 7.5432C31.3819 7.07655 33.093 6.74601 34.804 6.57101C34.7846 6.39602 34.7846 6.2016 34.7846 6.0266C34.8624 2.44894 37.6817 -0.195417 41.1038 0.115684C44.5259 0.426785 47.2286 3.55723 47.1703 7.13489C47.1703 7.32933 47.1508 7.50433 47.1314 7.67932C48.8424 8.16542 50.5341 8.78762 52.1673 9.54592C52.2451 9.39037 52.3229 9.23482 52.4201 9.07927C54.1895 6.14326 58.0005 5.42385 60.917 7.46545C63.8336 9.50705 64.7863 13.5514 62.9975 16.5068C62.9003 16.6624 62.8031 16.7985 62.7059 16.9346C64.0086 18.2373 65.2141 19.6372 66.3419 21.1539C66.478 21.0566 66.6335 20.9789 66.7891 20.9011C69.7834 19.3845 73.5555 20.7844 75.1888 24.0121C76.8415 27.2592 75.7332 31.1285 72.7388 32.6452C72.5833 32.7229 72.4278 32.7813 72.2722 32.859C72.8361 34.6479 73.2444 36.4561 73.5361 38.2644C73.7111 38.2644 73.886 38.2644 74.061 38.2839C77.4831 38.595 80.1858 41.7254 80.1275 45.3031C80.0497 48.8807 77.2304 51.5251 73.8083 51.214C73.6333 51.1945 73.4583 51.1751 73.2833 51.1362C72.9333 52.9056 72.4278 54.6361 71.825 56.3083C71.9806 56.4055 72.1361 56.5027 72.2917 56.5999C75.2082 58.6415 76.161 62.6858 74.3721 65.6413C72.6027 68.5773 68.7918 69.2967 65.8752 67.2551C65.7197 67.1579 65.5835 67.0412 65.4474 66.9246C64.3002 68.2078 63.017 69.3939 61.6559 70.4633C61.7531 70.6189 61.8503 70.7744 61.9281 70.9494C63.5808 74.1966 62.4725 78.0658 59.4782 79.5825C56.4838 81.0991 52.7118 79.6991 51.0785 76.4715C51.0007 76.2965 50.9229 76.1409 50.8451 75.9659C49.173 76.4326 47.4619 76.7631 45.7509 76.9381C45.7703 77.1131 45.7703 77.3076 45.7703 77.4825C45.6925 81.0602 42.8732 83.7046 39.4511 83.3935C36.029 83.0824 33.3263 79.9519 33.3846 76.3742C33.3846 76.1798 33.4041 76.0048 33.4235 75.8298C31.7125 75.3437 30.0208 74.7215 28.3876 73.9632C28.3098 74.1188 28.232 74.2743 28.1348 74.4299C26.3654 77.3659 22.5544 78.0853 19.6379 76.0437C16.7213 74.0021 15.7685 69.9578 17.5574 67.0023C17.6546 66.8468 17.7518 66.7107 17.849 66.5746C16.5463 65.2718 15.3408 63.8719 14.213 62.3553C14.0575 62.4525 13.9214 62.5303 13.7658 62.608ZM51.1174 63.0941C62.0059 57.5721 65.9724 43.5337 59.9837 31.7702C53.995 19.9873 40.3261 14.9124 29.457 20.4345C18.5684 25.9565 14.6019 39.9949 20.5906 51.7584C26.5599 63.5413 40.2288 68.6162 51.1174 63.0941Z" fill="url(#paint2_linear_13522_147)"/>
<defs>
<linearGradient id="paint0_linear_13522_147" x1="33.8134" y1="-0.283361" x2="65.502" y2="135.902" gradientUnits="userSpaceOnUse">
<stop stop-color="#444B8C"/>
<stop offset="0.9964" stop-color="#26264F"/>
</linearGradient>
<linearGradient id="paint1_linear_13522_147" x1="15.1206" y1="4.06612" x2="46.8093" y2="140.252" gradientUnits="userSpaceOnUse">
<stop stop-color="#444B8C"/>
<stop offset="0.9964" stop-color="#26264F"/>
</linearGradient>
<linearGradient id="paint2_linear_13522_147" x1="8.89776" y1="81.5407" x2="123.543" y2="-63.6444" gradientUnits="userSpaceOnUse">
<stop stop-color="#826F8C"/>
<stop offset="0.9964" stop-color="#446381"/>
</linearGradient>
</defs>
</svg>
