<svg width="1440" height="773" viewBox="0 0 1440 773" fill="none" xmlns="http://www.w3.org/2000/svg">
<g clip-path="url(#clip0_13452_3106)">
<mask id="mask0_13452_3106" style="mask-type:luminance" maskUnits="userSpaceOnUse" x="0" y="0" width="1440" height="773">
<path d="M1440 0H0V773H1440V0Z" fill="white"/>
</mask>
<g mask="url(#mask0_13452_3106)">
<g filter="url(#filter0_f_13452_3106)">
<path d="M1043.37 187.651C974.218 233.781 890.482 253.778 807.107 248.64C779.25 246.921 751.015 251.274 726.245 266.591C637.073 321.787 684.262 467.492 732.438 537.186C780.613 606.881 694.43 702.529 729.941 804.804C765.452 907.079 924.975 792.351 1005.66 788.472C1052.25 786.231 1102.01 838.808 1239.91 800.86C1377.82 762.912 1459.86 673.384 1333.01 502.446C1206.14 331.507 1274.67 169.912 1146.03 148.59C1108.43 142.355 1069.63 170.125 1043.37 187.651Z" fill="url(#paint0_linear_13452_3106)"/>
</g>
<path opacity="0.3" d="M340.688 61.8456C258.737 83.7483 170.495 78.4058 90.3332 50.8561C63.545 41.6476 34.5301 37.7206 5.53207 44.5091C-98.8204 68.9384 -97.2516 211.344 -71.3912 286.504C-45.5308 361.665 -159.381 422.852 -155.923 523.462C-152.481 624.071 39.1354 566.186 119.415 584.984C165.789 595.837 198.447 656.248 345.31 660.586C492.173 664.908 600.084 608.028 528.121 421.254C456.174 234.48 572.908 109.882 453.323 55.468C418.37 39.5623 371.811 53.535 340.688 61.8456Z" fill="url(#paint1_linear_13452_3106)"/>
<path opacity="0.5" d="M825.036 344.071C746.328 367.3 661.577 361.634 584.586 332.417C558.858 322.65 530.991 318.486 503.141 325.685C402.917 351.594 404.424 502.622 429.261 582.334C454.098 662.045 344.753 726.938 348.074 833.64C351.379 940.341 535.414 878.951 612.518 898.887C657.057 910.397 688.423 974.466 829.475 979.067C970.527 983.651 1074.17 923.327 1005.05 725.243C935.952 527.159 1048.07 395.017 933.214 337.308C899.644 320.439 854.928 335.258 825.036 344.071Z" fill="url(#paint2_linear_13452_3106)"/>
<g opacity="0.5" filter="url(#filter1_f_13452_3106)">
<path d="M1179.71 136.291C1092.31 162.102 998.2 155.806 912.709 123.34C884.14 112.488 853.196 107.861 822.27 115.86C710.98 144.649 712.654 312.468 740.233 401.041C767.813 489.614 646.394 561.721 650.082 680.285C653.753 798.849 858.107 730.634 943.724 752.787C993.18 765.576 1028.01 836.768 1184.64 841.88C1341.26 846.974 1456.35 779.943 1379.6 559.838C1302.87 339.733 1427.36 192.9 1299.83 128.775C1262.55 110.031 1212.9 126.497 1179.71 136.291Z" fill="url(#paint3_linear_13452_3106)"/>
</g>
<g opacity="0.04">
<mask id="mask1_13452_3106" style="mask-type:luminance" maskUnits="userSpaceOnUse" x="713" y="460" width="541" height="309">
<g opacity="0.04">
<path d="M1254 460H713V769H1254V460Z" fill="white"/>
</g>
</mask>
<g mask="url(#mask1_13452_3106)">
<path d="M888.126 753.058L880.519 750.581L880.499 750.643L880.48 750.705L888.126 753.058ZM977.16 479.686L984.767 482.163L984.782 482.118L984.796 482.072L977.16 479.686ZM915.714 476.76L923.373 479.072L923.39 479.015L923.406 478.958L915.714 476.76ZM850.088 694.12L842.434 696.446L850.112 721.718L857.747 696.432L850.088 694.12ZM784.044 476.76L776.352 478.958L776.37 479.022L776.39 479.086L784.044 476.76ZM722.598 479.686L714.962 482.072L714.976 482.118L714.991 482.163L722.598 479.686ZM811.632 753.058L819.278 750.705L819.259 750.643L819.239 750.581L811.632 753.058ZM822.918 769H876.84V753H822.918V769ZM876.84 769C880.881 769 885.024 768.131 888.614 765.638C892.266 763.101 894.529 759.453 895.772 755.411L880.48 750.705C880.051 752.097 879.597 752.42 879.487 752.496C879.316 752.615 878.651 753 876.84 753V769ZM895.733 755.535L984.767 482.163L969.553 477.209L880.519 750.581L895.733 755.535ZM984.796 482.072C986.33 477.164 986.312 471.462 982.869 466.789C979.427 462.118 973.979 460.4 968.8 460.4V476.4C969.735 476.4 970.192 476.553 970.31 476.603C970.394 476.638 970.2 476.569 969.988 476.281C969.776 475.992 969.763 475.782 969.771 475.86C969.782 475.975 969.794 476.436 969.524 477.3L984.796 482.072ZM968.8 460.4H927V476.4H968.8V460.4ZM927 460.4C923.072 460.4 918.944 461.312 915.347 463.84C911.683 466.414 909.277 470.169 908.022 474.562L923.406 478.958C923.823 477.499 924.343 477.074 924.546 476.931C924.815 476.742 925.494 476.4 927 476.4V460.4ZM908.055 474.448L842.429 691.808L857.747 696.432L923.373 479.072L908.055 474.448ZM857.742 691.794L791.698 474.434L776.39 479.086L842.434 696.446L857.742 691.794ZM791.736 474.562C790.481 470.169 788.075 466.414 784.411 463.84C780.814 461.312 776.686 460.4 772.758 460.4V476.4C774.264 476.4 774.943 476.742 775.212 476.931C775.415 477.074 775.935 477.499 776.352 478.958L791.736 474.562ZM772.758 460.4H730.958V476.4H772.758V460.4ZM730.958 460.4C725.779 460.4 720.331 462.118 716.889 466.789C713.446 471.462 713.428 477.164 714.962 482.072L730.234 477.3C729.964 476.436 729.976 475.975 729.987 475.86C729.995 475.782 729.982 475.992 729.77 476.281C729.558 476.569 729.364 476.638 729.448 476.603C729.566 476.553 730.023 476.4 730.958 476.4V460.4ZM714.991 482.163L804.025 755.535L819.239 750.581L730.205 477.209L714.991 482.163ZM803.986 755.411C805.295 759.667 807.77 763.253 811.385 765.695C814.928 768.089 818.989 769 822.918 769V753C821.413 753 820.667 752.657 820.343 752.438C820.092 752.268 819.641 751.883 819.278 750.705L803.986 755.411ZM1242.94 748.878L1249.19 743.88L1249.16 743.847L1249.13 743.814L1242.94 748.878ZM1162.27 650.23L1158.84 643.002L1149.6 647.382L1156.07 655.294L1162.27 650.23ZM1066.54 659.844V651.844H1058.54V659.844H1066.54ZM1102.49 659.844L1108.69 654.787L1106.29 651.844H1102.49V659.844ZM1180.24 755.148L1186.71 750.443L1186.58 750.263L1186.44 750.091L1180.24 755.148ZM1066.54 522.322V514.322H1058.54V522.322H1066.54ZM1066.54 608.848H1058.54V616.848H1066.54V608.848ZM1249.13 743.814L1168.46 645.166L1156.07 655.294L1236.75 753.942L1249.13 743.814ZM1165.69 657.458C1200.89 640.763 1225.02 605.467 1225.02 565.794H1209.02C1209.02 598.853 1188.85 628.765 1158.84 643.002L1165.69 657.458ZM1225.02 565.794C1225.02 507.476 1177.99 460.4 1120.05 460.4V476.4C1169.11 476.4 1209.02 516.268 1209.02 565.794H1225.02ZM1120.05 460.4H1066.54V476.4H1120.05V460.4ZM1066.54 460.4H1018.89V476.4H1066.54V460.4ZM1018.89 460.4C1014.13 460.4 1009.39 461.871 1005.9 465.587C1002.49 469.225 1001.28 473.94 1001.28 478.432H1017.28C1017.28 476.653 1017.74 476.353 1017.56 476.542C1017.49 476.619 1017.45 476.616 1017.57 476.571C1017.71 476.517 1018.11 476.4 1018.89 476.4V460.4ZM1001.28 478.432V751.386H1017.28V478.432H1001.28ZM1001.28 751.386C1001.28 755.885 1002.49 760.619 1006.08 764.201C1009.66 767.783 1014.39 769 1018.89 769V753C1017.12 753 1017.05 752.545 1017.39 752.887C1017.73 753.23 1017.28 753.157 1017.28 751.386H1001.28ZM1018.89 769H1056.51V753H1018.89V769ZM1056.51 769C1061.09 769 1065.93 767.852 1069.6 764.29C1073.32 760.686 1074.54 755.887 1074.54 751.386H1058.54C1058.54 752.262 1058.42 752.722 1058.36 752.892C1058.32 753.025 1058.33 752.935 1058.47 752.798C1058.8 752.476 1058.62 753 1056.51 753V769ZM1074.54 751.386V659.844H1058.54V751.386H1074.54ZM1066.54 667.844H1102.49V651.844H1066.54V667.844ZM1096.29 664.901L1174.04 760.205L1186.44 750.091L1108.69 654.787L1096.29 664.901ZM1173.77 759.853C1176.12 763.089 1178.96 765.577 1182.53 767.132C1185.98 768.634 1189.5 769 1192.78 769V753C1190.62 753 1189.55 752.739 1188.92 752.465C1188.41 752.243 1187.7 751.805 1186.71 750.443L1173.77 759.853ZM1192.78 769H1237.09V753H1192.78V769ZM1237.09 769C1242.78 769 1249.36 766.938 1252.28 760.664C1255.15 754.492 1252.62 748.177 1249.19 743.88L1236.69 753.876C1237.03 754.299 1237.24 754.642 1237.37 754.889C1237.44 755.012 1237.48 755.105 1237.5 755.17C1237.53 755.234 1237.53 755.266 1237.53 755.265C1237.53 755.264 1237.5 755.123 1237.52 754.867C1237.54 754.603 1237.61 754.269 1237.78 753.916C1237.94 753.562 1238.16 753.279 1238.36 753.076C1238.57 752.879 1238.72 752.801 1238.74 752.79C1238.76 752.782 1238.65 752.836 1238.37 752.893C1238.09 752.949 1237.67 753 1237.09 753V769ZM1066.54 530.322H1120.05V514.322H1066.54V530.322ZM1120.05 530.322C1136.75 530.322 1151.76 545.327 1151.76 565.794H1167.76C1167.76 537.773 1146.82 514.322 1120.05 514.322V530.322ZM1151.76 565.794C1151.76 586.156 1136.85 600.848 1120.05 600.848V616.848C1146.72 616.848 1167.76 593.92 1167.76 565.794H1151.76ZM1120.05 600.848H1066.54V616.848H1120.05V600.848ZM1074.54 608.848V522.322H1058.54V608.848H1074.54Z" fill="#EB8382"/>
</g>
</g>
<path d="M884.717 764.193L884.713 764.205L884.71 764.217C883.95 766.685 882.761 768.359 881.212 769.435C879.652 770.518 877.574 771.1 874.857 771.1H820.935C818.446 771.1 816.353 770.526 814.721 769.424C813.103 768.331 811.83 766.645 811.083 764.217L811.079 764.205L811.076 764.193L722.047 490.839C722.046 490.836 722.045 490.833 722.044 490.83C721.094 487.784 721.464 485.505 722.554 484.025C723.646 482.543 725.727 481.5 728.975 481.5H770.775C773.265 481.5 775.345 482.074 776.967 483.213C778.576 484.343 779.862 486.121 780.619 488.772L780.622 488.784L780.626 488.796L846.67 706.156L848.11 710.895L849.541 706.154L915.167 488.794L915.171 488.783L915.174 488.772C915.931 486.121 917.217 484.343 918.826 483.213C920.447 482.074 922.527 481.5 925.017 481.5H966.817C970.065 481.5 972.146 482.543 973.238 484.025C974.329 485.505 974.698 487.783 973.748 490.829C973.747 490.833 973.747 490.836 973.746 490.839L884.717 764.193ZM1159.64 660.475L1157.91 661.296L1159.13 662.78L1239.79 761.415C1239.79 761.417 1239.79 761.419 1239.79 761.421C1242.12 764.336 1242.39 766.748 1241.69 768.258C1241 769.749 1239 771.1 1235.11 771.1H1190.8C1188.19 771.1 1186.12 770.796 1184.34 770.023C1182.59 769.26 1181.01 767.989 1179.47 765.866L1179.45 765.832L1179.42 765.8L1101.67 670.496L1101.22 669.944H1100.51H1064.56H1063.06V671.444V762.986C1063.06 765.865 1062.29 767.82 1061.01 769.067C1059.71 770.322 1057.64 771.1 1054.53 771.1H1016.91C1014.03 771.1 1012.06 770.335 1010.81 769.084C1009.56 767.832 1008.8 765.866 1008.8 762.986V490.032C1008.8 487.151 1009.56 485.057 1010.84 483.691C1012.11 482.341 1014.08 481.5 1016.91 481.5H1064.56H1118.07C1170.73 481.5 1213.54 524.296 1213.54 577.394C1213.54 613.14 1191.76 645.239 1159.64 660.475ZM1064.56 532.422H1063.06V533.922V620.448V621.948H1064.56H1118.07C1140.72 621.948 1159.28 602.366 1159.28 577.394C1159.28 552.442 1140.74 532.422 1118.07 532.422H1064.56Z" stroke="#E56B6F" stroke-opacity="0.08" stroke-width="3"/>
</g>
</g>
<defs>
<filter id="filter0_f_13452_3106" x="576" y="47.6949" width="919.998" height="899.434" filterUnits="userSpaceOnUse" color-interpolation-filters="sRGB">
<feFlood flood-opacity="0" result="BackgroundImageFix"/>
<feBlend mode="normal" in="SourceGraphic" in2="BackgroundImageFix" result="shape"/>
<feGaussianBlur stdDeviation="50" result="effect1_foregroundBlur_13452_3106"/>
</filter>
<filter id="filter1_f_13452_3106" x="550" y="11.8264" width="954.002" height="930.32" filterUnits="userSpaceOnUse" color-interpolation-filters="sRGB">
<feFlood flood-opacity="0" result="BackgroundImageFix"/>
<feBlend mode="normal" in="SourceGraphic" in2="BackgroundImageFix" result="shape"/>
<feGaussianBlur stdDeviation="50" result="effect1_foregroundBlur_13452_3106"/>
</filter>
<linearGradient id="paint0_linear_13452_3106" x1="1083.36" y1="832.172" x2="958.899" y2="179.893" gradientUnits="userSpaceOnUse">
<stop stop-color="white" stop-opacity="0"/>
<stop offset="0.9899" stop-color="#FFE0CF"/>
</linearGradient>
<linearGradient id="paint1_linear_13452_3106" x1="182.212" y1="645.227" x2="245.107" y2="30.133" gradientUnits="userSpaceOnUse">
<stop stop-color="white" stop-opacity="0"/>
<stop offset="0.9899" stop-color="#FBEDE5"/>
</linearGradient>
<linearGradient id="paint2_linear_13452_3106" x1="672.831" y1="962.779" x2="746.32" y2="311.916" gradientUnits="userSpaceOnUse">
<stop stop-color="white" stop-opacity="0"/>
<stop offset="0.9899" stop-color="#F7D8C9"/>
</linearGradient>
<linearGradient id="paint3_linear_13452_3106" x1="1010.7" y1="823.781" x2="1092.41" y2="100.573" gradientUnits="userSpaceOnUse">
<stop stop-color="white" stop-opacity="0"/>
<stop offset="0.9899" stop-color="#FBDACD"/>
</linearGradient>
<clipPath id="clip0_13452_3106">
<rect width="1440" height="773" fill="white"/>
</clipPath>
</defs>
</svg>
