<svg width="323" height="398" viewBox="0 0 323 398" fill="none" xmlns="http://www.w3.org/2000/svg">
<path opacity="0.5" d="M92.7944 384.72C135.944 362.34 207.762 322.293 260.96 288.135C314.159 253.977 339.576 227.181 308.839 209.218C273.669 188.9 207.466 212.457 148.357 251.327C83.6324 294.024 54.9645 317.581 24.5232 340.55C5.01711 355.273 15.3612 367.641 34.2762 379.419C53.4867 391.492 68.8552 397.087 92.7944 384.72Z" fill="url(#paint0_linear_13452_1677)"/>
<path d="M129.103 50.8918C135.186 50.8918 139.917 53.922 139.917 57.2888C139.917 60.9923 135.186 63.6857 129.103 63.6857C123.021 63.6857 118.29 60.6556 118.29 57.2888C118.29 53.922 123.359 50.8918 129.103 50.8918Z" fill="#002F68"/>
<path d="M129.441 50.8918C133.834 50.8918 137.552 52.9119 137.552 55.2687C137.552 57.6255 133.834 59.6456 129.441 59.6456C125.049 59.6456 121.332 57.6255 121.332 55.2687C121.332 52.9119 125.049 50.8918 129.441 50.8918Z" fill="#DF8083"/>
<path d="M129.104 62.0025C129.104 62.0025 127.076 67.726 127.076 74.7963C126.738 81.8666 127.414 93.3137 123.021 98.3639C118.628 103.751 114.573 97.0172 114.573 89.6102C114.235 82.2033 118.628 57.6256 118.628 57.6256L129.104 62.0025Z" fill="#002F68"/>
<path d="M128.09 74.7966C128.09 74.7966 126.738 73.1132 124.711 73.7866C123.359 74.1233 120.656 75.8067 119.642 75.8067C118.628 75.8067 116.263 73.7866 116.263 73.7866L117.276 67.7263C117.276 67.7263 111.194 70.0831 110.18 75.47C108.829 80.8569 106.463 81.8669 101.056 83.887C95.6498 85.9071 89.9053 89.6105 89.9053 89.6105L98.3532 103.078C98.3532 103.078 111.87 90.9573 113.221 89.6105C114.573 88.2638 119.304 83.5503 120.318 82.5403C120.994 81.5302 123.697 78.8368 124.711 78.1634C125.386 76.8167 128.09 74.7966 128.09 74.7966Z" fill="#FFC5B3"/>
<path d="M126.738 283.874C126.738 283.874 110.18 314.849 106.463 327.979C104.435 335.05 99.7047 361.311 99.7047 361.311C99.7047 361.311 102.746 357.271 107.477 355.924C110.518 355.251 114.911 354.577 117.614 358.281C122.345 364.341 123.021 368.718 115.587 375.451C112.546 378.481 106.801 383.195 102.07 387.572C96.3255 392.622 89.5672 397.672 83.8226 397.336C77.7401 396.999 73.6851 393.969 74.023 386.898C74.361 382.858 77.4022 376.461 77.4022 374.105C78.078 367.708 79.4297 327.979 82.133 303.402C83.4847 290.945 86.8639 283.874 86.8639 283.874H126.738Z" fill="#FFC5B3"/>
<path d="M57.4655 244.82C57.4655 244.82 40.9076 275.794 37.1906 288.925C35.1631 295.995 28.0668 325.623 28.0668 325.623C28.0668 325.623 37.5284 317.879 46.6522 321.246C55.1001 324.276 50.7072 330.336 43.6109 336.733C40.5697 339.764 36.1768 342.794 31.446 346.834C25.7014 351.884 24.0119 353.567 20.6327 354.577C14.8881 356.261 7.79187 355.587 8.12979 348.517C8.4677 344.477 8.80563 337.407 9.14355 335.05C9.81938 328.653 11.1711 288.925 13.8744 264.347C15.2261 251.89 18.6052 244.82 18.6052 244.82H57.4655Z" fill="#FFC5B3"/>
<path d="M87.2016 209.468C87.2016 209.468 111.869 243.81 119.304 258.287C121.669 263 128.089 273.438 128.089 278.488C128.089 284.211 126.062 290.945 126.062 290.945C126.062 290.945 111.194 303.065 99.0287 301.045C84.8362 298.689 80.4433 290.608 80.4433 290.608C80.4433 290.608 60.5063 266.367 52.0584 258.287C43.6105 250.207 29.418 233.373 24.6872 221.252C20.9701 212.162 18.2668 188.931 24.6872 181.524C31.1076 174.117 87.2016 209.468 87.2016 209.468Z" fill="url(#paint1_linear_13452_1677)"/>
<path d="M56.4515 192.971L54.7619 242.463C54.7619 242.463 53.0723 260.307 52.0585 267.041C46.314 272.764 39.8936 275.458 33.8111 274.784C20.6324 272.764 11.1707 264.011 11.1707 264.011C11.1707 264.011 -2.34586 212.499 0.357466 201.051C3.06079 189.604 12.1845 176.81 12.1845 176.81L56.4515 192.971Z" fill="url(#paint2_linear_13452_1677)"/>
<path d="M83.4845 81.8665C83.4845 81.8665 95.9874 85.2333 100.042 92.9769C104.773 101.731 109.504 116.545 105.111 131.359C100.718 146.172 90.2428 171.087 88.2153 175.8C86.5258 180.514 94.2978 188.594 92.6082 191.961C90.5807 195.328 86.5257 199.705 88.8911 201.051C91.2565 202.398 92.6082 209.805 92.6082 209.805C92.6082 209.805 60.5062 224.282 39.8933 216.202C19.6184 208.122 2.72266 191.624 2.72266 191.624C2.72266 191.624 5.08805 181.861 9.14303 176.474C13.198 171.087 9.81888 161.66 13.5359 158.966C17.253 156.273 24.3493 154.926 23.6734 150.549C22.9976 146.172 19.9563 103.751 30.0938 90.2835C40.2313 76.8163 58.8166 75.1329 58.8166 75.1329L83.4845 81.8665Z" fill="#446381"/>
<path d="M66.9268 15.8768C55.4377 17.5602 46.6519 23.6205 46.6519 30.6907C46.6519 31.0274 46.6519 31.0275 46.6519 31.3641C46.6519 32.7109 47.3278 34.0576 48.0036 35.4043C49.0173 33.7209 50.369 32.0375 52.3965 30.6907C56.1135 27.9973 61.1822 25.9772 66.9268 24.9672V15.8768Z" fill="#0E58C4"/>
<path d="M66.9268 16.2139C55.4376 17.8973 46.9897 23.9575 46.9897 31.0278C46.9897 31.3645 46.9897 31.3645 46.9897 31.7011C46.9897 33.0479 47.6656 34.3946 48.3414 35.7413C49.3551 34.0579 50.7069 32.3745 52.7344 31.0278C56.1135 28.3344 61.1822 26.3143 66.9268 25.6409V16.2139Z" fill="#37A0F5"/>
<path d="M85.1746 20.9275L115.587 38.4348C117.277 39.4449 118.966 38.4349 118.966 36.0781V23.9576C118.966 21.6008 117.614 18.9074 115.587 17.8974L85.1746 0.390007C83.485 -0.620034 81.7954 0.389996 81.7954 2.74676V14.8672C82.1333 17.224 83.485 19.9174 85.1746 20.9275Z" fill="#786D8A"/>
<path d="M114.235 40.4549L117.614 38.4348L116.6 36.078L112.545 37.7614C112.545 38.0981 114.235 40.4549 114.235 40.4549Z" fill="#7A6D8B"/>
<path d="M79.7681 2.07366L83.1472 0.0535889L84.4989 1.40029L81.4576 4.43042L79.7681 2.07366Z" fill="#806E8B"/>
<path d="M81.7957 22.9474L112.208 40.4548C113.898 41.4648 115.587 40.4548 115.587 38.098V25.9775C115.587 23.6208 114.236 20.9273 112.208 19.9173L81.7957 2.4099C80.1061 1.39986 78.4165 2.40989 78.4165 4.76666V16.8872C78.7544 19.2439 80.1061 21.9374 81.7957 22.9474Z" fill="url(#paint3_linear_13452_1677)"/>
<path d="M79.768 2.073L67.9409 8.8066L102.408 47.1881L114.235 40.4545L79.768 2.073Z" fill="#A676D4"/>
<path d="M112.208 39.4454L107.477 42.1388C106.463 42.4755 105.787 42.1388 105.787 40.7921V34.7319C105.787 33.7218 106.463 32.0384 107.477 31.7017L112.208 29.0083C113.221 28.6716 113.897 29.0083 113.897 30.355V36.4153C113.897 37.762 113.221 39.1087 112.208 39.4454Z" fill="#41A0E2"/>
<path d="M113.221 29.0089L112.883 28.671L112.545 29.0089L113.221 29.3468V29.0089Z" fill="#41A0E2"/>
<path d="M106.125 42.1398H106.801L106.125 41.8019V42.1398Z" fill="#41A0E2"/>
<path d="M111.87 39.4454L107.139 42.1388C106.125 42.4755 105.449 42.1388 105.449 40.7921V34.7319C105.449 33.7218 106.125 32.0384 107.139 31.7017L111.87 29.0083C112.883 28.6716 113.559 29.0083 113.559 30.355V36.4153C113.559 37.4253 112.883 38.772 111.87 39.4454Z" fill="white"/>
<path d="M111.532 34.395C111.532 35.7417 110.518 37.4251 109.505 38.0985C108.491 38.7719 107.477 38.0985 107.477 36.7517C107.477 35.405 108.491 33.7217 109.505 33.0483C110.856 32.0383 111.532 32.7116 111.532 34.395Z" fill="#786D8A"/>
<path d="M70.3064 29.6811L100.719 47.1884C102.408 48.1985 104.098 47.1884 104.098 44.8317V32.7112C104.098 30.3544 102.746 27.661 100.719 26.6509L70.3064 9.14355C68.6168 8.13351 66.9272 9.14354 66.9272 11.5003V23.6208C66.9272 25.9776 68.2789 28.671 70.3064 29.6811Z" fill="#002F68"/>
<path d="M97.3394 50.2187L102.746 47.1886C102.746 47.1886 100.719 43.8218 100.381 43.8218L95.9878 44.8318L97.3394 50.2187Z" fill="#002F68"/>
<path d="M62.8721 11.5008L67.9408 8.80737L69.9683 10.8274L67.6029 14.1943L62.8721 11.5008Z" fill="#002F68"/>
<path d="M66.927 23.6208V13.1837C65.9133 12.847 64.8996 12.847 64.2238 12.847C63.21 12.847 62.5342 13.8571 62.5342 15.5405V26.9876C62.5342 29.0077 63.2101 31.0278 64.8996 32.3745C65.2375 32.3745 65.9134 33.0479 66.5892 33.0479C68.9546 34.0579 75.3749 36.4147 80.4437 39.4448C83.8228 41.4649 90.9191 46.8517 94.6362 49.5452C95.9878 50.5552 97.3395 49.5452 97.3395 47.5251V46.1784L69.9684 30.3544C68.2788 28.671 66.927 25.9776 66.927 23.6208Z" fill="#002F68"/>
<path d="M95.3127 30.691C93.2852 27.9975 88.2164 22.6107 80.7823 18.5705C76.0515 15.8771 70.3069 14.1936 66.9277 13.1836V23.6207C66.9277 25.9775 68.2794 28.6709 70.3069 29.681L97.6781 45.5049V35.7412C97.6781 33.3844 96.3265 32.0377 95.3127 30.691Z" fill="#002F68"/>
<path d="M75.3747 19.2444C75.3747 18.571 75.3747 17.8977 75.7126 17.561C73.3472 16.5509 71.6577 18.2344 71.6577 21.2645C71.6577 24.6313 73.6852 28.6714 76.3885 30.0181C78.416 31.3649 80.1055 30.3548 80.7814 28.3347C80.4435 28.3347 80.4435 27.9981 80.1056 27.9981C77.4023 26.6514 75.3747 22.6112 75.3747 19.2444Z" fill="#002F68"/>
<path d="M76.0503 17.5606C75.7124 17.5606 75.7124 17.2239 75.3745 17.2239C75.3745 17.8972 75.0366 18.2339 75.0366 18.9073C75.0366 22.2741 77.0641 26.3142 79.7674 27.661C80.1053 27.661 80.1053 27.9977 80.4432 27.9977C80.4432 27.3243 80.7811 26.9876 80.7811 26.3143C80.7811 22.9475 78.7537 18.9073 76.0503 17.5606Z" fill="#41A0E2"/>
<path d="M89.5677 27.3249C89.5677 26.6516 89.5677 25.9782 89.9056 25.6415C87.5402 24.6315 85.8506 26.3149 85.8506 29.345C85.8506 32.7118 87.8781 36.752 90.5814 38.0987C92.6089 39.4455 94.2985 38.4354 94.9744 36.4153C94.6364 36.4153 94.6364 36.0786 94.2985 36.0786C91.5952 34.7319 89.5677 30.6917 89.5677 27.3249Z" fill="#002F68"/>
<path d="M90.2433 25.6412C89.9054 25.6412 89.9053 25.3046 89.5674 25.3046C89.5674 25.9779 89.2295 26.3146 89.2295 26.988C89.2295 30.3548 91.257 34.3949 93.9603 35.7416C94.2982 35.7416 94.2982 36.0783 94.6362 36.0783C94.6362 35.405 94.9741 35.0683 94.9741 34.3949C94.9741 31.3648 92.9466 27.3246 90.2433 25.6412Z" fill="#41A0E2"/>
<path d="M92.2708 20.5905L81.1196 13.857L82.4713 13.1836L93.6226 19.5805L92.2708 20.5905Z" fill="#002F68"/>
<path d="M83.4851 18.9069C77.0647 14.1934 64.2238 15.8768 58.8172 27.3239C55.776 33.7208 60.1689 50.8916 60.8447 63.012C61.5205 72.7758 58.1414 78.4994 58.1414 78.4994C58.1414 78.4994 58.1414 78.4994 66.5893 81.8661C75.0372 85.233 83.8229 81.8661 83.8229 81.8661L83.4851 67.0522C83.4851 67.0522 92.6087 65.7055 93.9604 64.3587C97.6775 60.9919 99.705 50.5549 98.0154 37.0877C95.3121 17.2235 85.8505 20.5903 83.4851 18.9069Z" fill="#FFC5B3"/>
<path d="M127.751 68.0624C127.751 68.0624 128.427 68.7357 129.103 69.7458C129.779 70.7558 129.441 71.7659 128.765 71.7659C128.427 72.1026 128.089 72.1025 128.089 72.1025C128.089 72.1025 128.765 73.4492 129.441 74.4593C129.779 75.4693 128.427 76.1427 128.089 76.1427C127.752 76.1427 129.103 77.1527 129.103 78.1628C129.103 79.1728 127.076 78.8361 127.076 78.8361C127.076 78.8361 126.4 70.7558 127.751 68.0624Z" fill="#FFC5B3"/>
<path d="M166.612 71.4293C172.694 71.4293 177.425 74.4594 177.425 77.8262C177.425 81.5297 172.694 84.2232 166.612 84.2232C160.529 84.2232 155.798 81.193 155.798 77.8262C155.798 74.1227 160.529 71.4293 166.612 71.4293Z" fill="#002F68"/>
<path d="M166.949 71.4293C171.342 71.4293 175.059 73.4494 175.059 75.8062C175.059 78.1629 171.342 80.183 166.949 80.183C162.556 80.183 158.839 78.1629 158.839 75.8062C158.839 73.1127 162.556 71.4293 166.949 71.4293Z" fill="#DD8084"/>
<path d="M166.611 82.2033C166.611 82.2033 164.584 87.9268 164.584 94.9971C164.246 102.067 164.922 113.515 160.529 118.565C156.136 123.952 152.081 117.218 152.081 109.811C151.743 102.404 156.136 77.8264 156.136 77.8264L166.611 82.2033Z" fill="#002F68"/>
<path d="M94.2978 89.2734C101.394 89.9468 115.249 117.218 121.669 130.685C126.4 126.308 135.861 118.228 146.675 111.158C149.716 109.138 147.351 96.007 153.433 92.3035C153.771 96.007 157.15 96.007 159.178 95.6703C163.233 95.3336 164.584 94.3236 164.584 91.6302C165.598 91.2935 166.95 91.2935 168.301 92.6402C169.653 92.3035 172.356 94.3236 171.681 96.3437C174.384 98.3638 173.708 103.414 172.018 105.771C168.301 110.821 160.867 116.208 156.474 121.931C152.419 127.318 131.469 155.263 116.938 159.64C115.924 159.303 111.869 159.303 109.166 156.609C99.7045 147.182 85.5121 123.278 84.8362 109.138C84.1604 97.6904 89.2291 88.6001 94.2978 89.2734Z" fill="#FFC5B3"/>
<path d="M91.5944 42.4751C92.6082 39.1083 94.9736 31.3647 95.3115 28.3345C95.9874 24.631 96.3252 19.2442 91.2565 14.194C86.1878 9.14377 68.9541 7.46037 62.8716 10.8272C56.7891 14.5307 43.2725 20.9276 48.0033 42.4751C51.7204 59.6458 55.4374 61.6659 60.5062 65.706C65.237 69.4095 73.0091 70.0829 73.0091 70.0829C73.0091 70.0829 77.402 66.7161 78.4157 60.3191C78.7537 58.2991 78.4157 51.9021 78.4157 51.9021C78.4157 51.9021 73.6849 42.8118 77.4019 39.7817C81.119 36.4149 85.174 41.8017 85.8498 44.1585C88.8911 51.9021 87.5394 66.3794 87.5394 66.3794C87.5394 66.3794 92.2703 69.4095 96.6632 68.0628C99.0286 67.3894 97.0011 57.6257 97.0011 57.6257C97.0011 57.6257 92.2703 55.2689 91.5944 42.4751Z" fill="#002F68"/>
<path d="M101.732 34.3945L99.7041 35.4046V47.525L101.732 46.515V34.3945Z" fill="#EB8382"/>
<path d="M99.7046 35.4049L99.3667 35.0682V46.852L99.7046 47.5254V35.4049Z" fill="#C37A87"/>
<path d="M99.3667 35.0684L99.7046 35.4051L101.732 34.3951L101.056 34.0583L99.3667 35.0684Z" fill="white"/>
<path d="M100.719 35.7413C99.705 36.4146 97.6776 38.4347 97.0018 39.1081C92.271 43.1482 83.823 45.8417 74.6993 45.8417C65.2377 45.8417 57.1277 43.1482 52.3969 39.1081C51.0452 37.7613 49.6935 36.4146 49.0177 35.0679C48.3419 33.7212 48.004 31.3644 47.6661 30.0177L47.3281 32.3745L47.6661 39.1081C47.6661 39.4447 47.6661 39.4448 47.6661 39.7815C47.6661 48.1985 59.831 54.9321 74.6993 54.9321C85.5126 54.9321 94.9742 51.2286 99.3671 46.1784L101.395 35.7413H100.719Z" fill="#C37A87"/>
<path d="M101.056 35.7411C100.38 36.4144 98.0151 38.7712 97.0014 39.4446C91.9326 43.4847 83.8226 46.1782 74.023 46.1782C64.5614 46.1782 56.1135 43.4847 51.0448 39.4446C49.3552 38.0978 48.3415 36.7511 47.3277 35.4044C46.6519 34.0577 46.314 32.711 45.9761 31.3643V39.4446C45.9761 39.7812 45.9761 39.7812 45.9761 40.1179C45.9761 48.5349 58.4789 55.6052 73.6851 55.6052C83.1467 55.6052 91.5947 52.9118 96.6634 48.8716C97.3393 48.1983 99.7047 46.1782 100.381 45.5048V35.7411H101.056Z" fill="url(#paint4_linear_13452_1677)"/>
<path d="M78.0779 6.78763C74.6987 4.43087 70.3058 4.43086 65.575 7.46098C57.8029 11.8378 49.693 23.6216 48.0034 36.0788C49.693 40.7923 55.7754 42.8124 56.7891 42.139C58.1408 30.0186 65.2371 18.5714 74.0229 13.1845C74.0229 13.1845 74.3608 13.1845 74.3608 12.8479C76.7262 11.5011 79.0916 10.8278 81.1191 10.8278C82.1329 10.8278 83.1466 10.8278 83.8224 10.8278C84.8362 10.8278 85.512 11.1645 85.512 11.1645L78.0779 6.78763Z" fill="#C37A87"/>
<path d="M78.4159 6.44993C74.3609 4.42985 70.3058 4.09319 65.2371 6.78663C57.465 11.1635 49.3551 22.9473 47.6655 35.4044C49.0172 40.4546 54.7618 42.138 56.1134 42.8114C57.803 29.6809 65.2371 17.8971 74.0229 12.5102C74.0229 12.5102 74.3608 12.5102 74.3608 12.1735C76.7263 10.8268 79.0917 10.1534 81.1192 10.1534C82.8087 10.1534 84.4983 10.4901 85.85 11.1635L78.4159 6.44993Z" fill="url(#paint5_linear_13452_1677)"/>
<path d="M61.5201 224.955C62.8718 228.322 65.2372 235.393 67.6026 238.423C70.9817 242.799 62.8717 243.809 57.4651 244.82C51.7205 245.493 42.2589 238.759 38.8797 233.036C35.8385 227.312 34.8247 218.895 34.8247 218.558C43.2726 223.945 51.7206 227.312 61.5201 224.955Z" fill="url(#paint6_linear_13452_1677)"/>
<path d="M20.9701 216.538C21.3081 218.558 21.9838 222.262 22.9975 225.965C24.6871 231.689 21.308 236.066 16.2392 232.026C11.1705 228.322 6.10178 221.925 4.75012 216.538C3.73637 212.835 3.06057 205.765 2.72266 203.071C7.45348 208.795 13.536 213.172 20.9701 216.538Z" fill="url(#paint7_linear_13452_1677)"/>
<defs>
<linearGradient id="paint0_linear_13452_1677" x1="239.602" y1="169.324" x2="97.6407" y2="416.111" gradientUnits="userSpaceOnUse">
<stop stop-color="#DFB8BF"/>
<stop offset="0.9617" stop-color="#EB8382"/>
</linearGradient>
<linearGradient id="paint1_linear_13452_1677" x1="32.7391" y1="207.073" x2="104.365" y2="210.193" gradientUnits="userSpaceOnUse">
<stop stop-color="#4499D9"/>
<stop offset="1" stop-color="#6E6CC1"/>
</linearGradient>
<linearGradient id="paint2_linear_13452_1677" x1="6.27239" y1="198.387" x2="44.0079" y2="199.453" gradientUnits="userSpaceOnUse">
<stop stop-color="#4499D9"/>
<stop offset="1" stop-color="#6E6CC1"/>
</linearGradient>
<linearGradient id="paint3_linear_13452_1677" x1="97.0019" y1="2.0199" x2="97.0019" y2="40.8448" gradientUnits="userSpaceOnUse">
<stop stop-color="#6379E3"/>
<stop offset="1" stop-color="#D574C9"/>
</linearGradient>
<linearGradient id="paint4_linear_13452_1677" x1="73.5162" y1="31.3643" x2="73.5162" y2="55.6052" gradientUnits="userSpaceOnUse">
<stop stop-color="#EB8382"/>
<stop offset="1" stop-color="#EB8382" stop-opacity="0"/>
</linearGradient>
<linearGradient id="paint5_linear_13452_1677" x1="66.7577" y1="4.85071" x2="66.7577" y2="42.8114" gradientUnits="userSpaceOnUse">
<stop stop-color="#EB8382"/>
<stop offset="1" stop-color="#EB8382" stop-opacity="0"/>
</linearGradient>
<linearGradient id="paint6_linear_13452_1677" x1="38.5554" y1="224.346" x2="60.9298" y2="225.747" gradientUnits="userSpaceOnUse">
<stop stop-color="#4499D9"/>
<stop offset="1" stop-color="#6E6CC1"/>
</linearGradient>
<linearGradient id="paint7_linear_13452_1677" x1="5.02426" y1="209.787" x2="18.8667" y2="210.248" gradientUnits="userSpaceOnUse">
<stop stop-color="#4499D9"/>
<stop offset="1" stop-color="#6E6CC1"/>
</linearGradient>
</defs>
</svg>
