<svg width="18" height="18" viewBox="0 0 18 18" fill="none" xmlns="http://www.w3.org/2000/svg">
<path fill-rule="evenodd" clip-rule="evenodd" d="M15.1456 4.17006C15.1995 4.22383 15.2422 4.28771 15.2714 4.35804C15.3006 4.42837 15.3156 4.50376 15.3156 4.5799C15.3156 4.65604 15.3006 4.73143 15.2714 4.80176C15.2422 4.87208 15.1995 4.93596 15.1456 4.98973L7.04148 13.0938C6.9877 13.1477 6.92383 13.1905 6.8535 13.2197C6.78317 13.2489 6.70778 13.2639 6.63164 13.2639C6.5555 13.2639 6.48011 13.2489 6.40978 13.2197C6.33945 13.1905 6.27558 13.1477 6.2218 13.0938L2.16976 9.04178C2.06106 8.93308 2 8.78566 2 8.63194C2 8.47822 2.06106 8.3308 2.16976 8.22211C2.27845 8.11341 2.42588 8.05235 2.57959 8.05235C2.73331 8.05235 2.88074 8.11341 2.98943 8.22211L6.63164 11.8655L14.3259 4.17006C14.3797 4.11616 14.4435 4.07339 14.5139 4.0442C14.5842 4.01502 14.6596 4 14.7357 4C14.8119 4 14.8873 4.01502 14.9576 4.0442C15.0279 4.07339 15.0918 4.11616 15.1456 4.17006V4.17006Z" fill="#486482"/>
</svg>
