<svg width="252" height="135" viewBox="0 0 252 135" fill="none" xmlns="http://www.w3.org/2000/svg">
<g filter="url(#filter0_d_13452_1678)">
<rect opacity="0.4" x="20" y="10" width="211.488" height="95" rx="10" fill="white"/>
<path d="M168.184 42.7387L152.67 41.6035C179.861 34.8463 199.375 32.4138 205.916 33.1165C212.457 33.8193 219.701 37.8735 220.241 45.4415C220.782 53.0095 220.62 57.8747 220.62 57.8747C219.214 63.5507 204.673 70.0916 204.673 70.0916C204.673 70.0916 200.565 63.1723 200.456 58.9558C200.348 54.7394 201.159 51.7662 201.159 51.7662C204.186 50.5229 210.457 48.7931 212.079 45.3875C216.511 36.0897 194.402 38.7385 190.834 39.1169C183.266 39.9277 175.644 41.0629 168.184 42.7387Z" fill="url(#paint0_linear_13452_1678)"/>
<path d="M136.67 52.1452C137.643 49.2802 139.318 46.5773 142.021 45.4421C142.021 45.4421 142.075 45.4421 142.075 45.3881L155.157 39.6039C155.968 39.1715 156.887 38.9012 157.86 38.7931C164.401 38.1985 171.536 39.8202 178.294 40.9013C178.51 40.9554 178.726 40.9554 178.942 41.0094C179.158 41.0635 179.375 41.1176 179.591 41.1716C186.402 42.6852 193.484 43.8204 200.133 46.9557C204.133 48.8477 206.619 53.1182 207.971 57.1185C210.187 63.8756 209.106 71.4436 204.295 74.4708H204.241C203.592 74.8492 202.944 75.1735 202.187 75.3898L189.97 81.0117C188.294 81.8766 186.294 82.2009 183.861 81.8766C176.185 80.8495 165.914 78.7413 165.914 78.7413C165.914 78.7413 155.698 76.9033 147.968 75.0113C137.589 72.3625 133.967 60.2538 136.67 52.1452Z" fill="url(#paint1_linear_13452_1678)"/>
<path d="M136.669 52.1444C137.859 48.6307 140.183 45.2791 144.183 44.9008C150.724 44.3061 157.86 45.9278 164.617 47.009C164.833 47.063 165.049 47.063 165.266 47.1171C165.482 47.1712 165.698 47.2252 165.914 47.2793C172.725 48.7929 179.807 49.9281 186.456 53.0634C190.456 54.9554 192.943 59.2259 194.294 63.2261C197.321 72.4158 194.186 83.2272 183.807 81.8218C176.131 80.7947 165.86 78.6864 165.86 78.6864C165.86 78.6864 155.643 76.8485 147.913 74.9565C137.588 72.3618 133.967 60.253 136.669 52.1444Z" fill="url(#paint2_linear_13452_1678)"/>
<path d="M139.101 53.4422C140.182 50.3069 142.291 47.3337 145.912 47.0094C151.859 46.5229 158.346 47.9283 164.508 48.9014C164.724 48.9554 164.886 48.9554 165.103 49.0095C165.319 49.0636 165.481 49.1176 165.697 49.1176C171.86 50.469 178.347 51.4961 184.347 54.253C188.023 55.9288 190.239 59.7128 191.483 63.2806C194.24 71.4432 191.374 81.0113 181.969 79.822C174.995 78.9031 165.697 77.0111 165.697 77.0111C165.697 77.0111 156.4 75.3893 149.372 73.6595C139.912 71.3351 136.669 60.6318 139.101 53.4422Z" fill="url(#paint3_linear_13452_1678)"/>
<path d="M166.346 44.3067L171.968 42.4147C172.184 42.3607 172.455 42.3066 172.725 42.4147L183.05 44.6851C183.428 44.7392 183.59 45.2257 183.266 45.3338L177.644 47.2258C177.428 47.2799 177.158 47.3339 176.887 47.2258L166.562 44.9554C166.238 44.9013 166.022 44.4148 166.346 44.3067Z" fill="url(#paint4_linear_13452_1678)"/>
<path d="M164.509 48.9009C164.725 48.9549 164.887 48.9549 165.104 49.009C165.32 49.063 165.482 49.1171 165.698 49.1171L177.915 79.2269C172.617 78.4161 167.212 77.3349 165.914 77.0646L153.752 47.2251C157.373 47.6576 160.995 48.3603 164.509 48.9009Z" fill="url(#paint5_linear_13452_1678)"/>
<path d="M177.104 51.6581L188.132 78.6866C186.51 79.6596 184.51 80.1462 181.969 79.8218C181.807 79.8218 181.591 79.7677 181.375 79.7677L169.212 49.9282C171.861 50.4147 174.509 50.9553 177.104 51.6581Z" fill="url(#paint6_linear_13452_1678)"/>
<path d="M40.9309 31.7013C40.6775 31.568 40.4042 31.4546 40.1109 31.3613C39.8175 31.268 39.5342 31.2213 39.2609 31.2213C38.8875 31.2213 38.5909 31.308 38.3709 31.4813C38.1509 31.648 38.0409 31.878 38.0409 32.1713C38.0409 32.378 38.1142 32.558 38.2609 32.7113C38.4075 32.8646 38.5975 32.998 38.8309 33.1113C39.0642 33.2246 39.3109 33.3313 39.5709 33.4313C39.7909 33.5113 40.0075 33.608 40.2209 33.7213C40.4409 33.828 40.6375 33.9613 40.8109 34.1213C40.9909 34.2813 41.1309 34.4813 41.2309 34.7213C41.3375 34.9546 41.3909 35.2413 41.3909 35.5813C41.3909 35.968 41.2942 36.318 41.1009 36.6313C40.9142 36.9446 40.6409 37.1946 40.2809 37.3813C39.9275 37.5613 39.4975 37.6513 38.9909 37.6513C38.6842 37.6513 38.3842 37.618 38.0909 37.5513C37.8042 37.478 37.5309 37.3846 37.2709 37.2713C37.0175 37.1513 36.7875 37.0213 36.5809 36.8813L37.0609 36.0513C37.2209 36.1646 37.4042 36.2746 37.6109 36.3813C37.8175 36.4813 38.0309 36.5613 38.2509 36.6213C38.4775 36.6813 38.6909 36.7113 38.8909 36.7113C39.1109 36.7113 39.3275 36.6746 39.5409 36.6013C39.7542 36.5213 39.9309 36.4013 40.0709 36.2413C40.2109 36.0746 40.2809 35.858 40.2809 35.5913C40.2809 35.3646 40.2175 35.1746 40.0909 35.0213C39.9709 34.8613 39.8075 34.7246 39.6009 34.6113C39.4009 34.498 39.1842 34.398 38.9509 34.3113C38.7242 34.2246 38.4942 34.128 38.2609 34.0213C38.0275 33.9146 37.8109 33.788 37.6109 33.6413C37.4109 33.488 37.2475 33.3013 37.1209 33.0813C37.0009 32.8546 36.9409 32.578 36.9409 32.2513C36.9409 31.8646 37.0309 31.528 37.2109 31.2413C37.3975 30.948 37.6542 30.718 37.9809 30.5513C38.3075 30.3846 38.6842 30.2913 39.1109 30.2713C39.5975 30.2713 40.0209 30.3313 40.3809 30.4513C40.7409 30.5713 41.0609 30.7146 41.3409 30.8813L40.9309 31.7013ZM42.3812 35.4313C42.3812 35.0113 42.4812 34.6346 42.6812 34.3013C42.8812 33.9613 43.1578 33.6946 43.5112 33.5013C43.8645 33.308 44.2678 33.2113 44.7212 33.2113C45.1812 33.2113 45.5845 33.308 45.9312 33.5013C46.2778 33.6946 46.5445 33.9613 46.7312 34.3013C46.9245 34.6346 47.0212 35.0113 47.0212 35.4313C47.0212 35.8513 46.9245 36.2313 46.7312 36.5713C46.5445 36.9113 46.2778 37.1813 45.9312 37.3813C45.5845 37.5746 45.1778 37.6713 44.7112 37.6713C44.2645 37.6713 43.8645 37.5813 43.5112 37.4013C43.1645 37.2213 42.8878 36.9646 42.6812 36.6313C42.4812 36.2913 42.3812 35.8913 42.3812 35.4313ZM43.4212 35.4413C43.4212 35.7013 43.4778 35.938 43.5912 36.1513C43.7045 36.358 43.8578 36.5246 44.0512 36.6513C44.2445 36.7713 44.4612 36.8313 44.7012 36.8313C44.9478 36.8313 45.1678 36.7713 45.3612 36.6513C45.5545 36.5246 45.7045 36.358 45.8112 36.1513C45.9245 35.938 45.9812 35.7013 45.9812 35.4413C45.9812 35.1813 45.9245 34.948 45.8112 34.7413C45.7045 34.5346 45.5545 34.368 45.3612 34.2413C45.1678 34.1146 44.9478 34.0513 44.7012 34.0513C44.4545 34.0513 44.2345 34.1146 44.0412 34.2413C43.8478 34.368 43.6945 34.538 43.5812 34.7513C43.4745 34.958 43.4212 35.188 43.4212 35.4413ZM49.1592 33.3813L49.2492 34.3413L49.2092 34.2113C49.3492 33.9113 49.5659 33.6713 49.8592 33.4913C50.1526 33.3046 50.4992 33.2113 50.8992 33.2113C51.2926 33.2113 51.6159 33.328 51.8692 33.5613C52.1292 33.7946 52.2626 34.098 52.2692 34.4713V37.5713H51.2392V34.8313C51.2326 34.618 51.1692 34.4446 51.0492 34.3113C50.9292 34.1713 50.7426 34.098 50.4892 34.0913C50.2626 34.0913 50.0559 34.1613 49.8692 34.3013C49.6826 34.4346 49.5359 34.618 49.4292 34.8513C49.3226 35.0846 49.2692 35.3546 49.2692 35.6613V37.5713H48.2392V33.3813H49.1592ZM54.0384 39.5813L56.8084 33.3813H57.7484L55.0484 39.5813H54.0384ZM55.0984 37.6013L53.0684 33.3813H54.2284L55.8884 37.0813L55.0984 37.6013ZM62.1216 37.5713V30.3113H64.1416C64.8616 30.3113 65.4749 30.4213 65.9816 30.6413C66.4882 30.8613 66.8949 31.1513 67.2016 31.5113C67.5149 31.8713 67.7416 32.2713 67.8816 32.7113C68.0282 33.1513 68.1016 33.5946 68.1016 34.0413C68.1016 34.5813 68.0049 35.068 67.8116 35.5013C67.6182 35.9346 67.3549 36.308 67.0216 36.6213C66.6882 36.928 66.3049 37.1646 65.8716 37.3313C65.4382 37.4913 64.9782 37.5713 64.4916 37.5713H62.1216ZM63.1916 36.5413H64.2916C64.6849 36.5413 65.0449 36.4846 65.3716 36.3713C65.7049 36.258 65.9916 36.0913 66.2316 35.8713C66.4782 35.6513 66.6682 35.3813 66.8016 35.0613C66.9349 34.7413 67.0016 34.3746 67.0016 33.9613C67.0016 33.5146 66.9249 33.128 66.7716 32.8013C66.6249 32.468 66.4282 32.1946 66.1816 31.9813C65.9349 31.7613 65.6582 31.6013 65.3516 31.5013C65.0516 31.3946 64.7449 31.3413 64.4316 31.3413H63.1916V36.5413ZM70.7999 37.7413C70.4133 37.7413 70.0966 37.6246 69.8499 37.3913C69.6033 37.158 69.4733 36.858 69.4599 36.4913V33.3813H70.4899V36.1213C70.5033 36.3346 70.5633 36.5113 70.6699 36.6513C70.7833 36.7846 70.9633 36.8546 71.2099 36.8613C71.4366 36.8613 71.6366 36.7946 71.8099 36.6613C71.9899 36.5213 72.1299 36.3346 72.2299 36.1013C72.3366 35.8613 72.3899 35.588 72.3899 35.2813V33.3813H73.4199V37.5713H72.4899L72.4099 36.6013L72.4499 36.7613C72.3633 36.948 72.2399 37.118 72.0799 37.2713C71.9199 37.418 71.7299 37.5313 71.5099 37.6113C71.2899 37.698 71.0533 37.7413 70.7999 37.7413ZM76.747 37.6713C76.3537 37.6713 75.997 37.5913 75.677 37.4313C75.357 37.2646 75.1037 37.018 74.917 36.6913C74.7304 36.3646 74.637 35.9613 74.637 35.4813C74.637 35.008 74.7337 34.6013 74.927 34.2613C75.127 33.9213 75.387 33.6613 75.707 33.4813C76.0337 33.2946 76.387 33.2013 76.767 33.2013C77.167 33.2013 77.4937 33.288 77.747 33.4613C78.007 33.628 78.2104 33.8246 78.357 34.0513L78.287 34.2113L78.387 33.3813H79.337V37.5713H78.307V36.5213L78.417 36.7713C78.3904 36.8246 78.3337 36.9013 78.247 37.0013C78.1604 37.0946 78.0437 37.1946 77.897 37.3013C77.757 37.408 77.5904 37.498 77.397 37.5713C77.2104 37.638 76.9937 37.6713 76.747 37.6713ZM77.027 36.8313C77.247 36.8313 77.4437 36.7913 77.617 36.7113C77.7904 36.6313 77.937 36.518 78.057 36.3713C78.177 36.2246 78.2604 36.0513 78.307 35.8513V34.9813C78.2537 34.7946 78.1637 34.6346 78.037 34.5013C77.9104 34.3613 77.757 34.2513 77.577 34.1713C77.4037 34.0913 77.2104 34.0513 76.997 34.0513C76.757 34.0513 76.537 34.1113 76.337 34.2313C76.137 34.3446 75.977 34.5046 75.857 34.7113C75.737 34.918 75.677 35.158 75.677 35.4313C75.677 35.6913 75.737 35.928 75.857 36.1413C75.9837 36.3546 76.1504 36.5246 76.357 36.6513C76.5637 36.7713 76.787 36.8313 77.027 36.8313ZM80.915 29.8013H81.945V37.5713H80.915V29.8013ZM84.7327 37.6613C84.426 37.6613 84.1293 37.608 83.8427 37.5013C83.556 37.388 83.3193 37.2246 83.1327 37.0113L83.5727 36.4313C83.7527 36.598 83.9327 36.7246 84.1127 36.8113C84.2993 36.8913 84.476 36.9313 84.6427 36.9313C84.776 36.9313 84.896 36.918 85.0027 36.8913C85.1093 36.858 85.196 36.8046 85.2627 36.7313C85.3293 36.658 85.3627 36.5613 85.3627 36.4413C85.3627 36.3013 85.316 36.1913 85.2227 36.1113C85.1293 36.0313 85.0093 35.9646 84.8627 35.9113C84.716 35.858 84.5593 35.808 84.3927 35.7613C84.0393 35.648 83.7727 35.488 83.5927 35.2813C83.4127 35.068 83.3227 34.818 83.3227 34.5313C83.3227 34.3113 83.376 34.1046 83.4827 33.9113C83.596 33.7113 83.766 33.548 83.9927 33.4213C84.2193 33.2946 84.4993 33.2313 84.8327 33.2313C85.1393 33.2313 85.4093 33.268 85.6427 33.3413C85.876 33.408 86.0927 33.5246 86.2927 33.6913L85.8927 34.3113C85.7727 34.1913 85.6293 34.1013 85.4627 34.0413C85.3027 33.9746 85.156 33.938 85.0227 33.9313C84.9027 33.9313 84.7927 33.9513 84.6927 33.9913C84.5927 34.0246 84.5127 34.078 84.4527 34.1513C84.3927 34.218 84.3627 34.298 84.3627 34.3913C84.356 34.5246 84.3993 34.6346 84.4927 34.7213C84.5927 34.8013 84.7193 34.868 84.8727 34.9213C85.026 34.968 85.176 35.018 85.3227 35.0713C85.5293 35.1313 85.7127 35.2146 85.8727 35.3213C86.0327 35.4213 86.1593 35.5446 86.2527 35.6913C86.346 35.838 86.3927 36.0246 86.3927 36.2513C86.3927 36.498 86.3327 36.7313 86.2127 36.9513C86.0927 37.1646 85.9093 37.338 85.6627 37.4713C85.416 37.598 85.106 37.6613 84.7327 37.6613ZM87.663 37.5713V29.8013H88.663V34.3313L88.653 34.1613C88.793 33.888 89.0064 33.6613 89.293 33.4813C89.5797 33.3013 89.923 33.2113 90.323 33.2113C90.7164 33.2113 91.0397 33.328 91.293 33.5613C91.553 33.7946 91.6864 34.098 91.693 34.4713V37.5713H90.663V34.8313C90.6564 34.618 90.593 34.4446 90.473 34.3113C90.353 34.1713 90.1664 34.098 89.913 34.0913C89.6864 34.0913 89.4797 34.1613 89.293 34.3013C89.1064 34.4346 88.9597 34.6213 88.853 34.8613C88.7464 35.0946 88.693 35.3613 88.693 35.6613V37.5713H87.663ZM92.9085 35.4313C92.9085 35.0113 93.0085 34.6346 93.2085 34.3013C93.4085 33.9613 93.6852 33.6946 94.0385 33.5013C94.3918 33.308 94.7952 33.2113 95.2485 33.2113C95.7085 33.2113 96.1118 33.308 96.4585 33.5013C96.8052 33.6946 97.0718 33.9613 97.2585 34.3013C97.4518 34.6346 97.5485 35.0113 97.5485 35.4313C97.5485 35.8513 97.4518 36.2313 97.2585 36.5713C97.0718 36.9113 96.8052 37.1813 96.4585 37.3813C96.1118 37.5746 95.7052 37.6713 95.2385 37.6713C94.7918 37.6713 94.3918 37.5813 94.0385 37.4013C93.6918 37.2213 93.4152 36.9646 93.2085 36.6313C93.0085 36.2913 92.9085 35.8913 92.9085 35.4313ZM93.9485 35.4413C93.9485 35.7013 94.0052 35.938 94.1185 36.1513C94.2318 36.358 94.3852 36.5246 94.5785 36.6513C94.7718 36.7713 94.9885 36.8313 95.2285 36.8313C95.4752 36.8313 95.6952 36.7713 95.8885 36.6513C96.0818 36.5246 96.2318 36.358 96.3385 36.1513C96.4518 35.938 96.5085 35.7013 96.5085 35.4413C96.5085 35.1813 96.4518 34.948 96.3385 34.7413C96.2318 34.5346 96.0818 34.368 95.8885 34.2413C95.6952 34.1146 95.4752 34.0513 95.2285 34.0513C94.9818 34.0513 94.7618 34.1146 94.5685 34.2413C94.3752 34.368 94.2218 34.538 94.1085 34.7513C94.0018 34.958 93.9485 35.188 93.9485 35.4413ZM102.197 37.1813C102.01 37.3346 101.783 37.4546 101.517 37.5413C101.257 37.628 100.993 37.6713 100.727 37.6713C100.267 37.6713 99.8599 37.5813 99.5066 37.4013C99.1599 37.2213 98.8899 36.968 98.6966 36.6413C98.5032 36.3146 98.4066 35.9246 98.4066 35.4713C98.4066 35.0246 98.5099 34.638 98.7166 34.3113C98.9232 33.978 99.1966 33.7246 99.5366 33.5513C99.8766 33.3713 100.237 33.2813 100.617 33.2813C100.963 33.2813 101.27 33.328 101.537 33.4213C101.803 33.5146 102.033 33.6446 102.227 33.8113L101.717 34.4813C101.603 34.388 101.46 34.3046 101.287 34.2313C101.12 34.158 100.927 34.1213 100.707 34.1213C100.473 34.1213 100.26 34.1813 100.067 34.3013C99.8732 34.4146 99.7199 34.5746 99.6066 34.7813C99.4932 34.9813 99.4366 35.2113 99.4366 35.4713C99.4366 35.718 99.4932 35.948 99.6066 36.1613C99.7266 36.368 99.8899 36.5313 100.097 36.6513C100.303 36.7713 100.54 36.8313 100.807 36.8313C100.98 36.8313 101.14 36.808 101.287 36.7613C101.433 36.708 101.563 36.6346 101.677 36.5413L102.197 37.1813ZM103.376 37.5713V29.8013H104.406V37.5713H103.376ZM105.426 34.7713L107.346 37.5713H106.146L104.746 35.3613L105.426 34.7713ZM104.086 36.2813L103.986 35.2913L106.526 33.2913L107.156 33.8413L104.086 36.2813ZM110.968 36.0113V36.0013L115.028 30.9013H115.038V35.1913H115.878V36.0113H115.038V37.5713H113.968V36.0113H110.968ZM114.028 33.2913L112.528 35.2413L112.378 35.1913H113.968V33.1313L114.028 33.2913ZM36.5209 42.3513H37.7609L39.6409 47.6913L39.4609 47.6213L40.8809 43.9713L41.3709 45.4213L39.4109 49.9113L36.5209 42.3513ZM40.0409 42.3513H41.1009L43.1609 47.6013L42.9509 47.5613L44.7109 42.3513H45.8509L43.0109 49.8913L40.0409 42.3513ZM46.9111 45.3813H47.9411V49.5713H46.9111V45.3813ZM46.8511 43.8813C46.8511 43.7213 46.9144 43.588 47.0411 43.4813C47.1678 43.3746 47.3044 43.3213 47.4511 43.3213C47.6044 43.3213 47.7411 43.3746 47.8611 43.4813C47.9811 43.588 48.0411 43.7213 48.0411 43.8813C48.0411 44.0413 47.9811 44.1746 47.8611 44.2813C47.7411 44.3813 47.6044 44.4313 47.4511 44.4313C47.3044 44.4313 47.1678 44.3813 47.0411 44.2813C46.9144 44.1746 46.8511 44.0413 46.8511 43.8813ZM50.4288 45.3813L50.5288 46.5813L50.4788 46.4213C50.5921 46.168 50.7521 45.9513 50.9588 45.7713C51.1654 45.5913 51.3788 45.4546 51.5988 45.3613C51.8254 45.2613 52.0154 45.2113 52.1688 45.2113L52.1188 46.2313C51.7988 46.2113 51.5188 46.2713 51.2788 46.4113C51.0454 46.5513 50.8621 46.738 50.7288 46.9713C50.5954 47.2046 50.5288 47.4546 50.5288 47.7213V49.5713H49.5088V45.3813H50.4288ZM55.1311 49.6713C54.6444 49.6713 54.2278 49.578 53.8811 49.3913C53.5344 49.198 53.2678 48.9346 53.0811 48.6013C52.8944 48.2613 52.8011 47.8746 52.8011 47.4413C52.8011 47.028 52.9044 46.6546 53.1111 46.3213C53.3244 45.9813 53.6078 45.7113 53.9611 45.5113C54.3211 45.3113 54.7178 45.2113 55.1511 45.2113C55.7111 45.2113 56.1744 45.3746 56.5411 45.7013C56.9144 46.028 57.1644 46.4846 57.2911 47.0713L53.8811 48.2513L53.6411 47.6513L56.3711 46.6713L56.1611 46.8013C56.0811 46.5946 55.9544 46.4146 55.7811 46.2613C55.6078 46.1013 55.3711 46.0213 55.0711 46.0213C54.8311 46.0213 54.6144 46.0813 54.4211 46.2013C54.2344 46.3146 54.0844 46.4746 53.9711 46.6813C53.8644 46.8813 53.8111 47.118 53.8111 47.3913C53.8111 47.6713 53.8678 47.918 53.9811 48.1313C54.1011 48.338 54.2611 48.5013 54.4611 48.6213C54.6678 48.7413 54.8978 48.8013 55.1511 48.8013C55.3311 48.8013 55.5011 48.768 55.6611 48.7013C55.8278 48.6346 55.9844 48.5513 56.1311 48.4513L56.6011 49.2113C56.3811 49.3513 56.1411 49.4646 55.8811 49.5513C55.6278 49.6313 55.3778 49.6713 55.1311 49.6713ZM58.4345 41.8013H59.4645V49.5713H58.4345V41.8013ZM63.0022 49.6713C62.5155 49.6713 62.0989 49.578 61.7522 49.3913C61.4055 49.198 61.1389 48.9346 60.9522 48.6013C60.7655 48.2613 60.6722 47.8746 60.6722 47.4413C60.6722 47.028 60.7755 46.6546 60.9822 46.3213C61.1955 45.9813 61.4789 45.7113 61.8322 45.5113C62.1922 45.3113 62.5889 45.2113 63.0222 45.2113C63.5822 45.2113 64.0455 45.3746 64.4122 45.7013C64.7855 46.028 65.0355 46.4846 65.1622 47.0713L61.7522 48.2513L61.5122 47.6513L64.2422 46.6713L64.0322 46.8013C63.9522 46.5946 63.8255 46.4146 63.6522 46.2613C63.4789 46.1013 63.2422 46.0213 62.9422 46.0213C62.7022 46.0213 62.4855 46.0813 62.2922 46.2013C62.1055 46.3146 61.9555 46.4746 61.8422 46.6813C61.7355 46.8813 61.6822 47.118 61.6822 47.3913C61.6822 47.6713 61.7389 47.918 61.8522 48.1313C61.9722 48.338 62.1322 48.5013 62.3322 48.6213C62.5389 48.7413 62.7689 48.8013 63.0222 48.8013C63.2022 48.8013 63.3722 48.768 63.5322 48.7013C63.6989 48.6346 63.8555 48.5513 64.0022 48.4513L64.4722 49.2113C64.2522 49.3513 64.0122 49.4646 63.7522 49.5513C63.4989 49.6313 63.2489 49.6713 63.0022 49.6713ZM67.5256 49.6613C67.219 49.6613 66.9223 49.608 66.6356 49.5013C66.349 49.388 66.1123 49.2246 65.9256 49.0113L66.3656 48.4313C66.5456 48.598 66.7256 48.7246 66.9056 48.8113C67.0923 48.8913 67.269 48.9313 67.4356 48.9313C67.569 48.9313 67.689 48.918 67.7956 48.8913C67.9023 48.858 67.989 48.8046 68.0556 48.7313C68.1223 48.658 68.1556 48.5613 68.1556 48.4413C68.1556 48.3013 68.109 48.1913 68.0156 48.1113C67.9223 48.0313 67.8023 47.9646 67.6556 47.9113C67.509 47.858 67.3523 47.808 67.1856 47.7613C66.8323 47.648 66.5656 47.488 66.3856 47.2813C66.2056 47.068 66.1156 46.818 66.1156 46.5313C66.1156 46.3113 66.169 46.1046 66.2756 45.9113C66.389 45.7113 66.559 45.548 66.7856 45.4213C67.0123 45.2946 67.2923 45.2313 67.6256 45.2313C67.9323 45.2313 68.2023 45.268 68.4356 45.3413C68.669 45.408 68.8856 45.5246 69.0856 45.6913L68.6856 46.3113C68.5656 46.1913 68.4223 46.1013 68.2556 46.0413C68.0956 45.9746 67.949 45.938 67.8156 45.9313C67.6956 45.9313 67.5856 45.9513 67.4856 45.9913C67.3856 46.0246 67.3056 46.078 67.2456 46.1513C67.1856 46.218 67.1556 46.298 67.1556 46.3913C67.149 46.5246 67.1923 46.6346 67.2856 46.7213C67.3856 46.8013 67.5123 46.868 67.6656 46.9213C67.819 46.968 67.969 47.018 68.1156 47.0713C68.3223 47.1313 68.5056 47.2146 68.6656 47.3213C68.8256 47.4213 68.9523 47.5446 69.0456 47.6913C69.139 47.838 69.1856 48.0246 69.1856 48.2513C69.1856 48.498 69.1256 48.7313 69.0056 48.9513C68.8856 49.1646 68.7023 49.338 68.4556 49.4713C68.209 49.598 67.899 49.6613 67.5256 49.6613ZM71.676 49.6613C71.3693 49.6613 71.0727 49.608 70.786 49.5013C70.4993 49.388 70.2627 49.2246 70.076 49.0113L70.516 48.4313C70.696 48.598 70.876 48.7246 71.056 48.8113C71.2427 48.8913 71.4193 48.9313 71.586 48.9313C71.7193 48.9313 71.8393 48.918 71.946 48.8913C72.0527 48.858 72.1393 48.8046 72.206 48.7313C72.2727 48.658 72.306 48.5613 72.306 48.4413C72.306 48.3013 72.2593 48.1913 72.166 48.1113C72.0727 48.0313 71.9527 47.9646 71.806 47.9113C71.6593 47.858 71.5027 47.808 71.336 47.7613C70.9827 47.648 70.716 47.488 70.536 47.2813C70.356 47.068 70.266 46.818 70.266 46.5313C70.266 46.3113 70.3193 46.1046 70.426 45.9113C70.5393 45.7113 70.7093 45.548 70.936 45.4213C71.1627 45.2946 71.4427 45.2313 71.776 45.2313C72.0827 45.2313 72.3527 45.268 72.586 45.3413C72.8193 45.408 73.036 45.5246 73.236 45.6913L72.836 46.3113C72.716 46.1913 72.5727 46.1013 72.406 46.0413C72.246 45.9746 72.0993 45.938 71.966 45.9313C71.846 45.9313 71.736 45.9513 71.636 45.9913C71.536 46.0246 71.456 46.078 71.396 46.1513C71.336 46.218 71.306 46.298 71.306 46.3913C71.2993 46.5246 71.3427 46.6346 71.436 46.7213C71.536 46.8013 71.6627 46.868 71.816 46.9213C71.9693 46.968 72.1193 47.018 72.266 47.0713C72.4727 47.1313 72.656 47.2146 72.816 47.3213C72.976 47.4213 73.1027 47.5446 73.196 47.6913C73.2893 47.838 73.336 48.0246 73.336 48.2513C73.336 48.498 73.276 48.7313 73.156 48.9513C73.036 49.1646 72.8527 49.338 72.606 49.4713C72.3593 49.598 72.0493 49.6613 71.676 49.6613ZM83.37 49.0213C83.2633 49.0946 83.1033 49.1846 82.89 49.2913C82.6833 49.3913 82.4367 49.478 82.15 49.5513C81.87 49.6246 81.56 49.658 81.22 49.6513C80.6533 49.6446 80.1433 49.5446 79.69 49.3513C79.2433 49.158 78.8633 48.8946 78.55 48.5613C78.2367 48.2213 77.9933 47.8346 77.82 47.4013C77.6533 46.9613 77.57 46.4946 77.57 46.0013C77.57 45.4546 77.6567 44.9546 77.83 44.5013C78.0033 44.0413 78.25 43.6413 78.57 43.3013C78.8967 42.9613 79.2767 42.698 79.71 42.5113C80.15 42.3246 80.63 42.2313 81.15 42.2313C81.5967 42.2313 82 42.2913 82.36 42.4113C82.72 42.5313 83.0233 42.6713 83.27 42.8313L82.85 43.8313C82.6567 43.698 82.4167 43.5713 82.13 43.4513C81.85 43.3246 81.5367 43.2613 81.19 43.2613C80.85 43.2613 80.5267 43.3313 80.22 43.4713C79.92 43.6046 79.6533 43.7946 79.42 44.0413C79.1933 44.2813 79.0133 44.5646 78.88 44.8913C78.7467 45.2113 78.68 45.5613 78.68 45.9413C78.68 46.328 78.74 46.6846 78.86 47.0113C78.98 47.338 79.15 47.6213 79.37 47.8613C79.5967 48.1013 79.8667 48.288 80.18 48.4213C80.4933 48.5546 80.8467 48.6213 81.24 48.6213C81.6133 48.6213 81.94 48.5646 82.22 48.4513C82.5067 48.338 82.74 48.208 82.92 48.0613L83.37 49.0213ZM84.3831 47.4313C84.3831 47.0113 84.4831 46.6346 84.6831 46.3013C84.8831 45.9613 85.1598 45.6946 85.5131 45.5013C85.8665 45.308 86.2698 45.2113 86.7231 45.2113C87.1831 45.2113 87.5865 45.308 87.9331 45.5013C88.2798 45.6946 88.5465 45.9613 88.7331 46.3013C88.9265 46.6346 89.0231 47.0113 89.0231 47.4313C89.0231 47.8513 88.9265 48.2313 88.7331 48.5713C88.5465 48.9113 88.2798 49.1813 87.9331 49.3813C87.5865 49.5746 87.1798 49.6713 86.7131 49.6713C86.2665 49.6713 85.8665 49.5813 85.5131 49.4013C85.1665 49.2213 84.8898 48.9646 84.6831 48.6313C84.4831 48.2913 84.3831 47.8913 84.3831 47.4313ZM85.4231 47.4413C85.4231 47.7013 85.4798 47.938 85.5931 48.1513C85.7065 48.358 85.8598 48.5246 86.0531 48.6513C86.2465 48.7713 86.4631 48.8313 86.7031 48.8313C86.9498 48.8313 87.1698 48.7713 87.3631 48.6513C87.5565 48.5246 87.7065 48.358 87.8131 48.1513C87.9265 47.938 87.9831 47.7013 87.9831 47.4413C87.9831 47.1813 87.9265 46.948 87.8131 46.7413C87.7065 46.5346 87.5565 46.368 87.3631 46.2413C87.1698 46.1146 86.9498 46.0513 86.7031 46.0513C86.4565 46.0513 86.2365 46.1146 86.0431 46.2413C85.8498 46.368 85.6965 46.538 85.5831 46.7513C85.4765 46.958 85.4231 47.188 85.4231 47.4413ZM91.1612 45.3813L91.2512 46.3413L91.2112 46.2113C91.3512 45.9113 91.5678 45.6713 91.8612 45.4913C92.1545 45.3046 92.5012 45.2113 92.9012 45.2113C93.2945 45.2113 93.6178 45.328 93.8712 45.5613C94.1312 45.7946 94.2645 46.098 94.2712 46.4713V49.5713H93.2412V46.8313C93.2345 46.618 93.1712 46.4446 93.0512 46.3113C92.9312 46.1713 92.7445 46.098 92.4912 46.0913C92.2645 46.0913 92.0578 46.1613 91.8712 46.3013C91.6845 46.4346 91.5378 46.618 91.4312 46.8513C91.3245 47.0846 91.2712 47.3546 91.2712 47.6613V49.5713H90.2412V45.3813H91.1612ZM96.2466 43.5413H97.2766V45.3913H98.3966V46.2013H97.2766V49.5713H96.2466V46.2013H95.5066V45.3913H96.2466V43.5413ZM100.429 45.3813L100.529 46.5813L100.479 46.4213C100.592 46.168 100.752 45.9513 100.959 45.7713C101.165 45.5913 101.379 45.4546 101.599 45.3613C101.825 45.2613 102.015 45.2113 102.169 45.2113L102.119 46.2313C101.799 46.2113 101.519 46.2713 101.279 46.4113C101.045 46.5513 100.862 46.738 100.729 46.9713C100.595 47.2046 100.529 47.4546 100.529 47.7213V49.5713H99.5088V45.3813H100.429ZM102.801 47.4313C102.801 47.0113 102.901 46.6346 103.101 46.3013C103.301 45.9613 103.578 45.6946 103.931 45.5013C104.284 45.308 104.688 45.2113 105.141 45.2113C105.601 45.2113 106.004 45.308 106.351 45.5013C106.698 45.6946 106.964 45.9613 107.151 46.3013C107.344 46.6346 107.441 47.0113 107.441 47.4313C107.441 47.8513 107.344 48.2313 107.151 48.5713C106.964 48.9113 106.698 49.1813 106.351 49.3813C106.004 49.5746 105.598 49.6713 105.131 49.6713C104.684 49.6713 104.284 49.5813 103.931 49.4013C103.584 49.2213 103.308 48.9646 103.101 48.6313C102.901 48.2913 102.801 47.8913 102.801 47.4313ZM103.841 47.4413C103.841 47.7013 103.898 47.938 104.011 48.1513C104.124 48.358 104.278 48.5246 104.471 48.6513C104.664 48.7713 104.881 48.8313 105.121 48.8313C105.368 48.8313 105.588 48.7713 105.781 48.6513C105.974 48.5246 106.124 48.358 106.231 48.1513C106.344 47.938 106.401 47.7013 106.401 47.4413C106.401 47.1813 106.344 46.948 106.231 46.7413C106.124 46.5346 105.974 46.368 105.781 46.2413C105.588 46.1146 105.368 46.0513 105.121 46.0513C104.874 46.0513 104.654 46.1146 104.461 46.2413C104.268 46.368 104.114 46.538 104.001 46.7513C103.894 46.958 103.841 47.188 103.841 47.4413ZM108.659 41.8013H109.689V49.5713H108.659V41.8013ZM111.257 41.8013H112.287V49.5713H111.257V41.8013ZM115.824 49.6713C115.338 49.6713 114.921 49.578 114.574 49.3913C114.228 49.198 113.961 48.9346 113.774 48.6013C113.588 48.2613 113.494 47.8746 113.494 47.4413C113.494 47.028 113.598 46.6546 113.804 46.3213C114.018 45.9813 114.301 45.7113 114.654 45.5113C115.014 45.3113 115.411 45.2113 115.844 45.2113C116.404 45.2113 116.868 45.3746 117.234 45.7013C117.608 46.028 117.858 46.4846 117.984 47.0713L114.574 48.2513L114.334 47.6513L117.064 46.6713L116.854 46.8013C116.774 46.5946 116.648 46.4146 116.474 46.2613C116.301 46.1013 116.064 46.0213 115.764 46.0213C115.524 46.0213 115.308 46.0813 115.114 46.2013C114.928 46.3146 114.778 46.4746 114.664 46.6813C114.558 46.8813 114.504 47.118 114.504 47.3913C114.504 47.6713 114.561 47.918 114.674 48.1313C114.794 48.338 114.954 48.5013 115.154 48.6213C115.361 48.7413 115.591 48.8013 115.844 48.8013C116.024 48.8013 116.194 48.768 116.354 48.7013C116.521 48.6346 116.678 48.5513 116.824 48.4513L117.294 49.2113C117.074 49.3513 116.834 49.4646 116.574 49.5513C116.321 49.6313 116.071 49.6713 115.824 49.6713ZM120.048 45.3813L120.148 46.5813L120.098 46.4213C120.211 46.168 120.371 45.9513 120.578 45.7713C120.785 45.5913 120.998 45.4546 121.218 45.3613C121.445 45.2613 121.635 45.2113 121.788 45.2113L121.738 46.2313C121.418 46.2113 121.138 46.2713 120.898 46.4113C120.665 46.5513 120.481 46.738 120.348 46.9713C120.215 47.2046 120.148 47.4546 120.148 47.7213V49.5713H119.128V45.3813H120.048Z" fill="#446381"/>
<path d="M39.32 69.68V65.34L39.72 64.87V60.96H40.56V65.15L40.16 65.76V69.68H39.32ZM41.88 63.42C41.6 63.2667 41.3133 63.14 41.02 63.04C40.7333 62.94 40.4633 62.89 40.21 62.89C39.8967 62.89 39.65 62.9533 39.47 63.08C39.29 63.2067 39.2 63.3967 39.2 63.65C39.2 63.8233 39.2667 63.98 39.4 64.12C39.54 64.2533 39.7167 64.3733 39.93 64.48C40.15 64.5867 40.3767 64.6833 40.61 64.77C40.8233 64.85 41.0333 64.9467 41.24 65.06C41.4533 65.1667 41.6433 65.3033 41.81 65.47C41.9767 65.63 42.11 65.8333 42.21 66.08C42.31 66.32 42.36 66.6167 42.36 66.97C42.36 67.3433 42.2633 67.69 42.07 68.01C41.8767 68.33 41.5933 68.59 41.22 68.79C40.8467 68.9833 40.3867 69.08 39.84 69.08C39.56 69.08 39.2733 69.0533 38.98 69C38.6933 68.94 38.41 68.8533 38.13 68.74C37.85 68.62 37.58 68.47 37.32 68.29L37.96 67.16C38.1333 67.2867 38.32 67.4 38.52 67.5C38.7267 67.5933 38.9333 67.6667 39.14 67.72C39.3467 67.7733 39.5367 67.8 39.71 67.8C39.8833 67.8 40.0567 67.7767 40.23 67.73C40.41 67.6767 40.5567 67.59 40.67 67.47C40.79 67.35 40.85 67.1833 40.85 66.97C40.85 66.8233 40.8 66.69 40.7 66.57C40.6067 66.45 40.4767 66.34 40.31 66.24C40.15 66.14 39.9733 66.0533 39.78 65.98C39.5533 65.8933 39.32 65.7933 39.08 65.68C38.84 65.5667 38.6133 65.43 38.4 65.27C38.1933 65.1033 38.0233 64.9 37.89 64.66C37.7633 64.4133 37.7 64.1133 37.7 63.76C37.7 63.3333 37.7933 62.9633 37.98 62.65C38.1733 62.3367 38.4433 62.09 38.79 61.91C39.1367 61.7233 39.5367 61.62 39.99 61.6C40.5833 61.6 41.0633 61.67 41.43 61.81C41.8033 61.95 42.1367 62.1167 42.43 62.31L41.88 63.42ZM45.0938 69.08C44.7005 69.08 44.3172 69.0067 43.9438 68.86C43.5705 68.7133 43.2805 68.5367 43.0738 68.33L43.8238 67.17C43.9438 67.3167 44.1138 67.44 44.3338 67.54C44.5605 67.6333 44.7772 67.68 44.9838 67.68C45.1372 67.68 45.2805 67.6467 45.4138 67.58C45.5472 67.5133 45.6538 67.4133 45.7338 67.28C45.8138 67.1467 45.8538 66.9833 45.8538 66.79C45.8538 66.5767 45.8105 66.39 45.7238 66.23C45.6438 66.07 45.5238 65.9467 45.3638 65.86C45.2105 65.7667 45.0272 65.72 44.8138 65.72C44.6072 65.72 44.4105 65.75 44.2238 65.81C44.0372 65.8633 43.8172 65.9567 43.5638 66.09H43.5538V62.37H46.8638V63.77H44.8038V64.84L44.6338 64.54C44.7272 64.5267 44.8172 64.5167 44.9038 64.51C44.9905 64.5033 45.0772 64.5 45.1638 64.5C45.6305 64.5 46.0238 64.6033 46.3438 64.81C46.6705 65.0167 46.9205 65.29 47.0938 65.63C47.2672 65.97 47.3538 66.34 47.3538 66.74C47.3538 67.18 47.2538 67.5767 47.0538 67.93C46.8538 68.2833 46.5805 68.5633 46.2338 68.77C45.8938 68.9767 45.5138 69.08 45.0938 69.08ZM50.9896 69.01C50.6096 69.01 50.2496 68.9433 49.9096 68.81C49.5763 68.6767 49.2796 68.4733 49.0196 68.2C48.7663 67.92 48.5663 67.57 48.4196 67.15C48.2729 66.7233 48.1996 66.2233 48.1996 65.65C48.1996 65.01 48.2696 64.4767 48.4096 64.05C48.5496 63.6167 48.7429 63.27 48.9896 63.01C49.2429 62.75 49.5396 62.5667 49.8796 62.46C50.2196 62.3467 50.5896 62.29 50.9896 62.29C51.3696 62.29 51.7263 62.3567 52.0596 62.49C52.3996 62.6233 52.6963 62.83 52.9496 63.11C53.2096 63.3833 53.4129 63.7333 53.5596 64.16C53.7063 64.58 53.7796 65.0767 53.7796 65.65C53.7796 66.2433 53.7063 66.7533 53.5596 67.18C53.4129 67.6067 53.2096 67.9567 52.9496 68.23C52.6896 68.4967 52.3929 68.6933 52.0596 68.82C51.7263 68.9467 51.3696 69.01 50.9896 69.01ZM50.9796 67.62C51.3129 67.62 51.5729 67.5333 51.7596 67.36C51.9463 67.18 52.0763 66.9367 52.1496 66.63C52.2296 66.3233 52.2696 65.9833 52.2696 65.61C52.2696 65.2433 52.2296 64.9167 52.1496 64.63C52.0763 64.3433 51.9463 64.1167 51.7596 63.95C51.5729 63.7767 51.3129 63.69 50.9796 63.69C50.6529 63.69 50.3963 63.7767 50.2096 63.95C50.0229 64.1233 49.8929 64.3567 49.8196 64.65C49.7463 64.9433 49.7096 65.2733 49.7096 65.64C49.7096 66.0067 49.7463 66.34 49.8196 66.64C49.8929 66.94 50.0229 67.18 50.2096 67.36C50.3963 67.5333 50.6529 67.62 50.9796 67.62ZM60.5609 61.64C61.1675 61.64 61.6809 61.7433 62.1009 61.95C62.5209 62.15 62.8409 62.4367 63.0609 62.81C63.2809 63.1767 63.3909 63.6133 63.3909 64.12C63.3909 64.42 63.3442 64.7233 63.2509 65.03C63.1642 65.33 63.0209 65.6033 62.8209 65.85C62.6275 66.0967 62.3642 66.2967 62.0309 66.45C61.7042 66.5967 61.3009 66.67 60.8209 66.67H59.7809V69H58.3309V61.64H60.5609ZM60.8109 65.26C61.0309 65.26 61.2142 65.2233 61.3609 65.15C61.5075 65.07 61.6209 64.9733 61.7009 64.86C61.7875 64.74 61.8475 64.6167 61.8809 64.49C61.9209 64.3633 61.9409 64.2533 61.9409 64.16C61.9409 64.0867 61.9275 63.99 61.9009 63.87C61.8809 63.7433 61.8342 63.6167 61.7609 63.49C61.6875 63.3633 61.5742 63.2567 61.4209 63.17C61.2742 63.0833 61.0742 63.04 60.8209 63.04H59.7809V65.26H60.8109ZM66.6083 69.12C66.0749 69.12 65.6216 69.02 65.2483 68.82C64.8816 68.62 64.6016 68.3433 64.4083 67.99C64.2149 67.6367 64.1183 67.23 64.1183 66.77C64.1183 66.33 64.2316 65.9333 64.4583 65.58C64.6849 65.2267 64.9883 64.9467 65.3683 64.74C65.7483 64.5267 66.1716 64.42 66.6383 64.42C67.2649 64.42 67.7783 64.6033 68.1783 64.97C68.5849 65.33 68.8483 65.8533 68.9683 66.54L65.5683 67.62L65.2583 66.86L67.7183 66.03L67.4283 66.16C67.3749 65.9867 67.2783 65.8367 67.1383 65.71C67.0049 65.5767 66.8016 65.51 66.5283 65.51C66.3216 65.51 66.1383 65.56 65.9783 65.66C65.8249 65.7533 65.7049 65.89 65.6183 66.07C65.5383 66.2433 65.4983 66.45 65.4983 66.69C65.4983 66.9633 65.5483 67.1933 65.6483 67.38C65.7483 67.56 65.8849 67.6967 66.0583 67.79C66.2316 67.8833 66.4249 67.93 66.6383 67.93C66.7916 67.93 66.9383 67.9033 67.0783 67.85C67.2249 67.7967 67.3683 67.7267 67.5083 67.64L68.1283 68.68C67.8949 68.8133 67.6416 68.92 67.3683 69C67.1016 69.08 66.8483 69.12 66.6083 69.12ZM71.2456 64.63L71.3756 65.83L71.3456 65.65C71.4723 65.39 71.6456 65.17 71.8656 64.99C72.0856 64.8033 72.3023 64.66 72.5156 64.56C72.7356 64.46 72.9023 64.41 73.0156 64.41L72.9456 65.81C72.619 65.77 72.339 65.8233 72.1056 65.97C71.8723 66.1167 71.6923 66.31 71.5656 66.55C71.439 66.79 71.3756 67.0367 71.3756 67.29V69H69.9856V64.63H71.2456ZM83.7591 61.64V69H82.3091V66.01H79.0191V69H77.5691V61.64H79.0191V64.61H82.3091V61.64H83.7591ZM85.0851 66.76C85.0851 66.3133 85.1884 65.9133 85.3951 65.56C85.6084 65.2067 85.9051 64.93 86.2851 64.73C86.6651 64.5233 87.1017 64.42 87.5951 64.42C88.0951 64.42 88.5284 64.5233 88.8951 64.73C89.2617 64.93 89.5417 65.2067 89.7351 65.56C89.9351 65.9133 90.0351 66.3133 90.0351 66.76C90.0351 67.2067 89.9351 67.61 89.7351 67.97C89.5417 68.3233 89.2617 68.6033 88.8951 68.81C88.5284 69.0167 88.0884 69.12 87.5751 69.12C87.0951 69.12 86.6651 69.0267 86.2851 68.84C85.9117 68.6533 85.6184 68.3833 85.4051 68.03C85.1917 67.6767 85.0851 67.2533 85.0851 66.76ZM86.4951 66.77C86.4951 66.9967 86.5417 67.2033 86.6351 67.39C86.7284 67.57 86.8551 67.7133 87.0151 67.82C87.1751 67.9267 87.3551 67.98 87.5551 67.98C87.7751 67.98 87.9651 67.9267 88.1251 67.82C88.2851 67.7133 88.4084 67.57 88.4951 67.39C88.5817 67.2033 88.6251 66.9967 88.6251 66.77C88.6251 66.5367 88.5817 66.33 88.4951 66.15C88.4084 65.97 88.2851 65.8267 88.1251 65.72C87.9651 65.6133 87.7751 65.56 87.5551 65.56C87.3551 65.56 87.1751 65.6133 87.0151 65.72C86.8551 65.8267 86.7284 65.97 86.6351 66.15C86.5417 66.33 86.4951 66.5367 86.4951 66.77ZM92.548 69.21C92.1546 69.21 91.8246 69.09 91.558 68.85C91.2913 68.6033 91.1513 68.2867 91.138 67.9V64.63H92.538V67.38C92.5513 67.5733 92.6013 67.73 92.688 67.85C92.7746 67.9633 92.9213 68.02 93.128 68.02C93.3346 68.02 93.5113 67.95 93.658 67.81C93.8113 67.67 93.928 67.48 94.008 67.24C94.0946 66.9933 94.138 66.7167 94.138 66.41V64.63H95.538V69H94.268L94.158 68.2L94.178 68.29C94.078 68.47 93.9513 68.63 93.798 68.77C93.6446 68.91 93.4613 69.0167 93.248 69.09C93.0413 69.17 92.808 69.21 92.548 69.21ZM98.2378 64.63L98.3678 65.83L98.3378 65.65C98.4645 65.39 98.6378 65.17 98.8578 64.99C99.0778 64.8033 99.2945 64.66 99.5078 64.56C99.7278 64.46 99.8945 64.41 100.008 64.41L99.9378 65.81C99.6111 65.77 99.3311 65.8233 99.0978 65.97C98.8645 66.1167 98.6845 66.31 98.5578 66.55C98.4311 66.79 98.3678 67.0367 98.3678 67.29V69H96.9778V64.63H98.2378Z" fill="#EB8382"/>
<path d="M91.9634 79.9301H93.3874V85.2021H92.5314V80.7541H91.9634V79.9301ZM94.6356 85.2021C94.9663 84.8661 95.2863 84.5408 95.5956 84.2261C95.9049 83.9115 96.1823 83.6048 96.4276 83.3061C96.6783 83.0075 96.8729 82.7195 97.0116 82.4421C97.1556 82.1648 97.2276 81.8955 97.2276 81.6341C97.2276 81.4741 97.2009 81.3355 97.1476 81.2181C97.0996 81.0955 97.0303 80.9968 96.9396 80.9221C96.8489 80.8421 96.7476 80.7835 96.6356 80.7461C96.5236 80.7035 96.4036 80.6821 96.2756 80.6821C96.1103 80.6821 95.9689 80.7088 95.8516 80.7621C95.7343 80.8155 95.6383 80.8848 95.5636 80.9701C95.4943 81.0501 95.4409 81.1381 95.4036 81.2341C95.3663 81.3301 95.3476 81.4261 95.3476 81.5221C95.3476 81.6981 95.3743 81.8555 95.4276 81.9941C95.4863 82.1328 95.5636 82.2528 95.6596 82.3541L95.1396 82.8341C95.0063 82.7541 94.8916 82.6395 94.7956 82.4901C94.7049 82.3355 94.6356 82.1728 94.5876 82.0021C94.5396 81.8315 94.5156 81.6795 94.5156 81.5461C94.5156 81.2528 94.5876 80.9808 94.7316 80.7301C94.8809 80.4741 95.0969 80.2661 95.3796 80.1061C95.6676 79.9461 96.0143 79.8661 96.4196 79.8661C96.7609 79.8661 97.0569 79.9435 97.3076 80.0981C97.5636 80.2528 97.7609 80.4608 97.8996 80.7221C98.0436 80.9781 98.1156 81.2581 98.1156 81.5621C98.1156 81.8235 98.0649 82.0795 97.9636 82.3301C97.8623 82.5808 97.7263 82.8288 97.5556 83.0741C97.3903 83.3141 97.2036 83.5541 96.9956 83.7941C96.7929 84.0288 96.5903 84.2661 96.3876 84.5061L96.0036 84.3781H98.2676V85.2021H94.6356ZM100.577 85.2661C100.289 85.2661 100.012 85.2128 99.7455 85.1061C99.4788 84.9995 99.2655 84.8688 99.1055 84.7141L99.5535 84.0421C99.6602 84.1648 99.8015 84.2635 99.9775 84.3381C100.159 84.4128 100.335 84.4501 100.505 84.4501C100.692 84.4501 100.855 84.4101 100.993 84.3301C101.137 84.2501 101.249 84.1381 101.329 83.9941C101.415 83.8501 101.457 83.6848 101.457 83.4981C101.457 83.2955 101.42 83.1168 101.345 82.9621C101.271 82.8021 101.159 82.6768 101.009 82.5861C100.86 82.4955 100.679 82.4501 100.465 82.4501C100.284 82.4501 100.113 82.4768 99.9535 82.5301C99.7988 82.5781 99.6308 82.6528 99.4495 82.7541H99.4415V79.9301H101.985V80.7461H100.185V81.9941L100.073 81.8181C100.164 81.7915 100.26 81.7701 100.361 81.7541C100.463 81.7381 100.564 81.7301 100.665 81.7301C101.028 81.7301 101.332 81.8101 101.577 81.9701C101.828 82.1301 102.017 82.3408 102.145 82.6021C102.273 82.8635 102.337 83.1515 102.337 83.4661C102.337 83.8021 102.26 84.1061 102.105 84.3781C101.956 84.6501 101.748 84.8661 101.481 85.0261C101.215 85.1861 100.913 85.2661 100.577 85.2661ZM104.589 81.8661H105.341V82.9701H106.421V83.6901H105.341V84.7861H104.589V83.6901H103.509V82.9701H104.589V81.8661ZM109.619 79.3941C109.923 79.3941 110.203 79.4368 110.459 79.5221C110.721 79.6021 110.942 79.7195 111.123 79.8741C111.31 80.0288 111.454 80.2208 111.555 80.4501C111.662 80.6741 111.715 80.9355 111.715 81.2341C111.715 81.4635 111.681 81.6901 111.611 81.9141C111.542 82.1381 111.43 82.3408 111.275 82.5221C111.121 82.7035 110.918 82.8501 110.667 82.9621C110.417 83.0688 110.105 83.1221 109.731 83.1221H108.883V85.2021H108.027V79.3941H109.619ZM109.715 82.3061C109.934 82.3061 110.115 82.2715 110.259 82.2021C110.409 82.1328 110.523 82.0475 110.603 81.9461C110.689 81.8395 110.747 81.7275 110.779 81.6101C110.817 81.4875 110.835 81.3701 110.835 81.2581C110.835 81.1515 110.817 81.0395 110.779 80.9221C110.747 80.8048 110.689 80.6928 110.603 80.5861C110.523 80.4795 110.414 80.3915 110.275 80.3221C110.137 80.2528 109.966 80.2181 109.763 80.2181H108.883V82.3061H109.715ZM110.699 82.8021L112.203 85.2021H111.211L109.683 82.8261L110.699 82.8021ZM114.623 85.2821C114.233 85.2821 113.9 85.2075 113.623 85.0581C113.345 84.9035 113.132 84.6928 112.983 84.4261C112.833 84.1541 112.759 83.8448 112.759 83.4981C112.759 83.1675 112.841 82.8688 113.007 82.6021C113.177 82.3301 113.404 82.1141 113.687 81.9541C113.975 81.7941 114.292 81.7141 114.639 81.7141C115.087 81.7141 115.457 81.8448 115.751 82.1061C116.049 82.3675 116.249 82.7328 116.351 83.2021L113.623 84.1461L113.431 83.6661L115.615 82.8821L115.447 82.9861C115.383 82.8208 115.281 82.6768 115.143 82.5541C115.004 82.4261 114.815 82.3621 114.575 82.3621C114.383 82.3621 114.209 82.4101 114.055 82.5061C113.905 82.5968 113.785 82.7248 113.695 82.8901C113.609 83.0501 113.567 83.2395 113.567 83.4581C113.567 83.6821 113.612 83.8795 113.703 84.0501C113.799 84.2155 113.927 84.3461 114.087 84.4421C114.252 84.5381 114.436 84.5861 114.639 84.5861C114.783 84.5861 114.919 84.5595 115.047 84.5061C115.18 84.4528 115.305 84.3861 115.423 84.3061L115.799 84.9141C115.623 85.0261 115.431 85.1168 115.223 85.1861C115.02 85.2501 114.82 85.2821 114.623 85.2821ZM118.54 85.2901L116.644 81.8501H117.62L118.852 84.4421L118.348 84.4181L119.468 81.8501H120.388L118.572 85.2901H118.54ZM121.156 81.8501H121.98V85.2021H121.156V81.8501ZM121.108 80.6501C121.108 80.5221 121.159 80.4155 121.26 80.3301C121.361 80.2448 121.471 80.2021 121.588 80.2021C121.711 80.2021 121.82 80.2448 121.916 80.3301C122.012 80.4155 122.06 80.5221 122.06 80.6501C122.06 80.7781 122.012 80.8848 121.916 80.9701C121.82 81.0501 121.711 81.0901 121.588 81.0901C121.471 81.0901 121.361 81.0501 121.26 80.9701C121.159 80.8848 121.108 80.7781 121.108 80.6501ZM124.81 85.2821C124.421 85.2821 124.087 85.2075 123.81 85.0581C123.533 84.9035 123.319 84.6928 123.17 84.4261C123.021 84.1541 122.946 83.8448 122.946 83.4981C122.946 83.1675 123.029 82.8688 123.194 82.6021C123.365 82.3301 123.591 82.1141 123.874 81.9541C124.162 81.7941 124.479 81.7141 124.826 81.7141C125.274 81.7141 125.645 81.8448 125.938 82.1061C126.237 82.3675 126.437 82.7328 126.538 83.2021L123.81 84.1461L123.618 83.6661L125.802 82.8821L125.634 82.9861C125.57 82.8208 125.469 82.6768 125.33 82.5541C125.191 82.4261 125.002 82.3621 124.762 82.3621C124.57 82.3621 124.397 82.4101 124.242 82.5061C124.093 82.5968 123.973 82.7248 123.882 82.8901C123.797 83.0501 123.754 83.2395 123.754 83.4581C123.754 83.6821 123.799 83.8795 123.89 84.0501C123.986 84.2155 124.114 84.3461 124.274 84.4421C124.439 84.5381 124.623 84.5861 124.826 84.5861C124.97 84.5861 125.106 84.5595 125.234 84.5061C125.367 84.4528 125.493 84.3861 125.61 84.3061L125.986 84.9141C125.81 85.0261 125.618 85.1168 125.41 85.1861C125.207 85.2501 125.007 85.2821 124.81 85.2821ZM129.559 81.8501L130.495 84.0021L130.335 84.0101L131.191 81.8501H131.999L130.463 85.4021L129.391 83.1221L128.407 85.4021L126.863 81.8501H127.671L128.663 84.1061L128.375 84.0581L129.095 82.3941L128.847 81.8501H129.559Z" fill="#446381"/>
<g clip-path="url(#clip0_13452_1678)">
<path d="M70.46 86.0137C70.2963 86.0976 70.1106 85.9505 70.1436 85.7626L70.4956 83.7566L69.0015 82.3333C68.862 82.2001 68.9345 81.9567 69.1215 81.9304L71.1988 81.6352L72.1251 79.8001C72.2086 79.6347 72.4347 79.6347 72.5182 79.8001L73.4445 81.6352L75.5217 81.9304C75.7088 81.9567 75.7813 82.2001 75.6413 82.3333L74.1476 83.7566L74.4996 85.7626C74.5327 85.9505 74.347 86.0976 74.1833 86.0137L72.321 85.0569L70.4596 86.0137H70.46Z" fill="#FFB359"/>
</g>
<g clip-path="url(#clip1_13452_1678)">
<path d="M60.2818 86.0137C60.1181 86.0976 59.9323 85.9505 59.9654 85.7626L60.3174 83.7566L58.8233 82.3333C58.6838 82.2001 58.7563 81.9567 58.9433 81.9304L61.0206 81.6352L61.9468 79.8001C62.0304 79.6347 62.2564 79.6347 62.34 79.8001L63.2662 81.6352L65.3435 81.9304C65.5305 81.9567 65.6031 82.2001 65.4631 82.3333L63.9694 83.7566L64.3214 85.7626C64.3545 85.9505 64.1687 86.0976 64.005 86.0137L62.1428 85.0569L60.2814 86.0137H60.2818Z" fill="#FFB359"/>
</g>
<g clip-path="url(#clip2_13452_1678)">
<path d="M50.1031 86.0137C49.9394 86.0976 49.7536 85.9505 49.7867 85.7626L50.1387 83.7566L48.6446 82.3333C48.505 82.2001 48.5776 81.9567 48.7646 81.9304L50.8419 81.6352L51.7681 79.8001C51.8517 79.6347 52.0777 79.6347 52.1613 79.8001L53.0875 81.6352L55.1648 81.9304C55.3518 81.9567 55.4244 82.2001 55.2844 82.3333L53.7907 83.7566L54.1427 85.7626C54.1758 85.9505 53.99 86.0976 53.8263 86.0137L51.9641 85.0569L50.1027 86.0137H50.1031Z" fill="#FFB359"/>
</g>
<g clip-path="url(#clip3_13452_1678)">
<path d="M39.9244 86.0137C39.7607 86.0976 39.5749 85.9505 39.608 85.7626L39.96 83.7566L38.4659 82.3333C38.3263 82.2001 38.3989 81.9567 38.5859 81.9304L40.6632 81.6352L41.5894 79.8001C41.673 79.6347 41.899 79.6347 41.9826 79.8001L42.9088 81.6352L44.9861 81.9304C45.1731 81.9567 45.2456 82.2001 45.1057 82.3333L43.612 83.7566L43.964 85.7626C43.9971 85.9505 43.8113 86.0976 43.6476 86.0137L41.7854 85.0569L39.9239 86.0137H39.9244Z" fill="#FFB359"/>
</g>
<g clip-path="url(#clip4_13452_1678)">
<path d="M80.6387 86.0137C80.475 86.0976 80.2893 85.9505 80.3223 85.7626L80.6744 83.7566L79.1802 82.3333C79.0407 82.2001 79.1132 81.9567 79.3002 81.9304L81.3775 81.6352L82.3038 79.8001C82.3873 79.6347 82.6134 79.6347 82.6969 79.8001L83.6232 81.6352L85.7004 81.9304C85.8875 81.9567 85.96 82.2001 85.82 82.3333L84.3263 83.7566L84.6783 85.7626C84.7114 85.9505 84.5257 86.0976 84.362 86.0137L82.4997 85.0569L80.6383 86.0137H80.6387Z" fill="#FFB359"/>
</g>
</g>
<defs>
<filter id="filter0_d_13452_1678" x="0" y="0" width="251.488" height="135" filterUnits="userSpaceOnUse" color-interpolation-filters="sRGB">
<feFlood flood-opacity="0" result="BackgroundImageFix"/>
<feColorMatrix in="SourceAlpha" type="matrix" values="0 0 0 0 0 0 0 0 0 0 0 0 0 0 0 0 0 0 127 0" result="hardAlpha"/>
<feOffset dy="10"/>
<feGaussianBlur stdDeviation="10"/>
<feComposite in2="hardAlpha" operator="out"/>
<feColorMatrix type="matrix" values="0 0 0 0 0.921569 0 0 0 0 0.513726 0 0 0 0 0.509804 0 0 0 0.4 0"/>
<feBlend mode="normal" in2="BackgroundImageFix" result="effect1_dropShadow_13452_1678"/>
<feBlend mode="normal" in="SourceGraphic" in2="effect1_dropShadow_13452_1678" result="shape"/>
</filter>
<linearGradient id="paint0_linear_13452_1678" x1="193.859" y1="19.7136" x2="183.281" y2="63.6097" gradientUnits="userSpaceOnUse">
<stop stop-color="#EEBA9C"/>
<stop offset="0.9892" stop-color="#EB8382"/>
</linearGradient>
<linearGradient id="paint1_linear_13452_1678" x1="150.909" y1="41.2322" x2="204.616" y2="88.8757" gradientUnits="userSpaceOnUse">
<stop stop-color="#826F8C"/>
<stop offset="0.9946" stop-color="#446381"/>
</linearGradient>
<linearGradient id="paint2_linear_13452_1678" x1="154.531" y1="37.5924" x2="182.032" y2="102.467" gradientUnits="userSpaceOnUse">
<stop stop-color="#E474C6"/>
<stop offset="0.9892" stop-color="#0E7CF7"/>
</linearGradient>
<linearGradient id="paint3_linear_13452_1678" x1="162.46" y1="46.3787" x2="170.57" y2="94.3295" gradientUnits="userSpaceOnUse">
<stop stop-color="#D2F9FF"/>
<stop offset="0.9946" stop-color="#618DD6"/>
</linearGradient>
<linearGradient id="paint4_linear_13452_1678" x1="171.752" y1="38.5312" x2="178.627" y2="52.6343" gradientUnits="userSpaceOnUse">
<stop stop-color="#6F469E"/>
<stop offset="1" stop-color="#360F6E"/>
</linearGradient>
<linearGradient id="paint5_linear_13452_1678" x1="177.457" y1="81.5049" x2="99.5948" y2="-42.0363" gradientUnits="userSpaceOnUse">
<stop stop-color="#D2F9FF"/>
<stop offset="0.4364" stop-color="#A0CAED"/>
<stop offset="0.9946" stop-color="#618DD6"/>
</linearGradient>
<linearGradient id="paint6_linear_13452_1678" x1="192.956" y1="82.6432" x2="116.094" y2="-12.3766" gradientUnits="userSpaceOnUse">
<stop stop-color="#D2F9FF"/>
<stop offset="0.9946" stop-color="#618DD6"/>
</linearGradient>
<clipPath id="clip0_13452_1678">
<rect width="6.78571" height="6.78571" fill="white" transform="translate(68.9282 79.4641)"/>
</clipPath>
<clipPath id="clip1_13452_1678">
<rect width="6.78571" height="6.78571" fill="white" transform="translate(58.75 79.4641)"/>
</clipPath>
<clipPath id="clip2_13452_1678">
<rect width="6.78571" height="6.78571" fill="white" transform="translate(48.5713 79.4641)"/>
</clipPath>
<clipPath id="clip3_13452_1678">
<rect width="6.78571" height="6.78571" fill="white" transform="translate(38.3926 79.4641)"/>
</clipPath>
<clipPath id="clip4_13452_1678">
<rect width="6.78571" height="6.78571" fill="white" transform="translate(79.1069 79.4641)"/>
</clipPath>
</defs>
</svg>
