<svg width="252" height="135" viewBox="0 0 252 135" fill="none" xmlns="http://www.w3.org/2000/svg">
<g filter="url(#filter0_d_13452_1716)">
<rect opacity="0.4" x="20" y="10" width="211.488" height="95" rx="10" fill="white"/>
<path d="M46.7517 30.6337C49.2775 30.11 51.8022 29.8011 54.3255 29.7605C55.1844 29.765 55.8778 30.6275 55.8722 31.7012C55.8073 33.8481 55.5814 35.9943 55.1411 38.0856C52.0857 37.2108 48.9736 36.9262 45.8604 36.8563C45.9222 35.2998 45.7692 33.7422 45.5623 32.238C45.4049 31.5393 45.9456 30.7906 46.7517 30.6337Z" fill="url(#paint0_linear_13452_1716)"/>
<path d="M91.2534 30.8656C88.7332 30.3156 86.2118 29.9804 83.6891 29.9136C82.8302 29.9091 82.1279 30.7644 82.1223 31.838C82.1648 33.9856 82.3683 36.1339 82.7869 38.2297C85.8512 37.3868 88.9661 37.1346 92.0799 37.0971C92.0343 35.54 92.2034 33.9841 92.426 32.4822C92.5907 31.7852 92.0578 31.0308 91.2534 30.8656Z" fill="url(#paint1_linear_13452_1716)"/>
<path d="M104.603 65.0772C104.028 62.1217 103.131 59.1645 102.447 56.4768C100.919 50.8858 98.9617 45.4 96.8961 40.021C95.5188 36.4708 92.1492 34.0912 88.3378 34.0713L86.2443 34.0605C83.9896 34.0487 81.7842 34.8962 80.0586 36.3903L78.4406 37.8313C76.4989 39.5927 73.9172 40.5456 71.2868 40.5319L69.0859 40.5205L66.8849 40.509C64.2546 40.4953 61.7366 39.5159 59.7596 37.7341L58.1567 36.2763C56.4467 34.7643 54.3039 33.8942 51.9956 33.8822L50.0094 33.8719C46.1981 33.8521 42.8039 36.1964 41.3897 39.7321C39.2679 45.143 37.2535 50.5545 35.6677 56.1293C34.9022 58.8094 34.0282 61.7037 33.4221 64.7068C32.7063 68.1388 32.3664 71.5727 33.0477 74.7435C34.3051 80.7088 41.9656 83.8086 46.8721 79.7006C49.5679 77.4599 53.5643 72.864 56.3197 69.4964C58.3724 67.0376 61.3858 65.6576 64.553 65.674L69.0622 65.6975L73.5714 65.721C76.7386 65.7375 79.7372 67.2025 81.7646 69.6288C84.485 72.9712 88.4331 77.6622 91.1054 79.9308C95.9689 84.0896 103.661 81.0698 104.981 75.1178C105.588 71.9537 105.283 68.5164 104.603 65.0772Z" fill="url(#paint2_linear_13452_1716)"/>
<path d="M104.613 63.1986C104.038 60.243 103.141 57.2858 102.457 54.5981C100.929 49.0072 98.9715 43.5213 96.9059 38.1423C95.5286 34.5921 92.159 32.2125 88.3476 32.1927L86.254 32.1818C83.9994 32.1701 81.794 33.0175 80.0684 34.5116L78.4504 35.9527C76.5087 37.7141 73.9269 38.6669 71.2966 38.6532L69.0956 38.6418L66.8947 38.6303C64.2643 38.6166 61.7463 37.6373 59.7693 35.8554L58.1664 34.3977C56.4565 32.8857 54.3137 32.0156 52.0054 32.0036L50.0192 31.9932C46.2078 31.9734 42.8136 34.3178 41.3995 37.8535C39.278 43.2107 37.2633 48.6759 35.6775 54.2506C34.912 56.9307 34.038 59.8251 33.4318 62.8281C32.7161 66.2601 32.3761 69.694 33.0575 72.8649C34.3149 78.8302 41.9753 81.93 46.8818 77.8219C49.5776 75.5813 53.5741 70.9854 56.3294 67.6177C58.3822 65.159 61.3956 63.7789 64.5628 63.7954L69.072 63.8188L73.5812 63.8423C76.7484 63.8588 79.747 65.3238 81.7743 67.7501C84.4947 71.0926 88.4429 75.7835 91.1152 78.0521C95.9787 82.211 103.671 79.1911 104.99 73.2392C105.597 70.0751 105.293 66.5841 104.613 63.1986Z" fill="url(#paint3_linear_13452_1716)"/>
<path d="M104.902 69.588C103.591 73.9832 95.9026 76.2515 91.0338 73.1126C88.3584 71.4345 84.4039 67.9782 81.679 65.4947C79.6486 63.6589 76.6481 62.5696 73.4809 62.5531L68.9716 62.5297L64.4624 62.5062C61.2952 62.4897 58.2835 63.5477 56.2341 65.3622C53.4835 67.8173 49.4932 71.2323 46.8005 72.8824C41.8996 75.9168 34.2349 73.6223 32.9695 69.2137C32.8112 68.6761 32.7069 68.085 32.6563 67.4942C32.5394 69.3188 32.5836 71.1443 32.9505 72.864C34.2078 78.8293 41.8683 81.9291 46.7748 77.8211C49.4706 75.5804 53.467 70.9845 56.2224 67.6169C58.2751 65.1581 61.2885 63.7781 64.4557 63.7946L68.9649 63.818L73.4742 63.8415C76.6413 63.858 79.64 65.323 81.6673 67.7493C84.3877 71.0918 88.3358 75.7827 91.0081 78.0513C95.8716 82.2101 103.564 79.1903 104.883 73.2383C105.268 71.5225 105.331 69.6976 105.233 67.8719C105.177 68.4621 105.066 68.9984 104.902 69.588Z" fill="url(#paint4_linear_13452_1716)"/>
<path d="M60.0071 62.3755C63.5352 62.3939 66.4101 59.5487 66.4284 56.0207C66.4468 52.4927 63.6016 49.6178 60.0736 49.5994C56.5456 49.581 53.6707 52.4262 53.6523 55.9542C53.6339 59.4823 56.4791 62.3572 60.0071 62.3755Z" fill="url(#paint5_linear_13452_1716)"/>
<path d="M60.0112 61.5168C63.0648 61.5327 65.5532 59.0701 65.5691 56.0164C65.585 52.9627 63.1224 50.4744 60.0687 50.4585C57.015 50.4426 54.5267 52.9052 54.5108 55.9589C54.4949 59.0125 56.9575 61.5009 60.0112 61.5168Z" fill="url(#paint6_linear_13452_1716)"/>
<path d="M59.3864 57.8629C61.9361 57.8762 64.0138 55.82 64.027 53.2703C64.0403 50.7207 61.9841 48.643 59.4345 48.6297C56.8848 48.6165 54.8071 50.6726 54.7938 53.2223C54.7806 55.772 56.8367 57.8496 59.3864 57.8629Z" fill="url(#paint7_linear_13452_1716)"/>
<path d="M63.2216 53.2663C63.2325 51.1727 61.5236 49.446 59.43 49.4351C57.3365 49.4242 55.6097 51.1331 55.5988 53.2266C55.5879 55.3202 57.2968 57.047 59.3904 57.0578C61.4842 57.0151 63.2107 55.3599 63.2216 53.2663Z" fill="url(#paint8_linear_13452_1716)"/>
<path d="M75.4134 62.4559C78.9414 62.4742 81.8163 59.6291 81.8347 56.101C81.853 52.573 79.0079 49.6981 75.4799 49.6797C71.9518 49.6614 69.0769 52.5065 69.0586 56.0346C69.0402 59.5626 71.8853 62.4375 75.4134 62.4559Z" fill="url(#paint9_linear_13452_1716)"/>
<path d="M75.4179 61.5969C78.4716 61.6128 80.96 59.1501 80.9758 56.0965C80.9917 53.0428 78.5291 50.5544 75.4755 50.5385C72.4218 50.5226 69.9334 52.9853 69.9175 56.0389C69.9016 59.0926 72.3642 61.581 75.4179 61.5969Z" fill="url(#paint10_linear_13452_1716)"/>
<path d="M74.8464 57.9435C77.396 57.9567 79.4737 55.9006 79.487 53.3509C79.5002 50.8012 77.4441 48.7236 74.8944 48.7103C72.3447 48.697 70.2671 50.7532 70.2538 53.3029C70.2405 55.8525 72.2967 57.9302 74.8464 57.9435Z" fill="url(#paint11_linear_13452_1716)"/>
<path d="M78.6283 53.3466C78.6392 51.2531 76.9303 49.5263 74.8368 49.5154C72.7432 49.5045 71.0165 51.2134 71.0056 53.307C70.9947 55.4005 72.7035 57.1273 74.7971 57.1382C76.9446 57.0957 78.6174 55.4402 78.6283 53.3466Z" fill="url(#paint12_linear_13452_1716)"/>
<path d="M90.18 41.1134C90.1735 42.3481 88.9875 43.3082 87.5381 43.3006C86.0887 43.2931 84.9131 42.267 84.9192 41.086C84.9256 39.8513 86.1116 38.8912 87.561 38.8988C89.0107 38.8526 90.1864 39.8787 90.18 41.1134Z" fill="url(#paint13_linear_13452_1716)"/>
<path d="M87.5405 42.8712C88.6967 42.8773 89.6382 42.089 89.6432 41.1106C89.6483 40.1323 88.7151 39.3343 87.5589 39.3283C86.4027 39.3223 85.4612 40.1105 85.4561 41.0889C85.451 42.0672 86.3842 42.8652 87.5405 42.8712Z" fill="url(#paint14_linear_13452_1716)"/>
<path d="M90.1365 49.4873C90.1301 50.722 88.9441 51.6821 87.4947 51.6746C86.0453 51.667 84.8696 50.6409 84.8758 49.46C84.8822 48.2253 86.0682 47.2652 87.5176 47.2727C88.967 47.2803 90.1429 48.2527 90.1365 49.4873Z" fill="url(#paint15_linear_13452_1716)"/>
<path d="M87.497 51.245C88.6532 51.251 89.5947 50.4628 89.5998 49.4844C89.6049 48.5061 88.6717 47.7081 87.5154 47.7021C86.3592 47.696 85.4177 48.4843 85.4127 49.4626C85.4076 50.441 86.3408 51.239 87.497 51.245Z" fill="url(#paint16_linear_13452_1716)"/>
<path d="M94.6141 45.2698C94.6076 46.5045 93.4216 47.4646 91.9722 47.4571C90.5228 47.4495 89.3471 46.4234 89.3533 45.2424C89.3597 44.0078 90.5457 43.0476 91.9951 43.0552C93.4445 43.0627 94.6205 44.0351 94.6141 45.2698Z" fill="url(#paint17_linear_13452_1716)"/>
<path d="M94.0768 45.2671C94.0718 46.2334 93.155 47.0339 91.9741 47.0277C90.8468 47.0219 89.8847 46.2116 89.8897 45.2454C89.8947 44.2791 90.8115 43.4786 91.9925 43.4848C93.1198 43.4906 94.0819 44.3009 94.0768 45.2671Z" fill="url(#paint18_linear_13452_1716)"/>
<path d="M86.2937 45.2266C86.2873 46.4613 85.1013 47.4214 83.6519 47.4138C82.2025 47.4063 81.0268 46.3802 81.033 45.1992C81.0394 43.9646 82.2254 43.0044 83.6748 43.012C85.1242 43.0195 86.3002 43.9919 86.2937 45.2266Z" fill="url(#paint19_linear_13452_1716)"/>
<path d="M85.757 45.2237C85.752 46.19 84.8352 46.9904 83.6542 46.9843C82.5269 46.9784 81.5649 46.1682 81.5699 45.2019C81.5749 44.2356 82.4917 43.4352 83.6727 43.4413C84.8 43.4472 85.762 44.2574 85.757 45.2237Z" fill="url(#paint20_linear_13452_1716)"/>
<path d="M49.6596 49.5988C53.0097 49.6163 55.7397 46.9146 55.7571 43.5644C55.7746 40.2143 53.0729 37.4843 49.7227 37.4669C46.3726 37.4494 43.6426 40.1511 43.6252 43.5013C43.6077 46.8514 46.3094 49.5814 49.6596 49.5988Z" fill="url(#paint21_linear_13452_1716)"/>
<path d="M49.6627 48.9546C52.6571 48.9702 55.0972 46.5554 55.1128 43.561C55.1283 40.5666 52.7135 38.1266 49.7192 38.111C46.7248 38.0954 44.2847 40.5102 44.2691 43.5046C44.2536 46.4989 46.6684 48.939 49.6627 48.9546Z" fill="url(#paint22_linear_13452_1716)"/>
<path d="M52.8647 42.3681L51.3616 42.3603C51.0932 42.3589 50.8796 42.1431 50.881 41.8747L50.8888 40.3716C50.8902 40.1032 50.6766 39.8873 50.4082 39.8859L48.9588 39.8784C48.6904 39.877 48.4746 40.0906 48.4732 40.359L48.4653 41.8621C48.464 42.1305 48.2481 42.3441 47.9797 42.3427L46.4766 42.3349C46.2082 42.3335 45.9924 42.5471 45.991 42.8155L45.9834 44.2649C45.982 44.5333 46.1957 44.7491 46.4641 44.7505L47.9671 44.7584C48.2355 44.7598 48.4491 44.9756 48.4477 45.244L48.4399 46.7471C48.4385 47.0155 48.6521 47.2313 48.9205 47.2327L50.3699 47.2403C50.6383 47.2417 50.8542 47.0281 50.8556 46.7597L50.8634 45.2566C50.8648 44.9882 51.0806 44.7746 51.349 44.776L52.8521 44.7838C53.1205 44.7852 53.3364 44.5716 53.3378 44.3032L53.3453 42.8538C53.293 42.5851 53.0794 42.3693 52.8647 42.3681Z" fill="url(#paint23_linear_13452_1716)"/>
<path d="M67.3522 43.571L61.823 43.5423C61.5546 43.5409 61.3924 43.7548 61.3913 43.9695L61.3835 45.4726C61.3821 45.741 61.596 45.9031 61.8107 45.9042L67.3399 45.933C67.6083 45.9344 67.7704 45.7205 67.7716 45.5058L67.7794 44.0027C67.7808 43.7343 67.5669 43.5722 67.3522 43.571Z" fill="url(#paint24_linear_13452_1716)"/>
<path d="M75.5651 43.614L70.0359 43.5852C69.7675 43.5838 69.6053 43.7977 69.6042 44.0125L69.5964 45.5155C69.595 45.7839 69.8089 45.9461 70.0236 45.9472L75.5528 45.976C75.8212 45.9774 75.9833 45.7635 75.9845 45.5488L75.9923 44.0457C75.9937 43.7773 75.8335 43.6154 75.5651 43.614Z" fill="url(#paint25_linear_13452_1716)"/>
<path d="M120.931 26.7013C120.678 26.568 120.404 26.4546 120.111 26.3613C119.818 26.268 119.534 26.2213 119.261 26.2213C118.888 26.2213 118.591 26.308 118.371 26.4813C118.151 26.648 118.041 26.878 118.041 27.1713C118.041 27.378 118.114 27.558 118.261 27.7113C118.408 27.8646 118.598 27.998 118.831 28.1113C119.064 28.2246 119.311 28.3313 119.571 28.4313C119.791 28.5113 120.008 28.608 120.221 28.7213C120.441 28.828 120.638 28.9613 120.811 29.1213C120.991 29.2813 121.131 29.4813 121.231 29.7213C121.338 29.9546 121.391 30.2413 121.391 30.5813C121.391 30.968 121.294 31.318 121.101 31.6313C120.914 31.9446 120.641 32.1946 120.281 32.3813C119.928 32.5613 119.498 32.6513 118.991 32.6513C118.684 32.6513 118.384 32.618 118.091 32.5513C117.804 32.478 117.531 32.3846 117.271 32.2713C117.018 32.1513 116.788 32.0213 116.581 31.8813L117.061 31.0513C117.221 31.1646 117.404 31.2746 117.611 31.3813C117.818 31.4813 118.031 31.5613 118.251 31.6213C118.478 31.6813 118.691 31.7113 118.891 31.7113C119.111 31.7113 119.328 31.6746 119.541 31.6013C119.754 31.5213 119.931 31.4013 120.071 31.2413C120.211 31.0746 120.281 30.858 120.281 30.5913C120.281 30.3646 120.218 30.1746 120.091 30.0213C119.971 29.8613 119.808 29.7246 119.601 29.6113C119.401 29.498 119.184 29.398 118.951 29.3113C118.724 29.2246 118.494 29.128 118.261 29.0213C118.028 28.9146 117.811 28.788 117.611 28.6413C117.411 28.488 117.248 28.3013 117.121 28.0813C117.001 27.8546 116.941 27.578 116.941 27.2513C116.941 26.8646 117.031 26.528 117.211 26.2413C117.398 25.948 117.654 25.718 117.981 25.5513C118.308 25.3846 118.684 25.2913 119.111 25.2713C119.598 25.2713 120.021 25.3313 120.381 25.4513C120.741 25.5713 121.061 25.7146 121.341 25.8813L120.931 26.7013ZM122.381 30.4313C122.381 30.0113 122.481 29.6346 122.681 29.3013C122.881 28.9613 123.158 28.6946 123.511 28.5013C123.865 28.308 124.268 28.2113 124.721 28.2113C125.181 28.2113 125.585 28.308 125.931 28.5013C126.278 28.6946 126.545 28.9613 126.731 29.3013C126.925 29.6346 127.021 30.0113 127.021 30.4313C127.021 30.8513 126.925 31.2313 126.731 31.5713C126.545 31.9113 126.278 32.1813 125.931 32.3813C125.585 32.5746 125.178 32.6713 124.711 32.6713C124.265 32.6713 123.865 32.5813 123.511 32.4013C123.165 32.2213 122.888 31.9646 122.681 31.6313C122.481 31.2913 122.381 30.8913 122.381 30.4313ZM123.421 30.4413C123.421 30.7013 123.478 30.938 123.591 31.1513C123.705 31.358 123.858 31.5246 124.051 31.6513C124.245 31.7713 124.461 31.8313 124.701 31.8313C124.948 31.8313 125.168 31.7713 125.361 31.6513C125.555 31.5246 125.705 31.358 125.811 31.1513C125.925 30.938 125.981 30.7013 125.981 30.4413C125.981 30.1813 125.925 29.948 125.811 29.7413C125.705 29.5346 125.555 29.368 125.361 29.2413C125.168 29.1146 124.948 29.0513 124.701 29.0513C124.455 29.0513 124.235 29.1146 124.041 29.2413C123.848 29.368 123.695 29.538 123.581 29.7513C123.475 29.958 123.421 30.188 123.421 30.4413ZM129.159 28.3813L129.249 29.3413L129.209 29.2113C129.349 28.9113 129.566 28.6713 129.859 28.4913C130.153 28.3046 130.499 28.2113 130.899 28.2113C131.293 28.2113 131.616 28.328 131.869 28.5613C132.129 28.7946 132.263 29.098 132.269 29.4713V32.5713H131.239V29.8313C131.233 29.618 131.169 29.4446 131.049 29.3113C130.929 29.1713 130.743 29.098 130.489 29.0913C130.263 29.0913 130.056 29.1613 129.869 29.3013C129.683 29.4346 129.536 29.618 129.429 29.8513C129.323 30.0846 129.269 30.3546 129.269 30.6613V32.5713H128.239V28.3813H129.159ZM134.038 34.5813L136.808 28.3813H137.748L135.048 34.5813H134.038ZM135.098 32.6013L133.068 28.3813H134.228L135.888 32.0813L135.098 32.6013ZM142.122 32.5713V25.3113H144.142C144.862 25.3113 145.475 25.4213 145.982 25.6413C146.488 25.8613 146.895 26.1513 147.202 26.5113C147.515 26.8713 147.742 27.2713 147.882 27.7113C148.028 28.1513 148.102 28.5946 148.102 29.0413C148.102 29.5813 148.005 30.068 147.812 30.5013C147.618 30.9346 147.355 31.308 147.022 31.6213C146.688 31.928 146.305 32.1646 145.872 32.3313C145.438 32.4913 144.978 32.5713 144.492 32.5713H142.122ZM143.192 31.5413H144.292C144.685 31.5413 145.045 31.4846 145.372 31.3713C145.705 31.258 145.992 31.0913 146.232 30.8713C146.478 30.6513 146.668 30.3813 146.802 30.0613C146.935 29.7413 147.002 29.3746 147.002 28.9613C147.002 28.5146 146.925 28.128 146.772 27.8013C146.625 27.468 146.428 27.1946 146.182 26.9813C145.935 26.7613 145.658 26.6013 145.352 26.5013C145.052 26.3946 144.745 26.3413 144.432 26.3413H143.192V31.5413ZM150.8 32.7413C150.413 32.7413 150.097 32.6246 149.85 32.3913C149.603 32.158 149.473 31.858 149.46 31.4913V28.3813H150.49V31.1213C150.503 31.3346 150.563 31.5113 150.67 31.6513C150.783 31.7846 150.963 31.8546 151.21 31.8613C151.437 31.8613 151.637 31.7946 151.81 31.6613C151.99 31.5213 152.13 31.3346 152.23 31.1013C152.337 30.8613 152.39 30.588 152.39 30.2813V28.3813H153.42V32.5713H152.49L152.41 31.6013L152.45 31.7613C152.363 31.948 152.24 32.118 152.08 32.2713C151.92 32.418 151.73 32.5313 151.51 32.6113C151.29 32.698 151.053 32.7413 150.8 32.7413ZM156.747 32.6713C156.354 32.6713 155.997 32.5913 155.677 32.4313C155.357 32.2646 155.104 32.018 154.917 31.6913C154.73 31.3646 154.637 30.9613 154.637 30.4813C154.637 30.008 154.734 29.6013 154.927 29.2613C155.127 28.9213 155.387 28.6613 155.707 28.4813C156.034 28.2946 156.387 28.2013 156.767 28.2013C157.167 28.2013 157.494 28.288 157.747 28.4613C158.007 28.628 158.21 28.8246 158.357 29.0513L158.287 29.2113L158.387 28.3813H159.337V32.5713H158.307V31.5213L158.417 31.7713C158.39 31.8246 158.334 31.9013 158.247 32.0013C158.16 32.0946 158.044 32.1946 157.897 32.3013C157.757 32.408 157.59 32.498 157.397 32.5713C157.21 32.638 156.994 32.6713 156.747 32.6713ZM157.027 31.8313C157.247 31.8313 157.444 31.7913 157.617 31.7113C157.79 31.6313 157.937 31.518 158.057 31.3713C158.177 31.2246 158.26 31.0513 158.307 30.8513V29.9813C158.254 29.7946 158.164 29.6346 158.037 29.5013C157.91 29.3613 157.757 29.2513 157.577 29.1713C157.404 29.0913 157.21 29.0513 156.997 29.0513C156.757 29.0513 156.537 29.1113 156.337 29.2313C156.137 29.3446 155.977 29.5046 155.857 29.7113C155.737 29.918 155.677 30.158 155.677 30.4313C155.677 30.6913 155.737 30.928 155.857 31.1413C155.984 31.3546 156.15 31.5246 156.357 31.6513C156.564 31.7713 156.787 31.8313 157.027 31.8313ZM160.915 24.8013H161.945V32.5713H160.915V24.8013ZM164.733 32.6613C164.426 32.6613 164.129 32.608 163.843 32.5013C163.556 32.388 163.319 32.2246 163.133 32.0113L163.573 31.4313C163.753 31.598 163.933 31.7246 164.113 31.8113C164.299 31.8913 164.476 31.9313 164.643 31.9313C164.776 31.9313 164.896 31.918 165.003 31.8913C165.109 31.858 165.196 31.8046 165.263 31.7313C165.329 31.658 165.363 31.5613 165.363 31.4413C165.363 31.3013 165.316 31.1913 165.223 31.1113C165.129 31.0313 165.009 30.9646 164.863 30.9113C164.716 30.858 164.559 30.808 164.393 30.7613C164.039 30.648 163.773 30.488 163.593 30.2813C163.413 30.068 163.323 29.818 163.323 29.5313C163.323 29.3113 163.376 29.1046 163.483 28.9113C163.596 28.7113 163.766 28.548 163.993 28.4213C164.219 28.2946 164.499 28.2313 164.833 28.2313C165.139 28.2313 165.409 28.268 165.643 28.3413C165.876 28.408 166.093 28.5246 166.293 28.6913L165.893 29.3113C165.773 29.1913 165.629 29.1013 165.463 29.0413C165.303 28.9746 165.156 28.938 165.023 28.9313C164.903 28.9313 164.793 28.9513 164.693 28.9913C164.593 29.0246 164.513 29.078 164.453 29.1513C164.393 29.218 164.363 29.298 164.363 29.3913C164.356 29.5246 164.399 29.6346 164.493 29.7213C164.593 29.8013 164.719 29.868 164.873 29.9213C165.026 29.968 165.176 30.018 165.323 30.0713C165.529 30.1313 165.713 30.2146 165.873 30.3213C166.033 30.4213 166.159 30.5446 166.253 30.6913C166.346 30.838 166.393 31.0246 166.393 31.2513C166.393 31.498 166.333 31.7313 166.213 31.9513C166.093 32.1646 165.909 32.338 165.663 32.4713C165.416 32.598 165.106 32.6613 164.733 32.6613ZM167.663 32.5713V24.8013H168.663V29.3313L168.653 29.1613C168.793 28.888 169.006 28.6613 169.293 28.4813C169.58 28.3013 169.923 28.2113 170.323 28.2113C170.716 28.2113 171.04 28.328 171.293 28.5613C171.553 28.7946 171.686 29.098 171.693 29.4713V32.5713H170.663V29.8313C170.656 29.618 170.593 29.4446 170.473 29.3113C170.353 29.1713 170.166 29.098 169.913 29.0913C169.686 29.0913 169.48 29.1613 169.293 29.3013C169.106 29.4346 168.96 29.6213 168.853 29.8613C168.746 30.0946 168.693 30.3613 168.693 30.6613V32.5713H167.663ZM172.909 30.4313C172.909 30.0113 173.009 29.6346 173.209 29.3013C173.409 28.9613 173.685 28.6946 174.039 28.5013C174.392 28.308 174.795 28.2113 175.249 28.2113C175.709 28.2113 176.112 28.308 176.459 28.5013C176.805 28.6946 177.072 28.9613 177.259 29.3013C177.452 29.6346 177.549 30.0113 177.549 30.4313C177.549 30.8513 177.452 31.2313 177.259 31.5713C177.072 31.9113 176.805 32.1813 176.459 32.3813C176.112 32.5746 175.705 32.6713 175.239 32.6713C174.792 32.6713 174.392 32.5813 174.039 32.4013C173.692 32.2213 173.415 31.9646 173.209 31.6313C173.009 31.2913 172.909 30.8913 172.909 30.4313ZM173.949 30.4413C173.949 30.7013 174.005 30.938 174.119 31.1513C174.232 31.358 174.385 31.5246 174.579 31.6513C174.772 31.7713 174.989 31.8313 175.229 31.8313C175.475 31.8313 175.695 31.7713 175.889 31.6513C176.082 31.5246 176.232 31.358 176.339 31.1513C176.452 30.938 176.509 30.7013 176.509 30.4413C176.509 30.1813 176.452 29.948 176.339 29.7413C176.232 29.5346 176.082 29.368 175.889 29.2413C175.695 29.1146 175.475 29.0513 175.229 29.0513C174.982 29.0513 174.762 29.1146 174.569 29.2413C174.375 29.368 174.222 29.538 174.109 29.7513C174.002 29.958 173.949 30.188 173.949 30.4413ZM182.197 32.1813C182.01 32.3346 181.783 32.4546 181.517 32.5413C181.257 32.628 180.993 32.6713 180.727 32.6713C180.267 32.6713 179.86 32.5813 179.507 32.4013C179.16 32.2213 178.89 31.968 178.697 31.6413C178.503 31.3146 178.407 30.9246 178.407 30.4713C178.407 30.0246 178.51 29.638 178.717 29.3113C178.923 28.978 179.197 28.7246 179.537 28.5513C179.877 28.3713 180.237 28.2813 180.617 28.2813C180.963 28.2813 181.27 28.328 181.537 28.4213C181.803 28.5146 182.033 28.6446 182.227 28.8113L181.717 29.4813C181.603 29.388 181.46 29.3046 181.287 29.2313C181.12 29.158 180.927 29.1213 180.707 29.1213C180.473 29.1213 180.26 29.1813 180.067 29.3013C179.873 29.4146 179.72 29.5746 179.607 29.7813C179.493 29.9813 179.437 30.2113 179.437 30.4713C179.437 30.718 179.493 30.948 179.607 31.1613C179.727 31.368 179.89 31.5313 180.097 31.6513C180.303 31.7713 180.54 31.8313 180.807 31.8313C180.98 31.8313 181.14 31.808 181.287 31.7613C181.433 31.708 181.563 31.6346 181.677 31.5413L182.197 32.1813ZM183.376 32.5713V24.8013H184.406V32.5713H183.376ZM185.426 29.7713L187.346 32.5713H186.146L184.746 30.3613L185.426 29.7713ZM184.086 31.2813L183.986 30.2913L186.526 28.2913L187.156 28.8413L184.086 31.2813ZM190.968 31.0113V31.0013L195.028 25.9013H195.038V30.1913H195.878V31.0113H195.038V32.5713H193.968V31.0113H190.968ZM194.028 28.2913L192.528 30.2413L192.378 30.1913H193.968V28.1313L194.028 28.2913ZM116.521 37.3513H117.761L119.641 42.6913L119.461 42.6213L120.881 38.9713L121.371 40.4213L119.411 44.9113L116.521 37.3513ZM120.041 37.3513H121.101L123.161 42.6013L122.951 42.5613L124.711 37.3513H125.851L123.011 44.8913L120.041 37.3513ZM126.911 40.3813H127.941V44.5713H126.911V40.3813ZM126.851 38.8813C126.851 38.7213 126.914 38.588 127.041 38.4813C127.168 38.3746 127.304 38.3213 127.451 38.3213C127.604 38.3213 127.741 38.3746 127.861 38.4813C127.981 38.588 128.041 38.7213 128.041 38.8813C128.041 39.0413 127.981 39.1746 127.861 39.2813C127.741 39.3813 127.604 39.4313 127.451 39.4313C127.304 39.4313 127.168 39.3813 127.041 39.2813C126.914 39.1746 126.851 39.0413 126.851 38.8813ZM130.429 40.3813L130.529 41.5813L130.479 41.4213C130.592 41.168 130.752 40.9513 130.959 40.7713C131.165 40.5913 131.379 40.4546 131.599 40.3613C131.825 40.2613 132.015 40.2113 132.169 40.2113L132.119 41.2313C131.799 41.2113 131.519 41.2713 131.279 41.4113C131.045 41.5513 130.862 41.738 130.729 41.9713C130.595 42.2046 130.529 42.4546 130.529 42.7213V44.5713H129.509V40.3813H130.429ZM135.131 44.6713C134.644 44.6713 134.228 44.578 133.881 44.3913C133.534 44.198 133.268 43.9346 133.081 43.6013C132.894 43.2613 132.801 42.8746 132.801 42.4413C132.801 42.028 132.904 41.6546 133.111 41.3213C133.324 40.9813 133.608 40.7113 133.961 40.5113C134.321 40.3113 134.718 40.2113 135.151 40.2113C135.711 40.2113 136.174 40.3746 136.541 40.7013C136.914 41.028 137.164 41.4846 137.291 42.0713L133.881 43.2513L133.641 42.6513L136.371 41.6713L136.161 41.8013C136.081 41.5946 135.954 41.4146 135.781 41.2613C135.608 41.1013 135.371 41.0213 135.071 41.0213C134.831 41.0213 134.614 41.0813 134.421 41.2013C134.234 41.3146 134.084 41.4746 133.971 41.6813C133.864 41.8813 133.811 42.118 133.811 42.3913C133.811 42.6713 133.868 42.918 133.981 43.1313C134.101 43.338 134.261 43.5013 134.461 43.6213C134.668 43.7413 134.898 43.8013 135.151 43.8013C135.331 43.8013 135.501 43.768 135.661 43.7013C135.828 43.6346 135.984 43.5513 136.131 43.4513L136.601 44.2113C136.381 44.3513 136.141 44.4646 135.881 44.5513C135.628 44.6313 135.378 44.6713 135.131 44.6713ZM138.435 36.8013H139.465V44.5713H138.435V36.8013ZM143.002 44.6713C142.516 44.6713 142.099 44.578 141.752 44.3913C141.406 44.198 141.139 43.9346 140.952 43.6013C140.766 43.2613 140.672 42.8746 140.672 42.4413C140.672 42.028 140.776 41.6546 140.982 41.3213C141.196 40.9813 141.479 40.7113 141.832 40.5113C142.192 40.3113 142.589 40.2113 143.022 40.2113C143.582 40.2113 144.046 40.3746 144.412 40.7013C144.786 41.028 145.036 41.4846 145.162 42.0713L141.752 43.2513L141.512 42.6513L144.242 41.6713L144.032 41.8013C143.952 41.5946 143.826 41.4146 143.652 41.2613C143.479 41.1013 143.242 41.0213 142.942 41.0213C142.702 41.0213 142.486 41.0813 142.292 41.2013C142.106 41.3146 141.956 41.4746 141.842 41.6813C141.736 41.8813 141.682 42.118 141.682 42.3913C141.682 42.6713 141.739 42.918 141.852 43.1313C141.972 43.338 142.132 43.5013 142.332 43.6213C142.539 43.7413 142.769 43.8013 143.022 43.8013C143.202 43.8013 143.372 43.768 143.532 43.7013C143.699 43.6346 143.856 43.5513 144.002 43.4513L144.472 44.2113C144.252 44.3513 144.012 44.4646 143.752 44.5513C143.499 44.6313 143.249 44.6713 143.002 44.6713ZM147.526 44.6613C147.219 44.6613 146.922 44.608 146.636 44.5013C146.349 44.388 146.112 44.2246 145.926 44.0113L146.366 43.4313C146.546 43.598 146.726 43.7246 146.906 43.8113C147.092 43.8913 147.269 43.9313 147.436 43.9313C147.569 43.9313 147.689 43.918 147.796 43.8913C147.902 43.858 147.989 43.8046 148.056 43.7313C148.122 43.658 148.156 43.5613 148.156 43.4413C148.156 43.3013 148.109 43.1913 148.016 43.1113C147.922 43.0313 147.802 42.9646 147.656 42.9113C147.509 42.858 147.352 42.808 147.186 42.7613C146.832 42.648 146.566 42.488 146.386 42.2813C146.206 42.068 146.116 41.818 146.116 41.5313C146.116 41.3113 146.169 41.1046 146.276 40.9113C146.389 40.7113 146.559 40.548 146.786 40.4213C147.012 40.2946 147.292 40.2313 147.626 40.2313C147.932 40.2313 148.202 40.268 148.436 40.3413C148.669 40.408 148.886 40.5246 149.086 40.6913L148.686 41.3113C148.566 41.1913 148.422 41.1013 148.256 41.0413C148.096 40.9746 147.949 40.938 147.816 40.9313C147.696 40.9313 147.586 40.9513 147.486 40.9913C147.386 41.0246 147.306 41.078 147.246 41.1513C147.186 41.218 147.156 41.298 147.156 41.3913C147.149 41.5246 147.192 41.6346 147.286 41.7213C147.386 41.8013 147.512 41.868 147.666 41.9213C147.819 41.968 147.969 42.018 148.116 42.0713C148.322 42.1313 148.506 42.2146 148.666 42.3213C148.826 42.4213 148.952 42.5446 149.046 42.6913C149.139 42.838 149.186 43.0246 149.186 43.2513C149.186 43.498 149.126 43.7313 149.006 43.9513C148.886 44.1646 148.702 44.338 148.456 44.4713C148.209 44.598 147.899 44.6613 147.526 44.6613ZM151.676 44.6613C151.369 44.6613 151.073 44.608 150.786 44.5013C150.499 44.388 150.263 44.2246 150.076 44.0113L150.516 43.4313C150.696 43.598 150.876 43.7246 151.056 43.8113C151.243 43.8913 151.419 43.9313 151.586 43.9313C151.719 43.9313 151.839 43.918 151.946 43.8913C152.053 43.858 152.139 43.8046 152.206 43.7313C152.273 43.658 152.306 43.5613 152.306 43.4413C152.306 43.3013 152.259 43.1913 152.166 43.1113C152.073 43.0313 151.953 42.9646 151.806 42.9113C151.659 42.858 151.503 42.808 151.336 42.7613C150.983 42.648 150.716 42.488 150.536 42.2813C150.356 42.068 150.266 41.818 150.266 41.5313C150.266 41.3113 150.319 41.1046 150.426 40.9113C150.539 40.7113 150.709 40.548 150.936 40.4213C151.163 40.2946 151.443 40.2313 151.776 40.2313C152.083 40.2313 152.353 40.268 152.586 40.3413C152.819 40.408 153.036 40.5246 153.236 40.6913L152.836 41.3113C152.716 41.1913 152.573 41.1013 152.406 41.0413C152.246 40.9746 152.099 40.938 151.966 40.9313C151.846 40.9313 151.736 40.9513 151.636 40.9913C151.536 41.0246 151.456 41.078 151.396 41.1513C151.336 41.218 151.306 41.298 151.306 41.3913C151.299 41.5246 151.343 41.6346 151.436 41.7213C151.536 41.8013 151.663 41.868 151.816 41.9213C151.969 41.968 152.119 42.018 152.266 42.0713C152.473 42.1313 152.656 42.2146 152.816 42.3213C152.976 42.4213 153.103 42.5446 153.196 42.6913C153.289 42.838 153.336 43.0246 153.336 43.2513C153.336 43.498 153.276 43.7313 153.156 43.9513C153.036 44.1646 152.853 44.338 152.606 44.4713C152.359 44.598 152.049 44.6613 151.676 44.6613ZM163.37 44.0213C163.263 44.0946 163.103 44.1846 162.89 44.2913C162.683 44.3913 162.437 44.478 162.15 44.5513C161.87 44.6246 161.56 44.658 161.22 44.6513C160.653 44.6446 160.143 44.5446 159.69 44.3513C159.243 44.158 158.863 43.8946 158.55 43.5613C158.237 43.2213 157.993 42.8346 157.82 42.4013C157.653 41.9613 157.57 41.4946 157.57 41.0013C157.57 40.4546 157.657 39.9546 157.83 39.5013C158.003 39.0413 158.25 38.6413 158.57 38.3013C158.897 37.9613 159.277 37.698 159.71 37.5113C160.15 37.3246 160.63 37.2313 161.15 37.2313C161.597 37.2313 162 37.2913 162.36 37.4113C162.72 37.5313 163.023 37.6713 163.27 37.8313L162.85 38.8313C162.657 38.698 162.417 38.5713 162.13 38.4513C161.85 38.3246 161.537 38.2613 161.19 38.2613C160.85 38.2613 160.527 38.3313 160.22 38.4713C159.92 38.6046 159.653 38.7946 159.42 39.0413C159.193 39.2813 159.013 39.5646 158.88 39.8913C158.747 40.2113 158.68 40.5613 158.68 40.9413C158.68 41.328 158.74 41.6846 158.86 42.0113C158.98 42.338 159.15 42.6213 159.37 42.8613C159.597 43.1013 159.867 43.288 160.18 43.4213C160.493 43.5546 160.847 43.6213 161.24 43.6213C161.613 43.6213 161.94 43.5646 162.22 43.4513C162.507 43.338 162.74 43.208 162.92 43.0613L163.37 44.0213ZM164.383 42.4313C164.383 42.0113 164.483 41.6346 164.683 41.3013C164.883 40.9613 165.16 40.6946 165.513 40.5013C165.866 40.308 166.27 40.2113 166.723 40.2113C167.183 40.2113 167.586 40.308 167.933 40.5013C168.28 40.6946 168.546 40.9613 168.733 41.3013C168.926 41.6346 169.023 42.0113 169.023 42.4313C169.023 42.8513 168.926 43.2313 168.733 43.5713C168.546 43.9113 168.28 44.1813 167.933 44.3813C167.586 44.5746 167.18 44.6713 166.713 44.6713C166.266 44.6713 165.866 44.5813 165.513 44.4013C165.166 44.2213 164.89 43.9646 164.683 43.6313C164.483 43.2913 164.383 42.8913 164.383 42.4313ZM165.423 42.4413C165.423 42.7013 165.48 42.938 165.593 43.1513C165.706 43.358 165.86 43.5246 166.053 43.6513C166.246 43.7713 166.463 43.8313 166.703 43.8313C166.95 43.8313 167.17 43.7713 167.363 43.6513C167.556 43.5246 167.706 43.358 167.813 43.1513C167.926 42.938 167.983 42.7013 167.983 42.4413C167.983 42.1813 167.926 41.948 167.813 41.7413C167.706 41.5346 167.556 41.368 167.363 41.2413C167.17 41.1146 166.95 41.0513 166.703 41.0513C166.456 41.0513 166.236 41.1146 166.043 41.2413C165.85 41.368 165.696 41.538 165.583 41.7513C165.476 41.958 165.423 42.188 165.423 42.4413ZM171.161 40.3813L171.251 41.3413L171.211 41.2113C171.351 40.9113 171.568 40.6713 171.861 40.4913C172.155 40.3046 172.501 40.2113 172.901 40.2113C173.295 40.2113 173.618 40.328 173.871 40.5613C174.131 40.7946 174.265 41.098 174.271 41.4713V44.5713H173.241V41.8313C173.235 41.618 173.171 41.4446 173.051 41.3113C172.931 41.1713 172.745 41.098 172.491 41.0913C172.265 41.0913 172.058 41.1613 171.871 41.3013C171.685 41.4346 171.538 41.618 171.431 41.8513C171.325 42.0846 171.271 42.3546 171.271 42.6613V44.5713H170.241V40.3813H171.161ZM176.247 38.5413H177.277V40.3913H178.397V41.2013H177.277V44.5713H176.247V41.2013H175.507V40.3913H176.247V38.5413ZM180.429 40.3813L180.529 41.5813L180.479 41.4213C180.592 41.168 180.752 40.9513 180.959 40.7713C181.165 40.5913 181.379 40.4546 181.599 40.3613C181.825 40.2613 182.015 40.2113 182.169 40.2113L182.119 41.2313C181.799 41.2113 181.519 41.2713 181.279 41.4113C181.045 41.5513 180.862 41.738 180.729 41.9713C180.595 42.2046 180.529 42.4546 180.529 42.7213V44.5713H179.509V40.3813H180.429ZM182.801 42.4313C182.801 42.0113 182.901 41.6346 183.101 41.3013C183.301 40.9613 183.578 40.6946 183.931 40.5013C184.284 40.308 184.688 40.2113 185.141 40.2113C185.601 40.2113 186.004 40.308 186.351 40.5013C186.698 40.6946 186.964 40.9613 187.151 41.3013C187.344 41.6346 187.441 42.0113 187.441 42.4313C187.441 42.8513 187.344 43.2313 187.151 43.5713C186.964 43.9113 186.698 44.1813 186.351 44.3813C186.004 44.5746 185.598 44.6713 185.131 44.6713C184.684 44.6713 184.284 44.5813 183.931 44.4013C183.584 44.2213 183.308 43.9646 183.101 43.6313C182.901 43.2913 182.801 42.8913 182.801 42.4313ZM183.841 42.4413C183.841 42.7013 183.898 42.938 184.011 43.1513C184.124 43.358 184.278 43.5246 184.471 43.6513C184.664 43.7713 184.881 43.8313 185.121 43.8313C185.368 43.8313 185.588 43.7713 185.781 43.6513C185.974 43.5246 186.124 43.358 186.231 43.1513C186.344 42.938 186.401 42.7013 186.401 42.4413C186.401 42.1813 186.344 41.948 186.231 41.7413C186.124 41.5346 185.974 41.368 185.781 41.2413C185.588 41.1146 185.368 41.0513 185.121 41.0513C184.874 41.0513 184.654 41.1146 184.461 41.2413C184.268 41.368 184.114 41.538 184.001 41.7513C183.894 41.958 183.841 42.188 183.841 42.4413ZM188.659 36.8013H189.689V44.5713H188.659V36.8013ZM191.257 36.8013H192.287V44.5713H191.257V36.8013ZM195.824 44.6713C195.338 44.6713 194.921 44.578 194.574 44.3913C194.228 44.198 193.961 43.9346 193.774 43.6013C193.588 43.2613 193.494 42.8746 193.494 42.4413C193.494 42.028 193.598 41.6546 193.804 41.3213C194.018 40.9813 194.301 40.7113 194.654 40.5113C195.014 40.3113 195.411 40.2113 195.844 40.2113C196.404 40.2113 196.868 40.3746 197.234 40.7013C197.608 41.028 197.858 41.4846 197.984 42.0713L194.574 43.2513L194.334 42.6513L197.064 41.6713L196.854 41.8013C196.774 41.5946 196.648 41.4146 196.474 41.2613C196.301 41.1013 196.064 41.0213 195.764 41.0213C195.524 41.0213 195.308 41.0813 195.114 41.2013C194.928 41.3146 194.778 41.4746 194.664 41.6813C194.558 41.8813 194.504 42.118 194.504 42.3913C194.504 42.6713 194.561 42.918 194.674 43.1313C194.794 43.338 194.954 43.5013 195.154 43.6213C195.361 43.7413 195.591 43.8013 195.844 43.8013C196.024 43.8013 196.194 43.768 196.354 43.7013C196.521 43.6346 196.678 43.5513 196.824 43.4513L197.294 44.2113C197.074 44.3513 196.834 44.4646 196.574 44.5513C196.321 44.6313 196.071 44.6713 195.824 44.6713ZM200.048 40.3813L200.148 41.5813L200.098 41.4213C200.211 41.168 200.371 40.9513 200.578 40.7713C200.785 40.5913 200.998 40.4546 201.218 40.3613C201.445 40.2613 201.635 40.2113 201.788 40.2113L201.738 41.2313C201.418 41.2113 201.138 41.2713 200.898 41.4113C200.665 41.5513 200.481 41.738 200.348 41.9713C200.215 42.2046 200.148 42.4546 200.148 42.7213V44.5713H199.128V40.3813H200.048Z" fill="#446381"/>
<path d="M120.32 63.68V59.34L120.72 58.87V54.96H121.56V59.15L121.16 59.76V63.68H120.32ZM122.88 57.42C122.6 57.2667 122.313 57.14 122.02 57.04C121.733 56.94 121.463 56.89 121.21 56.89C120.897 56.89 120.65 56.9533 120.47 57.08C120.29 57.2067 120.2 57.3967 120.2 57.65C120.2 57.8233 120.267 57.98 120.4 58.12C120.54 58.2533 120.717 58.3733 120.93 58.48C121.15 58.5867 121.377 58.6833 121.61 58.77C121.823 58.85 122.033 58.9467 122.24 59.06C122.453 59.1667 122.643 59.3033 122.81 59.47C122.977 59.63 123.11 59.8333 123.21 60.08C123.31 60.32 123.36 60.6167 123.36 60.97C123.36 61.3433 123.263 61.69 123.07 62.01C122.877 62.33 122.593 62.59 122.22 62.79C121.847 62.9833 121.387 63.08 120.84 63.08C120.56 63.08 120.273 63.0533 119.98 63C119.693 62.94 119.41 62.8533 119.13 62.74C118.85 62.62 118.58 62.47 118.32 62.29L118.96 61.16C119.133 61.2867 119.32 61.4 119.52 61.5C119.727 61.5933 119.933 61.6667 120.14 61.72C120.347 61.7733 120.537 61.8 120.71 61.8C120.883 61.8 121.057 61.7767 121.23 61.73C121.41 61.6767 121.557 61.59 121.67 61.47C121.79 61.35 121.85 61.1833 121.85 60.97C121.85 60.8233 121.8 60.69 121.7 60.57C121.607 60.45 121.477 60.34 121.31 60.24C121.15 60.14 120.973 60.0533 120.78 59.98C120.553 59.8933 120.32 59.7933 120.08 59.68C119.84 59.5667 119.613 59.43 119.4 59.27C119.193 59.1033 119.023 58.9 118.89 58.66C118.763 58.4133 118.7 58.1133 118.7 57.76C118.7 57.3333 118.793 56.9633 118.98 56.65C119.173 56.3367 119.443 56.09 119.79 55.91C120.137 55.7233 120.537 55.62 120.99 55.6C121.583 55.6 122.063 55.67 122.43 55.81C122.803 55.95 123.137 56.1167 123.43 56.31L122.88 57.42ZM126.094 63.08C125.7 63.08 125.317 63.0067 124.944 62.86C124.57 62.7133 124.28 62.5367 124.074 62.33L124.824 61.17C124.944 61.3167 125.114 61.44 125.334 61.54C125.56 61.6333 125.777 61.68 125.984 61.68C126.137 61.68 126.28 61.6467 126.414 61.58C126.547 61.5133 126.654 61.4133 126.734 61.28C126.814 61.1467 126.854 60.9833 126.854 60.79C126.854 60.5767 126.81 60.39 126.724 60.23C126.644 60.07 126.524 59.9467 126.364 59.86C126.21 59.7667 126.027 59.72 125.814 59.72C125.607 59.72 125.41 59.75 125.224 59.81C125.037 59.8633 124.817 59.9567 124.564 60.09H124.554V56.37H127.864V57.77H125.804V58.84L125.634 58.54C125.727 58.5267 125.817 58.5167 125.904 58.51C125.99 58.5033 126.077 58.5 126.164 58.5C126.63 58.5 127.024 58.6033 127.344 58.81C127.67 59.0167 127.92 59.29 128.094 59.63C128.267 59.97 128.354 60.34 128.354 60.74C128.354 61.18 128.254 61.5767 128.054 61.93C127.854 62.2833 127.58 62.5633 127.234 62.77C126.894 62.9767 126.514 63.08 126.094 63.08ZM131.99 63.01C131.61 63.01 131.25 62.9433 130.91 62.81C130.576 62.6767 130.28 62.4733 130.02 62.2C129.766 61.92 129.566 61.57 129.42 61.15C129.273 60.7233 129.2 60.2233 129.2 59.65C129.2 59.01 129.27 58.4767 129.41 58.05C129.55 57.6167 129.743 57.27 129.99 57.01C130.243 56.75 130.54 56.5667 130.88 56.46C131.22 56.3467 131.59 56.29 131.99 56.29C132.37 56.29 132.726 56.3567 133.06 56.49C133.4 56.6233 133.696 56.83 133.95 57.11C134.21 57.3833 134.413 57.7333 134.56 58.16C134.706 58.58 134.78 59.0767 134.78 59.65C134.78 60.2433 134.706 60.7533 134.56 61.18C134.413 61.6067 134.21 61.9567 133.95 62.23C133.69 62.4967 133.393 62.6933 133.06 62.82C132.726 62.9467 132.37 63.01 131.99 63.01ZM131.98 61.62C132.313 61.62 132.573 61.5333 132.76 61.36C132.946 61.18 133.076 60.9367 133.15 60.63C133.23 60.3233 133.27 59.9833 133.27 59.61C133.27 59.2433 133.23 58.9167 133.15 58.63C133.076 58.3433 132.946 58.1167 132.76 57.95C132.573 57.7767 132.313 57.69 131.98 57.69C131.653 57.69 131.396 57.7767 131.21 57.95C131.023 58.1233 130.893 58.3567 130.82 58.65C130.746 58.9433 130.71 59.2733 130.71 59.64C130.71 60.0067 130.746 60.34 130.82 60.64C130.893 60.94 131.023 61.18 131.21 61.36C131.396 61.5333 131.653 61.62 131.98 61.62ZM141.561 55.64C142.168 55.64 142.681 55.7433 143.101 55.95C143.521 56.15 143.841 56.4367 144.061 56.81C144.281 57.1767 144.391 57.6133 144.391 58.12C144.391 58.42 144.344 58.7233 144.251 59.03C144.164 59.33 144.021 59.6033 143.821 59.85C143.628 60.0967 143.364 60.2967 143.031 60.45C142.704 60.5967 142.301 60.67 141.821 60.67H140.781V63H139.331V55.64H141.561ZM141.811 59.26C142.031 59.26 142.214 59.2233 142.361 59.15C142.508 59.07 142.621 58.9733 142.701 58.86C142.788 58.74 142.848 58.6167 142.881 58.49C142.921 58.3633 142.941 58.2533 142.941 58.16C142.941 58.0867 142.928 57.99 142.901 57.87C142.881 57.7433 142.834 57.6167 142.761 57.49C142.688 57.3633 142.574 57.2567 142.421 57.17C142.274 57.0833 142.074 57.04 141.821 57.04H140.781V59.26H141.811ZM147.608 63.12C147.075 63.12 146.622 63.02 146.248 62.82C145.882 62.62 145.602 62.3433 145.408 61.99C145.215 61.6367 145.118 61.23 145.118 60.77C145.118 60.33 145.232 59.9333 145.458 59.58C145.685 59.2267 145.988 58.9467 146.368 58.74C146.748 58.5267 147.172 58.42 147.638 58.42C148.265 58.42 148.778 58.6033 149.178 58.97C149.585 59.33 149.848 59.8533 149.968 60.54L146.568 61.62L146.258 60.86L148.718 60.03L148.428 60.16C148.375 59.9867 148.278 59.8367 148.138 59.71C148.005 59.5767 147.802 59.51 147.528 59.51C147.322 59.51 147.138 59.56 146.978 59.66C146.825 59.7533 146.705 59.89 146.618 60.07C146.538 60.2433 146.498 60.45 146.498 60.69C146.498 60.9633 146.548 61.1933 146.648 61.38C146.748 61.56 146.885 61.6967 147.058 61.79C147.232 61.8833 147.425 61.93 147.638 61.93C147.792 61.93 147.938 61.9033 148.078 61.85C148.225 61.7967 148.368 61.7267 148.508 61.64L149.128 62.68C148.895 62.8133 148.642 62.92 148.368 63C148.102 63.08 147.848 63.12 147.608 63.12ZM152.246 58.63L152.376 59.83L152.346 59.65C152.472 59.39 152.646 59.17 152.866 58.99C153.086 58.8033 153.302 58.66 153.516 58.56C153.736 58.46 153.902 58.41 154.016 58.41L153.946 59.81C153.619 59.77 153.339 59.8233 153.106 59.97C152.872 60.1167 152.692 60.31 152.566 60.55C152.439 60.79 152.376 61.0367 152.376 61.29V63H150.986V58.63H152.246ZM164.759 55.64V63H163.309V60.01H160.019V63H158.569V55.64H160.019V58.61H163.309V55.64H164.759ZM166.085 60.76C166.085 60.3133 166.188 59.9133 166.395 59.56C166.608 59.2067 166.905 58.93 167.285 58.73C167.665 58.5233 168.102 58.42 168.595 58.42C169.095 58.42 169.528 58.5233 169.895 58.73C170.262 58.93 170.542 59.2067 170.735 59.56C170.935 59.9133 171.035 60.3133 171.035 60.76C171.035 61.2067 170.935 61.61 170.735 61.97C170.542 62.3233 170.262 62.6033 169.895 62.81C169.528 63.0167 169.088 63.12 168.575 63.12C168.095 63.12 167.665 63.0267 167.285 62.84C166.912 62.6533 166.618 62.3833 166.405 62.03C166.192 61.6767 166.085 61.2533 166.085 60.76ZM167.495 60.77C167.495 60.9967 167.542 61.2033 167.635 61.39C167.728 61.57 167.855 61.7133 168.015 61.82C168.175 61.9267 168.355 61.98 168.555 61.98C168.775 61.98 168.965 61.9267 169.125 61.82C169.285 61.7133 169.408 61.57 169.495 61.39C169.582 61.2033 169.625 60.9967 169.625 60.77C169.625 60.5367 169.582 60.33 169.495 60.15C169.408 59.97 169.285 59.8267 169.125 59.72C168.965 59.6133 168.775 59.56 168.555 59.56C168.355 59.56 168.175 59.6133 168.015 59.72C167.855 59.8267 167.728 59.97 167.635 60.15C167.542 60.33 167.495 60.5367 167.495 60.77ZM173.548 63.21C173.155 63.21 172.825 63.09 172.558 62.85C172.291 62.6033 172.151 62.2867 172.138 61.9V58.63H173.538V61.38C173.551 61.5733 173.601 61.73 173.688 61.85C173.775 61.9633 173.921 62.02 174.128 62.02C174.335 62.02 174.511 61.95 174.658 61.81C174.811 61.67 174.928 61.48 175.008 61.24C175.095 60.9933 175.138 60.7167 175.138 60.41V58.63H176.538V63H175.268L175.158 62.2L175.178 62.29C175.078 62.47 174.951 62.63 174.798 62.77C174.645 62.91 174.461 63.0167 174.248 63.09C174.041 63.17 173.808 63.21 173.548 63.21ZM179.238 58.63L179.368 59.83L179.338 59.65C179.464 59.39 179.638 59.17 179.858 58.99C180.078 58.8033 180.294 58.66 180.508 58.56C180.728 58.46 180.894 58.41 181.008 58.41L180.938 59.81C180.611 59.77 180.331 59.8233 180.098 59.97C179.864 60.1167 179.684 60.31 179.558 60.55C179.431 60.79 179.368 61.0367 179.368 61.29V63H177.978V58.63H179.238Z" fill="#EB8382"/>
<path d="M171.963 74.9301H173.387V80.2021H172.531V75.7541H171.963V74.9301ZM174.636 80.2021C174.966 79.8661 175.286 79.5408 175.596 79.2261C175.905 78.9115 176.182 78.6048 176.428 78.3061C176.678 78.0075 176.873 77.7195 177.012 77.4421C177.156 77.1648 177.228 76.8955 177.228 76.6341C177.228 76.4741 177.201 76.3355 177.148 76.2181C177.1 76.0955 177.03 75.9968 176.94 75.9221C176.849 75.8421 176.748 75.7835 176.636 75.7461C176.524 75.7035 176.404 75.6821 176.276 75.6821C176.11 75.6821 175.969 75.7088 175.852 75.7621C175.734 75.8155 175.638 75.8848 175.564 75.9701C175.494 76.0501 175.441 76.1381 175.404 76.2341C175.366 76.3301 175.348 76.4261 175.348 76.5221C175.348 76.6981 175.374 76.8555 175.428 76.9941C175.486 77.1328 175.564 77.2528 175.66 77.3541L175.14 77.8341C175.006 77.7541 174.892 77.6395 174.796 77.4901C174.705 77.3355 174.636 77.1728 174.588 77.0021C174.54 76.8315 174.516 76.6795 174.516 76.5461C174.516 76.2528 174.588 75.9808 174.732 75.7301C174.881 75.4741 175.097 75.2661 175.38 75.1061C175.668 74.9461 176.014 74.8661 176.42 74.8661C176.761 74.8661 177.057 74.9435 177.308 75.0981C177.564 75.2528 177.761 75.4608 177.9 75.7221C178.044 75.9781 178.116 76.2581 178.116 76.5621C178.116 76.8235 178.065 77.0795 177.964 77.3301C177.862 77.5808 177.726 77.8288 177.556 78.0741C177.39 78.3141 177.204 78.5541 176.996 78.7941C176.793 79.0288 176.59 79.2661 176.388 79.5061L176.004 79.3781H178.268V80.2021H174.636ZM180.577 80.2661C180.289 80.2661 180.012 80.2128 179.745 80.1061C179.479 79.9995 179.265 79.8688 179.105 79.7141L179.553 79.0421C179.66 79.1648 179.801 79.2635 179.977 79.3381C180.159 79.4128 180.335 79.4501 180.505 79.4501C180.692 79.4501 180.855 79.4101 180.993 79.3301C181.137 79.2501 181.249 79.1381 181.329 78.9941C181.415 78.8501 181.457 78.6848 181.457 78.4981C181.457 78.2955 181.42 78.1168 181.345 77.9621C181.271 77.8021 181.159 77.6768 181.009 77.5861C180.86 77.4955 180.679 77.4501 180.465 77.4501C180.284 77.4501 180.113 77.4768 179.953 77.5301C179.799 77.5781 179.631 77.6528 179.449 77.7541H179.441V74.9301H181.985V75.7461H180.185V76.9941L180.073 76.8181C180.164 76.7915 180.26 76.7701 180.361 76.7541C180.463 76.7381 180.564 76.7301 180.665 76.7301C181.028 76.7301 181.332 76.8101 181.577 76.9701C181.828 77.1301 182.017 77.3408 182.145 77.6021C182.273 77.8635 182.337 78.1515 182.337 78.4661C182.337 78.8021 182.26 79.1061 182.105 79.3781C181.956 79.6501 181.748 79.8661 181.481 80.0261C181.215 80.1861 180.913 80.2661 180.577 80.2661ZM184.589 76.8661H185.341V77.9701H186.421V78.6901H185.341V79.7861H184.589V78.6901H183.509V77.9701H184.589V76.8661ZM189.619 74.3941C189.923 74.3941 190.203 74.4368 190.459 74.5221C190.721 74.6021 190.942 74.7195 191.123 74.8741C191.31 75.0288 191.454 75.2208 191.555 75.4501C191.662 75.6741 191.715 75.9355 191.715 76.2341C191.715 76.4635 191.681 76.6901 191.611 76.9141C191.542 77.1381 191.43 77.3408 191.275 77.5221C191.121 77.7035 190.918 77.8501 190.667 77.9621C190.417 78.0688 190.105 78.1221 189.731 78.1221H188.883V80.2021H188.027V74.3941H189.619ZM189.715 77.3061C189.934 77.3061 190.115 77.2715 190.259 77.2021C190.409 77.1328 190.523 77.0475 190.603 76.9461C190.689 76.8395 190.747 76.7275 190.779 76.6101C190.817 76.4875 190.835 76.3701 190.835 76.2581C190.835 76.1515 190.817 76.0395 190.779 75.9221C190.747 75.8048 190.689 75.6928 190.603 75.5861C190.523 75.4795 190.414 75.3915 190.275 75.3221C190.137 75.2528 189.966 75.2181 189.763 75.2181H188.883V77.3061H189.715ZM190.699 77.8021L192.203 80.2021H191.211L189.683 77.8261L190.699 77.8021ZM194.623 80.2821C194.233 80.2821 193.9 80.2075 193.623 80.0581C193.345 79.9035 193.132 79.6928 192.983 79.4261C192.833 79.1541 192.759 78.8448 192.759 78.4981C192.759 78.1675 192.841 77.8688 193.007 77.6021C193.177 77.3301 193.404 77.1141 193.687 76.9541C193.975 76.7941 194.292 76.7141 194.639 76.7141C195.087 76.7141 195.457 76.8448 195.751 77.1061C196.049 77.3675 196.249 77.7328 196.351 78.2021L193.623 79.1461L193.431 78.6661L195.615 77.8821L195.447 77.9861C195.383 77.8208 195.281 77.6768 195.143 77.5541C195.004 77.4261 194.815 77.3621 194.575 77.3621C194.383 77.3621 194.209 77.4101 194.055 77.5061C193.905 77.5968 193.785 77.7248 193.695 77.8901C193.609 78.0501 193.567 78.2395 193.567 78.4581C193.567 78.6821 193.612 78.8795 193.703 79.0501C193.799 79.2155 193.927 79.3461 194.087 79.4421C194.252 79.5381 194.436 79.5861 194.639 79.5861C194.783 79.5861 194.919 79.5595 195.047 79.5061C195.18 79.4528 195.305 79.3861 195.423 79.3061L195.799 79.9141C195.623 80.0261 195.431 80.1168 195.223 80.1861C195.02 80.2501 194.82 80.2821 194.623 80.2821ZM198.54 80.2901L196.644 76.8501H197.62L198.852 79.4421L198.348 79.4181L199.468 76.8501H200.388L198.572 80.2901H198.54ZM201.156 76.8501H201.98V80.2021H201.156V76.8501ZM201.108 75.6501C201.108 75.5221 201.159 75.4155 201.26 75.3301C201.361 75.2448 201.471 75.2021 201.588 75.2021C201.711 75.2021 201.82 75.2448 201.916 75.3301C202.012 75.4155 202.06 75.5221 202.06 75.6501C202.06 75.7781 202.012 75.8848 201.916 75.9701C201.82 76.0501 201.711 76.0901 201.588 76.0901C201.471 76.0901 201.361 76.0501 201.26 75.9701C201.159 75.8848 201.108 75.7781 201.108 75.6501ZM204.81 80.2821C204.421 80.2821 204.087 80.2075 203.81 80.0581C203.533 79.9035 203.319 79.6928 203.17 79.4261C203.021 79.1541 202.946 78.8448 202.946 78.4981C202.946 78.1675 203.029 77.8688 203.194 77.6021C203.365 77.3301 203.591 77.1141 203.874 76.9541C204.162 76.7941 204.479 76.7141 204.826 76.7141C205.274 76.7141 205.645 76.8448 205.938 77.1061C206.237 77.3675 206.437 77.7328 206.538 78.2021L203.81 79.1461L203.618 78.6661L205.802 77.8821L205.634 77.9861C205.57 77.8208 205.469 77.6768 205.33 77.5541C205.191 77.4261 205.002 77.3621 204.762 77.3621C204.57 77.3621 204.397 77.4101 204.242 77.5061C204.093 77.5968 203.973 77.7248 203.882 77.8901C203.797 78.0501 203.754 78.2395 203.754 78.4581C203.754 78.6821 203.799 78.8795 203.89 79.0501C203.986 79.2155 204.114 79.3461 204.274 79.4421C204.439 79.5381 204.623 79.5861 204.826 79.5861C204.97 79.5861 205.106 79.5595 205.234 79.5061C205.367 79.4528 205.493 79.3861 205.61 79.3061L205.986 79.9141C205.81 80.0261 205.618 80.1168 205.41 80.1861C205.207 80.2501 205.007 80.2821 204.81 80.2821ZM209.559 76.8501L210.495 79.0021L210.335 79.0101L211.191 76.8501H211.999L210.463 80.4021L209.391 78.1221L208.407 80.4021L206.863 76.8501H207.671L208.663 79.1061L208.375 79.0581L209.095 77.3941L208.847 76.8501H209.559Z" fill="#446381"/>
<g clip-path="url(#clip0_13452_1716)">
<path d="M150.46 81.0137C150.296 81.0976 150.111 80.9505 150.144 80.7626L150.496 78.7566L149.002 77.3333C148.862 77.2001 148.935 76.9567 149.122 76.9304L151.199 76.6352L152.125 74.8001C152.209 74.6347 152.435 74.6347 152.518 74.8001L153.444 76.6352L155.522 76.9304C155.709 76.9567 155.781 77.2001 155.641 77.3333L154.148 78.7566L154.5 80.7626C154.533 80.9505 154.347 81.0976 154.183 81.0137L152.321 80.0569L150.46 81.0137H150.46Z" fill="#FFB359"/>
</g>
<g clip-path="url(#clip1_13452_1716)">
<path d="M140.282 81.0137C140.118 81.0976 139.932 80.9505 139.965 80.7626L140.317 78.7566L138.823 77.3333C138.684 77.2001 138.756 76.9567 138.943 76.9304L141.021 76.6352L141.947 74.8001C142.03 74.6347 142.256 74.6347 142.34 74.8001L143.266 76.6352L145.344 76.9304C145.531 76.9567 145.603 77.2001 145.463 77.3333L143.969 78.7566L144.321 80.7626C144.354 80.9505 144.169 81.0976 144.005 81.0137L142.143 80.0569L140.281 81.0137H140.282Z" fill="#FFB359"/>
</g>
<g clip-path="url(#clip2_13452_1716)">
<path d="M130.103 81.0137C129.939 81.0976 129.754 80.9505 129.787 80.7626L130.139 78.7566L128.645 77.3333C128.505 77.2001 128.578 76.9567 128.765 76.9304L130.842 76.6352L131.768 74.8001C131.852 74.6347 132.078 74.6347 132.161 74.8001L133.088 76.6352L135.165 76.9304C135.352 76.9567 135.424 77.2001 135.284 77.3333L133.791 78.7566L134.143 80.7626C134.176 80.9505 133.99 81.0976 133.826 81.0137L131.964 80.0569L130.103 81.0137H130.103Z" fill="#FFB359"/>
</g>
<g clip-path="url(#clip3_13452_1716)">
<path d="M119.924 81.0137C119.761 81.0976 119.575 80.9505 119.608 80.7626L119.96 78.7566L118.466 77.3333C118.326 77.2001 118.399 76.9567 118.586 76.9304L120.663 76.6352L121.589 74.8001C121.673 74.6347 121.899 74.6347 121.983 74.8001L122.909 76.6352L124.986 76.9304C125.173 76.9567 125.246 77.2001 125.106 77.3333L123.612 78.7566L123.964 80.7626C123.997 80.9505 123.811 81.0976 123.648 81.0137L121.785 80.0569L119.924 81.0137H119.924Z" fill="#FFB359"/>
</g>
<g clip-path="url(#clip4_13452_1716)">
<path d="M160.639 81.0137C160.475 81.0976 160.289 80.9505 160.322 80.7626L160.674 78.7566L159.18 77.3333C159.041 77.2001 159.113 76.9567 159.3 76.9304L161.378 76.6352L162.304 74.8001C162.387 74.6347 162.613 74.6347 162.697 74.8001L163.623 76.6352L165.7 76.9304C165.887 76.9567 165.96 77.2001 165.82 77.3333L164.326 78.7566L164.678 80.7626C164.711 80.9505 164.526 81.0976 164.362 81.0137L162.5 80.0569L160.638 81.0137H160.639Z" fill="#FFB359"/>
</g>
</g>
<defs>
<filter id="filter0_d_13452_1716" x="0" y="0" width="251.488" height="135" filterUnits="userSpaceOnUse" color-interpolation-filters="sRGB">
<feFlood flood-opacity="0" result="BackgroundImageFix"/>
<feColorMatrix in="SourceAlpha" type="matrix" values="0 0 0 0 0 0 0 0 0 0 0 0 0 0 0 0 0 0 127 0" result="hardAlpha"/>
<feOffset dy="10"/>
<feGaussianBlur stdDeviation="10"/>
<feComposite in2="hardAlpha" operator="out"/>
<feColorMatrix type="matrix" values="0 0 0 0 0.921569 0 0 0 0 0.513726 0 0 0 0 0.509804 0 0 0 0.4 0"/>
<feBlend mode="normal" in2="BackgroundImageFix" result="effect1_dropShadow_13452_1716"/>
<feBlend mode="normal" in="SourceGraphic" in2="effect1_dropShadow_13452_1716" result="shape"/>
</filter>
<linearGradient id="paint0_linear_13452_1716" x1="51.8319" y1="28.5982" x2="50.2203" y2="35.5051" gradientUnits="userSpaceOnUse">
<stop stop-color="#E474C6"/>
<stop offset="0.9892" stop-color="#0E7CF7"/>
</linearGradient>
<linearGradient id="paint1_linear_13452_1716" x1="84.1175" y1="28.6264" x2="87.5998" y2="35.0281" gradientUnits="userSpaceOnUse">
<stop stop-color="#E474C6"/>
<stop offset="0.9892" stop-color="#0E7CF7"/>
</linearGradient>
<linearGradient id="paint2_linear_13452_1716" x1="69.1234" y1="42.9601" x2="68.9358" y2="79.0233" gradientUnits="userSpaceOnUse">
<stop stop-color="#826F8C"/>
<stop offset="1" stop-color="#446381"/>
</linearGradient>
<linearGradient id="paint3_linear_13452_1716" x1="69.3637" y1="33.2292" x2="68.6673" y2="99.7517" gradientUnits="userSpaceOnUse">
<stop stop-color="#826F8C"/>
<stop offset="0.9946" stop-color="#446381"/>
</linearGradient>
<linearGradient id="paint4_linear_13452_1716" x1="70.6205" y1="30.1853" x2="68.8208" y2="73.2428" gradientUnits="userSpaceOnUse">
<stop stop-color="#8F4EB6"/>
<stop offset="0.9946" stop-color="#446381"/>
</linearGradient>
<linearGradient id="paint5_linear_13452_1716" x1="60.2257" y1="49.3086" x2="59.9007" y2="61.2991" gradientUnits="userSpaceOnUse">
<stop stop-color="#8F4EB6"/>
<stop offset="0.9946" stop-color="#5141AE"/>
</linearGradient>
<linearGradient id="paint6_linear_13452_1716" x1="60.0615" y1="52.5854" x2="59.9754" y2="69.1289" gradientUnits="userSpaceOnUse">
<stop stop-color="#6F469E"/>
<stop offset="1" stop-color="#360F6E"/>
</linearGradient>
<linearGradient id="paint7_linear_13452_1716" x1="54.8331" y1="53.2012" x2="64.0293" y2="53.2491" gradientUnits="userSpaceOnUse">
<stop stop-color="#CB9DFF"/>
<stop offset="0.9892" stop-color="#796AFB"/>
</linearGradient>
<linearGradient id="paint8_linear_13452_1716" x1="59.1309" y1="50.6973" x2="60.3888" y2="61.2954" gradientUnits="userSpaceOnUse">
<stop stop-color="#CB9DFF"/>
<stop offset="0.9892" stop-color="#796AFB"/>
</linearGradient>
<linearGradient id="paint9_linear_13452_1716" x1="75.4087" y1="47.1085" x2="75.5066" y2="61.9461" gradientUnits="userSpaceOnUse">
<stop stop-color="#8F4EB6"/>
<stop offset="0.9946" stop-color="#5141AE"/>
</linearGradient>
<linearGradient id="paint10_linear_13452_1716" x1="75.4858" y1="52.6656" x2="75.3997" y2="69.2091" gradientUnits="userSpaceOnUse">
<stop stop-color="#6F469E"/>
<stop offset="1" stop-color="#360F6E"/>
</linearGradient>
<linearGradient id="paint11_linear_13452_1716" x1="70.257" y1="53.2816" x2="79.4531" y2="53.3295" gradientUnits="userSpaceOnUse">
<stop stop-color="#CB9DFF"/>
<stop offset="0.9892" stop-color="#796AFB"/>
</linearGradient>
<linearGradient id="paint12_linear_13452_1716" x1="74.3316" y1="48.8933" x2="75.5894" y2="59.4915" gradientUnits="userSpaceOnUse">
<stop stop-color="#CB9DFF"/>
<stop offset="0.9892" stop-color="#796AFB"/>
</linearGradient>
<linearGradient id="paint13_linear_13452_1716" x1="87.62" y1="36.6139" x2="87.5328" y2="44.9729" gradientUnits="userSpaceOnUse">
<stop stop-color="#8F4EB6"/>
<stop offset="0.9946" stop-color="#5141AE"/>
</linearGradient>
<linearGradient id="paint14_linear_13452_1716" x1="86.9239" y1="37.4568" x2="88.1147" y2="44.1155" gradientUnits="userSpaceOnUse">
<stop stop-color="#D2F9FF"/>
<stop offset="0.9946" stop-color="#618DD6"/>
</linearGradient>
<linearGradient id="paint15_linear_13452_1716" x1="87.6083" y1="45.3536" x2="87.4877" y2="51.6991" gradientUnits="userSpaceOnUse">
<stop stop-color="#8F4EB6"/>
<stop offset="0.9946" stop-color="#5141AE"/>
</linearGradient>
<linearGradient id="paint16_linear_13452_1716" x1="87.041" y1="46.7861" x2="87.9769" y2="51.9554" gradientUnits="userSpaceOnUse">
<stop stop-color="#D2F9FF"/>
<stop offset="0.9946" stop-color="#618DD6"/>
</linearGradient>
<linearGradient id="paint17_linear_13452_1716" x1="92.0613" y1="39.8716" x2="91.9369" y2="46.9612" gradientUnits="userSpaceOnUse">
<stop stop-color="#8F4EB6"/>
<stop offset="0.9946" stop-color="#5141AE"/>
</linearGradient>
<linearGradient id="paint18_linear_13452_1716" x1="91.0042" y1="42.1849" x2="92.8985" y2="48.2346" gradientUnits="userSpaceOnUse">
<stop stop-color="#D2F9FF"/>
<stop offset="0.9946" stop-color="#618DD6"/>
</linearGradient>
<linearGradient id="paint19_linear_13452_1716" x1="83.6053" y1="41.28" x2="83.7025" y2="47.8455" gradientUnits="userSpaceOnUse">
<stop stop-color="#8F4EB6"/>
<stop offset="0.9946" stop-color="#5141AE"/>
</linearGradient>
<linearGradient id="paint20_linear_13452_1716" x1="83.1319" y1="42.7395" x2="84.2429" y2="47.9098" gradientUnits="userSpaceOnUse">
<stop stop-color="#D2F9FF"/>
<stop offset="0.9946" stop-color="#618DD6"/>
</linearGradient>
<linearGradient id="paint21_linear_13452_1716" x1="49.4526" y1="32.9927" x2="49.8776" y2="52.2523" gradientUnits="userSpaceOnUse">
<stop stop-color="#8F4EB6"/>
<stop offset="0.9946" stop-color="#5141AE"/>
</linearGradient>
<linearGradient id="paint22_linear_13452_1716" x1="52.5378" y1="32.2612" x2="48.0692" y2="49.9198" gradientUnits="userSpaceOnUse">
<stop stop-color="#E474C6"/>
<stop offset="0.9892" stop-color="#0E7CF7"/>
</linearGradient>
<linearGradient id="paint23_linear_13452_1716" x1="47.8939" y1="37.6601" x2="50.6479" y2="46.6903" gradientUnits="userSpaceOnUse">
<stop stop-color="#D2F9FF"/>
<stop offset="0.9946" stop-color="#618DD6"/>
</linearGradient>
<linearGradient id="paint24_linear_13452_1716" x1="64.5985" y1="42.984" x2="64.4791" y2="49.1109" gradientUnits="userSpaceOnUse">
<stop stop-color="#E474C6"/>
<stop offset="0.9892" stop-color="#7142A2"/>
</linearGradient>
<linearGradient id="paint25_linear_13452_1716" x1="72.8417" y1="43.1449" x2="72.7222" y2="49.2718" gradientUnits="userSpaceOnUse">
<stop stop-color="#E474C6"/>
<stop offset="0.9892" stop-color="#7142A2"/>
</linearGradient>
<clipPath id="clip0_13452_1716">
<rect width="6.78571" height="6.78571" fill="white" transform="translate(148.928 74.4641)"/>
</clipPath>
<clipPath id="clip1_13452_1716">
<rect width="6.78571" height="6.78571" fill="white" transform="translate(138.75 74.4641)"/>
</clipPath>
<clipPath id="clip2_13452_1716">
<rect width="6.78571" height="6.78571" fill="white" transform="translate(128.571 74.4641)"/>
</clipPath>
<clipPath id="clip3_13452_1716">
<rect width="6.78571" height="6.78571" fill="white" transform="translate(118.393 74.4641)"/>
</clipPath>
<clipPath id="clip4_13452_1716">
<rect width="6.78571" height="6.78571" fill="white" transform="translate(159.107 74.4641)"/>
</clipPath>
</defs>
</svg>
