<svg width="74" height="53" viewBox="0 0 74 53" fill="none" xmlns="http://www.w3.org/2000/svg">
<path d="M14.7519 1.63372C17.2777 1.11004 19.8024 0.801078 22.3257 0.760525C23.1846 0.764995 23.878 1.62753 23.8724 2.70115C23.8076 4.84812 23.5817 6.99425 23.1413 9.08559C20.086 8.21077 16.9739 7.92616 13.8606 7.85627C13.9224 6.2998 13.7695 4.7422 13.5626 3.23801C13.4051 2.53932 13.9459 1.79057 14.7519 1.63372Z" fill="url(#paint0_linear_13474_280)"/>
<path d="M59.2539 1.86559C56.7336 1.31565 54.2123 0.980429 51.6896 0.913619C50.8307 0.909149 50.1283 1.76442 50.1228 2.83804C50.1653 4.98557 50.3688 7.13394 50.7874 9.22974C53.8517 8.38676 56.9666 8.13456 60.0804 8.09708C60.0348 6.54004 60.2039 4.98413 60.4265 3.48217C60.5912 2.78515 60.0583 2.03082 59.2539 1.86559Z" fill="url(#paint1_linear_13474_280)"/>
<path d="M72.6041 36.0772C72.029 33.1217 71.1318 30.1645 70.4479 27.4768C68.9202 21.8858 66.9625 16.4 64.8968 11.021C63.5195 7.47075 60.1499 5.09118 56.3386 5.07135L54.245 5.06045C51.9904 5.04872 49.785 5.89617 48.0594 7.3903L46.4414 8.83131C44.4996 10.5927 41.9179 11.5456 39.2875 11.5319L37.0866 11.5205L34.8857 11.509C32.2553 11.4953 29.7373 10.5159 27.7603 8.7341L26.1574 7.27633C24.4474 5.76432 22.3047 4.89424 19.9964 4.88223L18.0102 4.8719C14.1988 4.85206 10.8046 7.19644 9.39044 10.7321C7.26865 16.143 5.25424 21.5545 3.66843 27.1293C2.90292 29.8094 2.02894 32.7037 1.4228 35.7068C0.70707 39.1388 0.367104 42.5727 1.04848 45.7435C2.30582 51.7088 9.96631 54.8086 14.8728 50.7006C17.5686 48.4599 21.565 43.864 24.3204 40.4964C26.3731 38.0376 29.3865 36.6576 32.5537 36.674L37.063 36.6975L41.5722 36.721C44.7394 36.7375 47.738 38.2025 49.7653 40.6288C52.4857 43.9712 56.4338 48.6622 59.1061 50.9308C63.9696 55.0896 71.662 52.0698 72.9813 46.1178C73.5883 42.9537 73.2841 39.5164 72.6041 36.0772Z" fill="url(#paint2_linear_13474_280)"/>
<path d="M72.6136 34.1986C72.0385 31.243 71.1413 28.2858 70.4574 25.5981C68.9297 20.0072 66.972 14.5213 64.9063 9.14232C63.5291 5.59209 60.1594 3.21252 56.3481 3.19268L54.2545 3.18179C51.9999 3.17006 49.7945 4.01751 48.0689 5.51164L46.4509 6.95265C44.5092 8.71408 41.9274 9.66693 39.297 9.65324L37.0961 9.64179L34.8952 9.63034C32.2648 9.61665 29.7468 8.63726 27.7698 6.85544L26.1669 5.39767C24.457 3.88566 22.3142 3.01558 20.0059 3.00357L18.0197 2.99323C14.2083 2.9734 10.8141 5.31778 9.39996 8.85347C7.27846 14.2107 5.26376 19.6759 3.67795 25.2506C2.91245 27.9307 2.03846 30.8251 1.43233 33.8281C0.716592 37.2601 0.376625 40.694 1.058 43.8649C2.31534 49.8302 9.97583 52.93 14.8823 48.8219C17.5781 46.5813 21.5746 41.9854 24.3299 38.6177C26.3826 36.159 29.3961 34.7789 32.5632 34.7954L37.0725 34.8188L41.5817 34.8423C44.7489 34.8588 47.7475 36.3238 49.7748 38.7501C52.4952 42.0926 56.4433 46.7835 59.1157 49.0521C63.9792 53.211 71.6715 50.1911 72.9908 44.2392C73.5978 41.0751 73.2939 37.5841 72.6136 34.1986Z" fill="url(#paint3_linear_13474_280)"/>
<path d="M72.9025 40.588C71.5913 44.9832 63.9029 47.2515 59.0341 44.1126C56.3587 42.4345 52.4041 38.9782 49.6793 36.4947C47.6489 34.6589 44.6483 33.5696 41.4811 33.5531L36.9719 33.5297L32.4627 33.5062C29.2955 33.4897 26.2837 34.5477 24.2343 36.3622C21.4838 38.8173 17.4935 42.2323 14.8007 43.8824C9.89983 46.9168 2.23514 44.6223 0.969699 40.2137C0.811449 39.6761 0.70716 39.085 0.656552 38.4942C0.539691 40.3188 0.583874 42.1443 0.950704 43.864C2.20805 49.8294 9.86854 52.9291 14.775 48.8211C17.4708 46.5804 21.4673 41.9845 24.2226 38.6169C26.2754 36.1581 29.2888 34.7781 32.456 34.7946L36.9652 34.818L41.4744 34.8415C44.6416 34.858 47.6402 36.323 49.6675 38.7493C52.3879 42.0918 56.336 46.7827 59.0084 49.0513C63.8719 53.2101 71.5642 50.1903 72.8836 44.2384C73.2683 42.5225 73.3314 40.6976 73.2336 38.8719C73.1768 39.4621 73.0667 39.9984 72.9025 40.588Z" fill="url(#paint4_linear_13474_280)"/>
<path d="M28.0074 33.3755C31.5354 33.3939 34.4103 30.5487 34.4287 27.0207C34.447 23.4927 31.6019 20.6178 28.0739 20.5994C24.5458 20.581 21.6709 23.4262 21.6525 26.9542C21.6342 30.4823 24.4793 33.3572 28.0074 33.3755Z" fill="url(#paint5_linear_13474_280)"/>
<path d="M28.0119 32.5168C31.0656 32.5327 33.554 30.0701 33.5698 27.0164C33.5857 23.9627 31.1231 21.4744 28.0695 21.4585C25.0158 21.4426 22.5274 23.9052 22.5115 26.9589C22.4956 30.0125 24.9582 32.5009 28.0119 32.5168Z" fill="url(#paint6_linear_13474_280)"/>
<path d="M27.3869 28.8629C29.9366 28.8762 32.0142 26.82 32.0275 24.2703C32.0408 21.7207 29.9846 19.643 27.4349 19.6297C24.8853 19.6165 22.8076 21.6726 22.7943 24.2223C22.7811 26.772 24.8372 28.8496 27.3869 28.8629Z" fill="url(#paint7_linear_13474_280)"/>
<path d="M31.222 24.2663C31.2329 22.1727 29.5241 20.446 27.4305 20.4351C25.3369 20.4242 23.6102 22.1331 23.5993 24.2266C23.5884 26.3202 25.2973 28.047 27.3908 28.0578C29.4847 28.0151 31.2112 26.3599 31.222 24.2663Z" fill="url(#paint8_linear_13474_280)"/>
<path d="M43.4139 33.4559C46.9419 33.4742 49.8168 30.6291 49.8352 27.101C49.8535 23.573 47.0084 20.6981 43.4804 20.6797C39.9523 20.6614 37.0774 23.5065 37.059 27.0346C37.0407 30.5626 39.8858 33.4375 43.4139 33.4559Z" fill="url(#paint9_linear_13474_280)"/>
<path d="M43.4184 32.5969C46.4721 32.6128 48.9604 30.1501 48.9763 27.0965C48.9922 24.0428 46.5296 21.5544 43.4759 21.5385C40.4223 21.5226 37.9339 23.9853 37.918 27.0389C37.9021 30.0926 40.3647 32.581 43.4184 32.5969Z" fill="url(#paint10_linear_13474_280)"/>
<path d="M42.8469 28.9435C45.3965 28.9567 47.4742 26.9006 47.4875 24.3509C47.5007 21.8012 45.4446 19.7236 42.8949 19.7103C40.3452 19.697 38.2676 21.7532 38.2543 24.3029C38.241 26.8525 40.2972 28.9302 42.8469 28.9435Z" fill="url(#paint11_linear_13474_280)"/>
<path d="M46.6285 24.3466C46.6394 22.2531 44.9306 20.5263 42.837 20.5154C40.7434 20.5045 39.0167 22.2134 39.0058 24.307C38.9949 26.4005 40.7038 28.1273 42.7973 28.1382C44.9449 28.0957 46.6176 26.4402 46.6285 24.3466Z" fill="url(#paint12_linear_13474_280)"/>
<path d="M58.1804 12.1134C58.174 13.3481 56.988 14.3082 55.5386 14.3006C54.0892 14.2931 52.9135 13.267 52.9197 12.086C52.9261 10.8513 54.1121 9.89123 55.5615 9.89877C57.0112 9.85263 58.1869 10.8787 58.1804 12.1134Z" fill="url(#paint13_linear_13474_280)"/>
<path d="M55.5407 13.8712C56.697 13.8773 57.6384 13.089 57.6435 12.1106C57.6486 11.1323 56.7154 10.3343 55.5591 10.3283C54.4029 10.3223 53.4614 11.1105 53.4564 12.0889C53.4513 13.0672 54.3845 13.8652 55.5407 13.8712Z" fill="url(#paint14_linear_13474_280)"/>
<path d="M58.137 20.4873C58.1306 21.722 56.9446 22.6821 55.4952 22.6746C54.0458 22.667 52.8701 21.6409 52.8762 20.46C52.8827 19.2253 54.0687 18.2652 55.5181 18.2727C56.9675 18.2803 58.1434 19.2527 58.137 20.4873Z" fill="url(#paint15_linear_13474_280)"/>
<path d="M55.4975 22.245C56.6537 22.251 57.5952 21.4628 57.6003 20.4844C57.6054 19.5061 56.6722 18.7081 55.5159 18.7021C54.3597 18.696 53.4182 19.4843 53.4131 20.4626C53.4081 21.441 54.3412 22.239 55.4975 22.245Z" fill="url(#paint16_linear_13474_280)"/>
<path d="M62.6145 16.2698C62.6081 17.5045 61.4221 18.4646 59.9727 18.4571C58.5233 18.4495 57.3476 17.4234 57.3538 16.2424C57.3602 15.0078 58.5462 14.0476 59.9956 14.0552C61.445 14.0627 62.621 15.0351 62.6145 16.2698Z" fill="url(#paint17_linear_13474_280)"/>
<path d="M62.0776 16.2671C62.0725 17.2334 61.1558 18.0339 59.9748 18.0277C58.8475 18.0219 57.8854 17.2116 57.8904 16.2454C57.8955 15.2791 58.8122 14.4786 59.9932 14.4848C61.1205 14.4906 62.0826 15.3009 62.0776 16.2671Z" fill="url(#paint18_linear_13474_280)"/>
<path d="M54.294 16.2266C54.2876 17.4613 53.1015 18.4214 51.6522 18.4138C50.2028 18.4063 49.0271 17.3802 49.0332 16.1992C49.0396 14.9646 50.2257 14.0044 51.6751 14.012C53.1245 14.0195 54.3004 14.9919 54.294 16.2266Z" fill="url(#paint19_linear_13474_280)"/>
<path d="M53.7573 16.2237C53.7522 17.19 52.8355 17.9904 51.6545 17.9843C50.5272 17.9784 49.5651 17.1682 49.5701 16.2019C49.5752 15.2356 50.4919 14.4352 51.6729 14.4413C52.8002 14.4472 53.7623 15.2574 53.7573 16.2237Z" fill="url(#paint20_linear_13474_280)"/>
<path d="M17.6596 20.5988C21.0097 20.6163 23.7397 17.9146 23.7571 14.5644C23.7746 11.2143 21.0729 8.4843 17.7227 8.46687C14.3726 8.44944 11.6426 11.1511 11.6252 14.5013C11.6077 17.8514 14.3094 20.5814 17.6596 20.5988Z" fill="url(#paint21_linear_13474_280)"/>
<path d="M17.663 19.9546C20.6574 19.9702 23.0974 17.5554 23.113 14.561C23.1286 11.5666 20.7138 9.12656 17.7194 9.11098C14.725 9.0954 12.285 11.5102 12.2694 14.5046C12.2538 17.4989 14.6686 19.939 17.663 19.9546Z" fill="url(#paint22_linear_13474_280)"/>
<path d="M20.8645 13.3681L19.3614 13.3603C19.093 13.3589 18.8794 13.1431 18.8808 12.8747L18.8886 11.3716C18.89 11.1032 18.6764 10.8873 18.408 10.8859L16.9586 10.8784C16.6902 10.877 16.4743 11.0906 16.4729 11.359L16.4651 12.8621C16.4637 13.1305 16.2479 13.3441 15.9795 13.3427L14.4764 13.3349C14.208 13.3335 13.9921 13.5471 13.9907 13.8155L13.9832 15.2649C13.9818 15.5333 14.1954 15.7491 14.4638 15.7505L15.9669 15.7584C16.2353 15.7598 16.4489 15.9756 16.4475 16.244L16.4397 17.7471C16.4383 18.0155 16.6519 18.2313 16.9203 18.2327L18.3697 18.2403C18.6381 18.2417 18.8539 18.0281 18.8553 17.7597L18.8632 16.2566C18.8646 15.9882 19.0804 15.7746 19.3488 15.776L20.8519 15.7838C21.1203 15.7852 21.3361 15.5716 21.3375 15.3032L21.3451 13.8538C21.2928 13.5851 21.0792 13.3693 20.8645 13.3681Z" fill="url(#paint23_linear_13474_280)"/>
<path d="M35.3524 14.571L29.8232 14.5423C29.5548 14.5409 29.3927 14.7548 29.3916 14.9695L29.3837 16.4726C29.3823 16.741 29.5962 16.9031 29.811 16.9042L35.3401 16.933C35.6085 16.9344 35.7707 16.7205 35.7718 16.5058L35.7796 15.0027C35.781 14.7343 35.5671 14.5722 35.3524 14.571Z" fill="url(#paint24_linear_13474_280)"/>
<path d="M43.5653 14.614L38.0361 14.5852C37.7677 14.5838 37.6056 14.7977 37.6045 15.0125L37.5966 16.5155C37.5952 16.7839 37.8091 16.9461 38.0238 16.9472L43.553 16.976C43.8214 16.9774 43.9836 16.7635 43.9847 16.5488L43.9925 15.0457C43.9939 14.7773 43.8337 14.6154 43.5653 14.614Z" fill="url(#paint25_linear_13474_280)"/>
<defs>
<linearGradient id="paint0_linear_13474_280" x1="19.8322" y1="-0.401797" x2="18.2206" y2="6.50506" gradientUnits="userSpaceOnUse">
<stop stop-color="#E474C6"/>
<stop offset="0.9892" stop-color="#0E7CF7"/>
</linearGradient>
<linearGradient id="paint1_linear_13474_280" x1="52.1179" y1="-0.373557" x2="55.6003" y2="6.02813" gradientUnits="userSpaceOnUse">
<stop stop-color="#E474C6"/>
<stop offset="0.9892" stop-color="#0E7CF7"/>
</linearGradient>
<linearGradient id="paint2_linear_13474_280" x1="37.1241" y1="13.9601" x2="36.9365" y2="50.0233" gradientUnits="userSpaceOnUse">
<stop stop-color="#826F8C"/>
<stop offset="1" stop-color="#446381"/>
</linearGradient>
<linearGradient id="paint3_linear_13474_280" x1="37.3641" y1="4.22918" x2="36.6678" y2="70.7517" gradientUnits="userSpaceOnUse">
<stop stop-color="#826F8C"/>
<stop offset="0.9946" stop-color="#446381"/>
</linearGradient>
<linearGradient id="paint4_linear_13474_280" x1="38.6208" y1="1.18531" x2="36.8211" y2="44.2428" gradientUnits="userSpaceOnUse">
<stop stop-color="#8F4EB6"/>
<stop offset="0.9946" stop-color="#446381"/>
</linearGradient>
<linearGradient id="paint5_linear_13474_280" x1="28.226" y1="20.3086" x2="27.9009" y2="32.2991" gradientUnits="userSpaceOnUse">
<stop stop-color="#8F4EB6"/>
<stop offset="0.9946" stop-color="#5141AE"/>
</linearGradient>
<linearGradient id="paint6_linear_13474_280" x1="28.0622" y1="23.5854" x2="27.9762" y2="40.1289" gradientUnits="userSpaceOnUse">
<stop stop-color="#6F469E"/>
<stop offset="1" stop-color="#360F6E"/>
</linearGradient>
<linearGradient id="paint7_linear_13474_280" x1="22.8336" y1="24.2012" x2="32.0298" y2="24.2491" gradientUnits="userSpaceOnUse">
<stop stop-color="#CB9DFF"/>
<stop offset="0.9892" stop-color="#796AFB"/>
</linearGradient>
<linearGradient id="paint8_linear_13474_280" x1="27.1314" y1="21.6973" x2="28.3892" y2="32.2954" gradientUnits="userSpaceOnUse">
<stop stop-color="#CB9DFF"/>
<stop offset="0.9892" stop-color="#796AFB"/>
</linearGradient>
<linearGradient id="paint9_linear_13474_280" x1="43.4092" y1="18.1085" x2="43.5071" y2="32.9461" gradientUnits="userSpaceOnUse">
<stop stop-color="#8F4EB6"/>
<stop offset="0.9946" stop-color="#5141AE"/>
</linearGradient>
<linearGradient id="paint10_linear_13474_280" x1="43.4863" y1="23.6656" x2="43.4002" y2="40.2091" gradientUnits="userSpaceOnUse">
<stop stop-color="#6F469E"/>
<stop offset="1" stop-color="#360F6E"/>
</linearGradient>
<linearGradient id="paint11_linear_13474_280" x1="38.2575" y1="24.2816" x2="47.4536" y2="24.3295" gradientUnits="userSpaceOnUse">
<stop stop-color="#CB9DFF"/>
<stop offset="0.9892" stop-color="#796AFB"/>
</linearGradient>
<linearGradient id="paint12_linear_13474_280" x1="42.3318" y1="19.8933" x2="43.5897" y2="30.4915" gradientUnits="userSpaceOnUse">
<stop stop-color="#CB9DFF"/>
<stop offset="0.9892" stop-color="#796AFB"/>
</linearGradient>
<linearGradient id="paint13_linear_13474_280" x1="55.6205" y1="7.61386" x2="55.5332" y2="15.9729" gradientUnits="userSpaceOnUse">
<stop stop-color="#8F4EB6"/>
<stop offset="0.9946" stop-color="#5141AE"/>
</linearGradient>
<linearGradient id="paint14_linear_13474_280" x1="54.9242" y1="8.45676" x2="56.115" y2="15.1155" gradientUnits="userSpaceOnUse">
<stop stop-color="#D2F9FF"/>
<stop offset="0.9946" stop-color="#618DD6"/>
</linearGradient>
<linearGradient id="paint15_linear_13474_280" x1="55.6087" y1="16.3536" x2="55.4882" y2="22.6991" gradientUnits="userSpaceOnUse">
<stop stop-color="#8F4EB6"/>
<stop offset="0.9946" stop-color="#5141AE"/>
</linearGradient>
<linearGradient id="paint16_linear_13474_280" x1="55.0415" y1="17.7861" x2="55.9774" y2="22.9554" gradientUnits="userSpaceOnUse">
<stop stop-color="#D2F9FF"/>
<stop offset="0.9946" stop-color="#618DD6"/>
</linearGradient>
<linearGradient id="paint17_linear_13474_280" x1="60.0618" y1="10.8716" x2="59.9374" y2="17.9612" gradientUnits="userSpaceOnUse">
<stop stop-color="#8F4EB6"/>
<stop offset="0.9946" stop-color="#5141AE"/>
</linearGradient>
<linearGradient id="paint18_linear_13474_280" x1="59.005" y1="13.1849" x2="60.8993" y2="19.2346" gradientUnits="userSpaceOnUse">
<stop stop-color="#D2F9FF"/>
<stop offset="0.9946" stop-color="#618DD6"/>
</linearGradient>
<linearGradient id="paint19_linear_13474_280" x1="51.6056" y1="12.28" x2="51.7027" y2="18.8455" gradientUnits="userSpaceOnUse">
<stop stop-color="#8F4EB6"/>
<stop offset="0.9946" stop-color="#5141AE"/>
</linearGradient>
<linearGradient id="paint20_linear_13474_280" x1="51.1321" y1="13.7395" x2="52.2431" y2="18.9098" gradientUnits="userSpaceOnUse">
<stop stop-color="#D2F9FF"/>
<stop offset="0.9946" stop-color="#618DD6"/>
</linearGradient>
<linearGradient id="paint21_linear_13474_280" x1="17.4526" y1="3.99267" x2="17.8776" y2="23.2523" gradientUnits="userSpaceOnUse">
<stop stop-color="#8F4EB6"/>
<stop offset="0.9946" stop-color="#5141AE"/>
</linearGradient>
<linearGradient id="paint22_linear_13474_280" x1="20.5381" y1="3.26124" x2="16.0695" y2="20.9198" gradientUnits="userSpaceOnUse">
<stop stop-color="#E474C6"/>
<stop offset="0.9892" stop-color="#0E7CF7"/>
</linearGradient>
<linearGradient id="paint23_linear_13474_280" x1="15.8936" y1="8.66006" x2="18.6477" y2="17.6903" gradientUnits="userSpaceOnUse">
<stop stop-color="#D2F9FF"/>
<stop offset="0.9946" stop-color="#618DD6"/>
</linearGradient>
<linearGradient id="paint24_linear_13474_280" x1="32.5988" y1="13.984" x2="32.4793" y2="20.1109" gradientUnits="userSpaceOnUse">
<stop stop-color="#E474C6"/>
<stop offset="0.9892" stop-color="#7142A2"/>
</linearGradient>
<linearGradient id="paint25_linear_13474_280" x1="40.8419" y1="14.1449" x2="40.7225" y2="20.2718" gradientUnits="userSpaceOnUse">
<stop stop-color="#E474C6"/>
<stop offset="0.9892" stop-color="#7142A2"/>
</linearGradient>
</defs>
</svg>
