<svg width="86" height="49" viewBox="0 0 86 49" fill="none" xmlns="http://www.w3.org/2000/svg">
<path d="M33.1844 9.73869L17.67 8.60349C44.8607 1.84634 64.3753 -0.586232 70.9162 0.116511C77.4572 0.819253 84.7008 4.87355 85.2414 12.4415C85.7819 20.0095 85.6198 24.8747 85.6198 24.8747C84.2143 30.5507 69.6729 37.0916 69.6729 37.0916C69.6729 37.0916 65.5646 30.1723 65.4565 25.9558C65.3484 21.7394 66.1592 18.7662 66.1592 18.7662C69.1864 17.5229 75.457 15.7931 77.0788 12.3875C81.5114 3.08966 59.4021 5.73845 55.8343 6.11685C48.2663 6.92771 40.6443 8.06292 33.1844 9.73869Z" fill="url(#paint0_linear_13474_346)"/>
<path d="M1.66956 19.1452C2.64259 16.2802 4.31837 13.5773 7.02122 12.4421C7.02122 12.4421 7.07528 12.4421 7.07528 12.3881L20.1571 6.60394C20.968 6.17148 21.8869 5.9012 22.86 5.79308C29.4009 5.19845 36.5364 6.82018 43.2936 7.90132C43.5098 7.95538 43.726 7.95537 43.9422 8.00943C44.1585 8.06349 44.3747 8.11755 44.5909 8.17161C51.4021 9.68521 58.4836 10.8204 65.1326 13.9557C69.1329 15.8477 71.6195 20.1182 72.9709 24.1185C75.1872 30.8756 74.1061 38.4436 69.295 41.4708H69.241C68.5923 41.8492 67.9436 42.1735 67.1868 42.3898L54.9699 48.0117C53.2941 48.8766 51.294 49.2009 48.8614 48.8766C41.1853 47.8495 30.9145 45.7413 30.9145 45.7413C30.9145 45.7413 20.6977 43.9033 12.9675 42.0113C2.58854 39.3625 -1.03329 27.2538 1.66956 19.1452Z" fill="url(#paint1_linear_13474_346)"/>
<path d="M1.66915 19.1444C2.8584 15.6307 5.18286 12.2791 9.18309 11.9008C15.724 11.3061 22.8595 12.9278 29.6167 14.009C29.8329 14.063 30.0491 14.063 30.2654 14.1171C30.4816 14.1712 30.6978 14.2252 30.914 14.2793C37.7252 15.7929 44.8067 16.9281 51.4558 20.0634C55.456 21.9554 57.9426 26.2259 59.294 30.2261C62.3212 39.4158 59.1859 50.2272 48.807 48.8218C41.1308 47.7947 30.86 45.6864 30.86 45.6864C30.86 45.6864 20.6432 43.8485 12.913 41.9565C2.58812 39.3618 -1.03371 27.253 1.66915 19.1444Z" fill="url(#paint2_linear_13474_346)"/>
<path d="M4.10124 20.4422C5.18238 17.3069 7.29061 14.3337 10.9124 14.0094C16.8587 13.5229 23.3456 14.9283 29.5081 15.9014C29.7243 15.9554 29.8865 15.9554 30.1027 16.0095C30.3189 16.0636 30.4811 16.1176 30.6973 16.1176C36.8599 17.469 43.3467 18.4961 49.3471 21.253C53.0229 22.9288 55.2393 26.7128 56.4826 30.2806C59.2395 38.4432 56.3745 48.0113 46.9685 46.822C39.9952 45.9031 30.6973 44.0111 30.6973 44.0111C30.6973 44.0111 21.3995 42.3893 14.3721 40.6595C4.91209 38.3351 1.66867 27.6318 4.10124 20.4422Z" fill="url(#paint3_linear_13474_346)"/>
<path d="M31.3462 11.3067L36.9681 9.41471C37.1843 9.36066 37.4546 9.3066 37.7249 9.41471L48.0498 11.6851C48.4282 11.7392 48.5904 12.2257 48.266 12.3338L42.6441 14.2258C42.4279 14.2799 42.1576 14.3339 41.8873 14.2258L31.5624 11.9554C31.238 11.9013 31.0218 11.4148 31.3462 11.3067Z" fill="url(#paint4_linear_13474_346)"/>
<path d="M29.5086 15.9009C29.7249 15.9549 29.887 15.9549 30.1033 16.009C30.3195 16.063 30.4817 16.1171 30.6979 16.1171L42.9148 46.2269C37.6172 45.4161 32.2115 44.3349 30.9141 44.0646L18.7513 14.2251C22.3731 14.6576 25.9949 15.3603 29.5086 15.9009Z" fill="url(#paint5_linear_13474_346)"/>
<path d="M42.1039 18.6581L53.1316 45.6866C51.5099 46.6596 49.5098 47.1462 46.9691 46.8218C46.8069 46.8218 46.5907 46.7678 46.3745 46.7678L34.2116 16.9282C36.8604 17.4147 39.5092 17.9553 42.1039 18.6581Z" fill="url(#paint6_linear_13474_346)"/>
<defs>
<linearGradient id="paint0_linear_13474_346" x1="58.8585" y1="-13.2864" x2="48.2812" y2="30.6097" gradientUnits="userSpaceOnUse">
<stop stop-color="#EEBA9C"/>
<stop offset="0.9892" stop-color="#EB8382"/>
</linearGradient>
<linearGradient id="paint1_linear_13474_346" x1="15.9088" y1="8.23225" x2="69.616" y2="55.8757" gradientUnits="userSpaceOnUse">
<stop stop-color="#826F8C"/>
<stop offset="0.9946" stop-color="#446381"/>
</linearGradient>
<linearGradient id="paint2_linear_13474_346" x1="19.5309" y1="4.59244" x2="47.032" y2="69.4669" gradientUnits="userSpaceOnUse">
<stop stop-color="#E474C6"/>
<stop offset="0.9892" stop-color="#0E7CF7"/>
</linearGradient>
<linearGradient id="paint3_linear_13474_346" x1="27.4602" y1="13.3787" x2="35.5695" y2="61.3295" gradientUnits="userSpaceOnUse">
<stop stop-color="#D2F9FF"/>
<stop offset="0.9946" stop-color="#618DD6"/>
</linearGradient>
<linearGradient id="paint4_linear_13474_346" x1="36.7516" y1="5.5312" x2="43.6269" y2="19.6343" gradientUnits="userSpaceOnUse">
<stop stop-color="#6F469E"/>
<stop offset="1" stop-color="#360F6E"/>
</linearGradient>
<linearGradient id="paint5_linear_13474_346" x1="42.4568" y1="48.5049" x2="-35.4054" y2="-75.0363" gradientUnits="userSpaceOnUse">
<stop stop-color="#D2F9FF"/>
<stop offset="0.4364" stop-color="#A0CAED"/>
<stop offset="0.9946" stop-color="#618DD6"/>
</linearGradient>
<linearGradient id="paint6_linear_13474_346" x1="57.9562" y1="49.6432" x2="-18.9059" y2="-45.3766" gradientUnits="userSpaceOnUse">
<stop stop-color="#D2F9FF"/>
<stop offset="0.9946" stop-color="#618DD6"/>
</linearGradient>
</defs>
</svg>
