<svg width="48" height="8" viewBox="0 0 48 8" fill="none" xmlns="http://www.w3.org/2000/svg">
<g clip-path="url(#clip0_13474_362)">
<path d="M32.46 7.01367C32.2963 7.09764 32.1106 6.95048 32.1436 6.7626L32.4956 4.75657L31.0015 3.33327C30.862 3.2001 30.9345 2.95666 31.1215 2.93037L33.1988 2.63519L34.1251 0.800077C34.2086 0.634675 34.4347 0.634675 34.5182 0.800077L35.4445 2.63519L37.5217 2.93037C37.7088 2.95666 37.7813 3.2001 37.6413 3.33327L36.1476 4.75657L36.4996 6.7626C36.5327 6.95048 36.347 7.09764 36.1833 7.01367L34.321 6.05688L32.4596 7.01367H32.46Z" fill="#FFB359"/>
</g>
<g clip-path="url(#clip1_13474_362)">
<path d="M22.2815 7.01367C22.1178 7.09764 21.9321 6.95048 21.9652 6.7626L22.3172 4.75657L20.823 3.33327C20.6835 3.2001 20.756 2.95666 20.9431 2.93037L23.0203 2.63519L23.9466 0.800077C24.0301 0.634675 24.2562 0.634675 24.3397 0.800077L25.266 2.63519L27.3433 2.93037C27.5303 2.95666 27.6028 3.2001 27.4629 3.33327L25.9692 4.75657L26.3212 6.7626C26.3542 6.95048 26.1685 7.09764 26.0048 7.01367L24.1425 6.05688L22.2811 7.01367H22.2815Z" fill="#FFB359"/>
</g>
<g clip-path="url(#clip2_13474_362)">
<path d="M12.1031 7.01367C11.9394 7.09764 11.7536 6.95048 11.7867 6.7626L12.1387 4.75657L10.6446 3.33327C10.505 3.2001 10.5776 2.95666 10.7646 2.93037L12.8419 2.63519L13.7681 0.800077C13.8517 0.634675 14.0777 0.634675 14.1613 0.800077L15.0875 2.63519L17.1648 2.93037C17.3518 2.95666 17.4244 3.2001 17.2844 3.33327L15.7907 4.75657L16.1427 6.7626C16.1758 6.95048 15.99 7.09764 15.8263 7.01367L13.9641 6.05688L12.1027 7.01367H12.1031Z" fill="#FFB359"/>
</g>
<g clip-path="url(#clip3_13474_362)">
<path d="M1.92437 7.01367C1.76066 7.09764 1.57491 6.95048 1.60799 6.7626L1.96 4.75657L0.465866 3.33327C0.326335 3.2001 0.398857 2.95666 0.585888 2.93037L2.66316 2.63519L3.58941 0.800077C3.67296 0.634675 3.89901 0.634675 3.98256 0.800077L4.90881 2.63519L6.98609 2.93037C7.17312 2.95666 7.24564 3.2001 7.10569 3.33327L5.61198 4.75657L5.96399 6.7626C5.99707 6.95048 5.81131 7.09764 5.64761 7.01367L3.78535 6.05688L1.92395 7.01367H1.92437Z" fill="#FFB359"/>
</g>
<g clip-path="url(#clip4_13474_362)">
<path d="M42.6387 7.01367C42.475 7.09764 42.2893 6.95048 42.3223 6.7626L42.6744 4.75657L41.1802 3.33327C41.0407 3.2001 41.1132 2.95666 41.3002 2.93037L43.3775 2.63519L44.3038 0.800077C44.3873 0.634675 44.6134 0.634675 44.6969 0.800077L45.6232 2.63519L47.7004 2.93037C47.8875 2.95666 47.96 3.2001 47.82 3.33327L46.3263 4.75657L46.6783 6.7626C46.7114 6.95048 46.5257 7.09764 46.362 7.01367L44.4997 6.05688L42.6383 7.01367H42.6387Z" fill="#FFB359"/>
</g>
<defs>
<clipPath id="clip0_13474_362">
<rect width="6.78571" height="6.78571" fill="white" transform="translate(30.9282 0.464111)"/>
</clipPath>
<clipPath id="clip1_13474_362">
<rect width="6.78571" height="6.78571" fill="white" transform="translate(20.7498 0.464111)"/>
</clipPath>
<clipPath id="clip2_13474_362">
<rect width="6.78571" height="6.78571" fill="white" transform="translate(10.5713 0.464111)"/>
</clipPath>
<clipPath id="clip3_13474_362">
<rect width="6.78571" height="6.78571" fill="white" transform="translate(0.392578 0.464111)"/>
</clipPath>
<clipPath id="clip4_13474_362">
<rect width="6.78571" height="6.78571" fill="white" transform="translate(41.1069 0.464111)"/>
</clipPath>
</defs>
</svg>
